  0
SECTION
  2
HEADER
  9
$ACADVER
  1
AC1024
  9
$ACADMAINTVER
 70
6
  9
$DWGCODEPAGE
  3
ANSI_1252
  9
$LASTSAVEDBY
  1
ezdxf
  9
$INSBASE
 10
0.0
 20
0.0
 30
0.0
  9
$EXTMIN
 10
1e+20
 20
1e+20
 30
1e+20
  9
$EXTMAX
 10
-1e+20
 20
-1e+20
 30
-1e+20
  9
$LIMMIN
 10
0.0
 20
0.0
  9
$LIMMAX
 10
420.0
 20
297.0
  9
$ORTHOMODE
 70
0
  9
$REGENMODE
 70
1
  9
$FILLMODE
 70
1
  9
$QTEXTMODE
 70
0
  9
$MIRRTEXT
 70
1
  9
$LTSCALE
 40
1.0
  9
$ATTMODE
 70
1
  9
$TEXTSIZE
 40
2.5
  9
$TRACEWID
 40
1.0
  9
$TEXTSTYLE
  7
Standard
  9
$CLAYER
  8
0
  9
$CELTYPE
  6
ByLayer
  9
$CECOLOR
 62
256
  9
$CELTSCALE
 40
1.0
  9
$DISPSILH
 70
0
  9
$DIMSCALE
 40
1.0
  9
$DIMASZ
 40
2.5
  9
$DIMEXO
 40
0.625
  9
$DIMDLI
 40
3.75
  9
$DIMRND
 40
0.0
  9
$DIMDLE
 40
0.0
  9
$DIMEXE
 40
1.25
  9
$DIMTP
 40
0.0
  9
$DIMTM
 40
0.0
  9
$DIMTXT
 40
2.5
  9
$DIMCEN
 40
2.5
  9
$DIMTSZ
 40
0.0
  9
$DIMTOL
 70
0
  9
$DIMLIM
 70
0
  9
$DIMTIH
 70
0
  9
$DIMTOH
 70
0
  9
$DIMSE1
 70
0
  9
$DIMSE2
 70
0
  9
$DIMTAD
 70
1
  9
$DIMZIN
 70
8
  9
$DIMBLK
  1

  9
$DIMASO
 70
1
  9
$DIMSHO
 70
1
  9
$DIMPOST
  1

  9
$DIMAPOST
  1

  9
$DIMALT
 70
0
  9
$DIMALTD
 70
3
  9
$DIMALTF
 40
0.03937007874
  9
$DIMLFAC
 40
1.0
  9
$DIMTOFL
 70
1
  9
$DIMTVP
 40
0.0
  9
$DIMTIX
 70
0
  9
$DIMSOXD
 70
0
  9
$DIMSAH
 70
0
  9
$DIMBLK1
  1

  9
$DIMBLK2
  1

  9
$DIMSTYLE
  2
ISO-25
  9
$DIMCLRD
 70
0
  9
$DIMCLRE
 70
0
  9
$DIMCLRT
 70
0
  9
$DIMTFAC
 40
1.0
  9
$DIMGAP
 40
0.625
  9
$DIMJUST
 70
0
  9
$DIMSD1
 70
0
  9
$DIMSD2
 70
0
  9
$DIMTOLJ
 70
0
  9
$DIMTZIN
 70
8
  9
$DIMALTZ
 70
0
  9
$DIMALTTZ
 70
0
  9
$DIMUPT
 70
0
  9
$DIMDEC
 70
2
  9
$DIMTDEC
 70
2
  9
$DIMALTU
 70
2
  9
$DIMALTTD
 70
3
  9
$DIMTXSTY
  7
Standard
  9
$DIMAUNIT
 70
0
  9
$DIMADEC
 70
0
  9
$DIMALTRND
 40
0.0
  9
$DIMAZIN
 70
0
  9
$DIMDSEP
 70
44
  9
$DIMATFIT
 70
3
  9
$DIMFRAC
 70
0
  9
$DIMLDRBLK
  1

  9
$DIMLUNIT
 70
2
  9
$DIMLWD
 70
-2
  9
$DIMLWE
 70
-2
  9
$DIMTMOVE
 70
0
  9
$DIMFXL
 40
1.0
  9
$DIMFXLON
 70
0
  9
$DIMJOGANG
 40
0.785398163397
  9
$DIMTFILL
 70
0
  9
$DIMTFILLCLR
 70
0
  9
$DIMARCSYM
 70
0
  9
$DIMLTYPE
  6

  9
$DIMLTEX1
  6

  9
$DIMLTEX2
  6

  9
$DIMTXTDIRECTION
 70
0
  9
$LUNITS
 70
2
  9
$LUPREC
 70
4
  9
$SKETCHINC
 40
1.0
  9
$FILLETRAD
 40
10.0
  9
$AUNITS
 70
0
  9
$AUPREC
 70
2
  9
$MENU
  1
.
  9
$ELEVATION
 40
0.0
  9
$PELEVATION
 40
0.0
  9
$THICKNESS
 40
0.0
  9
$LIMCHECK
 70
0
  9
$CHAMFERA
 40
0.0
  9
$CHAMFERB
 40
0.0
  9
$CHAMFERC
 40
0.0
  9
$CHAMFERD
 40
0.0
  9
$SKPOLY
 70
0
  9
$TDCREATE
 40
2461180.9211574076
  9
$TDUCREATE
 40
2458532.153996898
  9
$TDUPDATE
 40
2461180.9211574076
  9
$TDUUPDATE
 40
2458532.1544311
  9
$TDINDWG
 40
0.0
  9
$TDUSRTIMER
 40
0.0
  9
$USRTIMER
 70
1
  9
$ANGBASE
 50
0.0
  9
$ANGDIR
 70
0
  9
$PDMODE
 70
0
  9
$PDSIZE
 40
0.0
  9
$PLINEWID
 40
0.0
  9
$SPLFRAME
 70
0
  9
$SPLINETYPE
 70
6
  9
$SPLINESEGS
 70
8
  9
$HANDSEED
  5
3B6
  9
$SURFTAB1
 70
6
  9
$SURFTAB2
 70
6
  9
$SURFTYPE
 70
6
  9
$SURFU
 70
6
  9
$SURFV
 70
6
  9
$UCSBASE
  2

  9
$UCSNAME
  2

  9
$UCSORG
 10
0.0
 20
0.0
 30
0.0
  9
$UCSXDIR
 10
1.0
 20
0.0
 30
0.0
  9
$UCSYDIR
 10
0.0
 20
1.0
 30
0.0
  9
$UCSORTHOREF
  2

  9
$UCSORTHOVIEW
 70
0
  9
$UCSORGTOP
 10
0.0
 20
0.0
 30
0.0
  9
$UCSORGBOTTOM
 10
0.0
 20
0.0
 30
0.0
  9
$UCSORGLEFT
 10
0.0
 20
0.0
 30
0.0
  9
$UCSORGRIGHT
 10
0.0
 20
0.0
 30
0.0
  9
$UCSORGFRONT
 10
0.0
 20
0.0
 30
0.0
  9
$UCSORGBACK
 10
0.0
 20
0.0
 30
0.0
  9
$PUCSBASE
  2

  9
$PUCSNAME
  2

  9
$PUCSORG
 10
0.0
 20
0.0
 30
0.0
  9
$PUCSXDIR
 10
1.0
 20
0.0
 30
0.0
  9
$PUCSYDIR
 10
0.0
 20
1.0
 30
0.0
  9
$PUCSORTHOREF
  2

  9
$PUCSORTHOVIEW
 70
0
  9
$PUCSORGTOP
 10
0.0
 20
0.0
 30
0.0
  9
$PUCSORGBOTTOM
 10
0.0
 20
0.0
 30
0.0
  9
$PUCSORGLEFT
 10
0.0
 20
0.0
 30
0.0
  9
$PUCSORGRIGHT
 10
0.0
 20
0.0
 30
0.0
  9
$PUCSORGFRONT
 10
0.0
 20
0.0
 30
0.0
  9
$PUCSORGBACK
 10
0.0
 20
0.0
 30
0.0
  9
$USERI1
 70
0
  9
$USERI2
 70
0
  9
$USERI3
 70
0
  9
$USERI4
 70
0
  9
$USERI5
 70
0
  9
$USERR1
 40
0.0
  9
$USERR2
 40
0.0
  9
$USERR3
 40
0.0
  9
$USERR4
 40
0.0
  9
$USERR5
 40
0.0
  9
$WORLDVIEW
 70
1
  9
$SHADEDGE
 70
3
  9
$SHADEDIF
 70
70
  9
$TILEMODE
 70
1
  9
$MAXACTVP
 70
64
  9
$PINSBASE
 10
0.0
 20
0.0
 30
0.0
  9
$PLIMCHECK
 70
0
  9
$PEXTMIN
 10
1e+20
 20
1e+20
 30
1e+20
  9
$PEXTMAX
 10
-1e+20
 20
-1e+20
 30
-1e+20
  9
$PLIMMIN
 10
0.0
 20
0.0
  9
$PLIMMAX
 10
420.0
 20
297.0
  9
$UNITMODE
 70
0
  9
$VISRETAIN
 70
1
  9
$PLINEGEN
 70
0
  9
$PSLTSCALE
 70
1
  9
$TREEDEPTH
 70
3020
  9
$CMLSTYLE
  2
Standard
  9
$CMLJUST
 70
0
  9
$CMLSCALE
 40
20.0
  9
$PROXYGRAPHICS
 70
1
  9
$MEASUREMENT
 70
1
  9
$CELWEIGHT
370
-1
  9
$ENDCAPS
280
0
  9
$JOINSTYLE
280
0
  9
$LWDISPLAY
290
0
  9
$INSUNITS
 70
4
  9
$HYPERLINKBASE
  1

  9
$STYLESHEET
  1

  9
$XEDIT
290
1
  9
$CEPSNTYPE
380
0
  9
$PSTYLEMODE
290
1
  9
$FINGERPRINTGUID
  2
{6C59A5AB-FDB6-494F-A513-A0EEDDAA8B8C}
  9
$VERSIONGUID
  2
{71D707B0-B681-4F4A-BD2F-5986F7AB6679}
  9
$EXTNAMES
290
1
  9
$PSVPSCALE
 40
0.0
  9
$OLESTARTUP
290
0
  9
$SORTENTS
280
127
  9
$INDEXCTL
280
0
  9
$HIDETEXT
280
1
  9
$XCLIPFRAME
280
1
  9
$HALOGAP
280
0
  9
$OBSCOLOR
 70
257
  9
$OBSLTYPE
280
0
  9
$INTERSECTIONDISPLAY
280
0
  9
$INTERSECTIONCOLOR
 70
257
  9
$DIMASSOC
280
2
  9
$PROJECTNAME
  1

  9
$CAMERADISPLAY
290
0
  9
$LENSLENGTH
 40
50.0
  9
$CAMERAHEIGHT
 40
0.0
  9
$STEPSPERSEC
 40
24.0
  9
$STEPSIZE
 40
100.0
  9
$3DDWFPREC
 40
2.0
  9
$PSOLWIDTH
 40
0.005
  9
$PSOLHEIGHT
 40
0.08
  9
$LOFTANG1
 40
1.570796326795
  9
$LOFTANG2
 40
1.570796326795
  9
$LOFTMAG1
 40
0.0
  9
$LOFTMAG2
 40
0.0
  9
$LOFTPARAM
 70
7
  9
$LOFTNORMALS
280
1
  9
$LATITUDE
 40
37.795
  9
$LONGITUDE
 40
-122.394
  9
$NORTHDIRECTION
 40
0.0
  9
$TIMEZONE
 70
-8000
  9
$LIGHTGLYPHDISPLAY
280
1
  9
$TILEMODELIGHTSYNCH
280
1
  9
$CMATERIAL
347
20
  9
$SOLIDHIST
280
0
  9
$SHOWHIST
280
1
  9
$DWFFRAME
280
2
  9
$DGNFRAME
280
2
  9
$REALWORLDSCALE
290
1
  9
$INTERFERECOLOR
 62
256
  9
$CSHADOW
280
0
  9
$SHADOWPLANELOCATION
 40
0.0
  0
ENDSEC
  0
SECTION
  2
CLASSES
  0
CLASS
  1
ACDBDICTIONARYWDFLT
  2
AcDbDictionaryWithDefault
  3
ObjectDBX Classes
 90
0
 91
0
280
0
281
0
  0
CLASS
  1
SUN
  2
AcDbSun
  3
SCENEOE
 90
1153
 91
0
280
0
281
0
  0
CLASS
  1
VISUALSTYLE
  2
AcDbVisualStyle
  3
ObjectDBX Classes
 90
4095
 91
0
280
0
281
0
  0
CLASS
  1
MATERIAL
  2
AcDbMaterial
  3
ObjectDBX Classes
 90
1153
 91
0
280
0
281
0
  0
CLASS
  1
SCALE
  2
AcDbScale
  3
ObjectDBX Classes
 90
1153
 91
0
280
0
281
0
  0
CLASS
  1
TABLESTYLE
  2
AcDbTableStyle
  3
ObjectDBX Classes
 90
4095
 91
0
280
0
281
0
  0
CLASS
  1
MLEADERSTYLE
  2
AcDbMLeaderStyle
  3
ACDB_MLEADERSTYLE_CLASS
 90
4095
 91
0
280
0
281
0
  0
CLASS
  1
DICTIONARYVAR
  2
AcDbDictionaryVar
  3
ObjectDBX Classes
 90
0
 91
0
280
0
281
0
  0
CLASS
  1
CELLSTYLEMAP
  2
AcDbCellStyleMap
  3
ObjectDBX Classes
 90
1152
 91
0
280
0
281
0
  0
CLASS
  1
MENTALRAYRENDERSETTINGS
  2
AcDbMentalRayRenderSettings
  3
SCENEOE
 90
1024
 91
0
280
0
281
0
  0
CLASS
  1
ACDBDETAILVIEWSTYLE
  2
AcDbDetailViewStyle
  3
ObjectDBX Classes
 90
1025
 91
0
280
0
281
0
  0
CLASS
  1
ACDBSECTIONVIEWSTYLE
  2
AcDbSectionViewStyle
  3
ObjectDBX Classes
 90
1025
 91
0
280
0
281
0
  0
CLASS
  1
RASTERVARIABLES
  2
AcDbRasterVariables
  3
ISM
 90
0
 91
0
280
0
281
0
  0
CLASS
  1
ACDBPLACEHOLDER
  2
AcDbPlaceHolder
  3
ObjectDBX Classes
 90
0
 91
0
280
0
281
0
  0
CLASS
  1
LAYOUT
  2
AcDbLayout
  3
ObjectDBX Classes
 90
0
 91
0
280
0
281
0
  0
ENDSEC
  0
SECTION
  2
TABLES
  0
TABLE
  2
VPORT
  5
8
330
0
100
AcDbSymbolTable
 70
1
  0
VPORT
  5
23
330
8
100
AcDbSymbolTableRecord
100
AcDbViewportTableRecord
  2
*Active
 70
0
 10
0.0
 20
0.0
 11
1.0
 21
1.0
 12
0.0
 22
0.0
 13
0.0
 23
0.0
 14
0.5
 24
0.5
 15
0.5
 25
0.5
 16
0.0
 26
0.0
 36
1.0
 17
0.0
 27
0.0
 37
0.0
 40
1000.0
 41
1.34
 42
50.0
 43
0.0
 44
0.0
 50
0.0
 51
0.0
 71
0
 72
1000
 73
1
 74
3
 75
0
 76
0
 77
0
 78
0
281
0
 65
0
146
0.0
  0
ENDTAB
  0
TABLE
  2
LTYPE
  5
2
330
0
100
AcDbSymbolTable
 70
3
  0
LTYPE
  5
24
330
2
100
AcDbSymbolTableRecord
100
AcDbLinetypeTableRecord
  2
ByBlock
 70
0
  3

 72
65
 73
0
 40
0.0
  0
LTYPE
  5
25
330
2
100
AcDbSymbolTableRecord
100
AcDbLinetypeTableRecord
  2
ByLayer
 70
0
  3

 72
65
 73
0
 40
0.0
  0
LTYPE
  5
26
330
2
100
AcDbSymbolTableRecord
100
AcDbLinetypeTableRecord
  2
Continuous
 70
0
  3

 72
65
 73
0
 40
0.0
  0
ENDTAB
  0
TABLE
  2
LAYER
  5
1
330
0
100
AcDbSymbolTable
 70
2
  0
LAYER
  5
27
330
1
100
AcDbSymbolTableRecord
100
AcDbLayerTableRecord
  2
0
 70
0
 62
7
  6
Continuous
370
-3
390
13
347
21
  0
LAYER
  5
28
330
1
100
AcDbSymbolTableRecord
100
AcDbLayerTableRecord
  2
Defpoints
 70
0
 62
7
  6
Continuous
290
0
370
-3
390
13
347
21
  0
ENDTAB
  0
TABLE
  2
STYLE
  5
5
330
0
100
AcDbSymbolTable
 70
1
  0
STYLE
  5
29
330
5
100
AcDbSymbolTableRecord
100
AcDbTextStyleTableRecord
  2
Standard
 70
0
 40
0.0
 41
1.0
 50
0.0
 71
0
 42
2.5
  3
txt
  4

  0
ENDTAB
  0
TABLE
  2
VIEW
  5
7
330
0
100
AcDbSymbolTable
 70
0
  0
ENDTAB
  0
TABLE
  2
UCS
  5
6
330
0
100
AcDbSymbolTable
 70
0
  0
ENDTAB
  0
TABLE
  2
APPID
  5
3
330
0
100
AcDbSymbolTable
 70
3
  0
APPID
  5
2A
330
3
100
AcDbSymbolTableRecord
100
AcDbRegAppTableRecord
  2
ACAD
 70
0
  0
APPID
  5
3B3
330
3
100
AcDbSymbolTableRecord
100
AcDbRegAppTableRecord
  2
HATCHBACKGROUNDCOLOR
 70
0
  0
APPID
  5
3B4
330
3
100
AcDbSymbolTableRecord
100
AcDbRegAppTableRecord
  2
EZDXF
 70
0
  0
ENDTAB
  0
TABLE
  2
DIMSTYLE
  5
4
330
0
100
AcDbSymbolTable
 70
1
100
AcDbDimStyleTable
  0
DIMSTYLE
105
2B
330
4
100
AcDbSymbolTableRecord
100
AcDbDimStyleTableRecord
  2
Standard
 70
0
 40
1.0
 41
2.5
 42
0.625
 43
3.75
 44
1.25
 45
0.0
 46
0.0
 47
0.0
 48
0.0
 49
2.5
140
2.5
141
2.5
142
0.0
143
0.03937007874
144
1.0
145
0.0
146
1.0
147
0.625
148
0.0
 69
0
 70
0
 71
0
 72
0
 73
0
 74
0
 75
0
 76
0
 77
1
 78
8
 79
3
170
0
171
3
172
1
173
0
174
0
175
0
176
0
177
0
178
0
179
2
271
2
272
2
273
2
274
3
275
0
276
0
277
2
278
44
279
0
280
0
281
0
282
0
283
0
284
8
285
0
286
0
288
0
289
3
290
0
371
-2
372
-2
  0
ENDTAB
  0
TABLE
  2
BLOCK_RECORD
  5
9
330
0
100
AcDbSymbolTable
 70
2
  0
BLOCK_RECORD
  5
17
330
9
100
AcDbSymbolTableRecord
100
AcDbBlockTableRecord
  2
*Model_Space
340
1A
 70
0
280
1
281
0
  0
BLOCK_RECORD
  5
1B
330
9
100
AcDbSymbolTableRecord
100
AcDbBlockTableRecord
  2
*Paper_Space
340
1E
 70
0
280
1
281
0
  0
ENDTAB
  0
ENDSEC
  0
SECTION
  2
BLOCKS
  0
BLOCK
  5
18
330
17
100
AcDbEntity
  8
0
100
AcDbBlockBegin
  2
*Model_Space
 70
0
 10
0.0
 20
0.0
 30
0.0
  3
*Model_Space
  1

  0
ENDBLK
  5
19
330
17
100
AcDbEntity
  8
0
100
AcDbBlockEnd
  0
BLOCK
  5
1C
330
1B
100
AcDbEntity
  8
0
100
AcDbBlockBegin
  2
*Paper_Space
 70
0
 10
0.0
 20
0.0
 30
0.0
  3
*Paper_Space
  1

  0
ENDBLK
  5
1D
330
1B
100
AcDbEntity
  8
0
100
AcDbBlockEnd
  0
ENDSEC
  0
SECTION
  2
ENTITIES
  0
SOLID
  5
2F
330
17
100
AcDbEntity
  8
0
100
AcDbTrace
 10
1.976
 20
1.976
 30
0.0
 11
1.976
 21
8.024000000000001
 31
0.0
 12
8.024000000000001
 22
1.976
 32
0.0
 13
8.024000000000001
 23
8.024000000000001
 33
0.0
  0
SOLID
  5
30
330
17
100
AcDbEntity
  8
0
100
AcDbTrace
 10
1.722
 20
11.722
 30
0.0
 11
1.722
 21
18.278
 31
0.0
 12
8.278
 22
11.722
 32
0.0
 13
8.278
 23
18.278
 33
0.0
  0
SOLID
  5
31
330
17
100
AcDbEntity
  8
0
100
AcDbTrace
 10
1.5950000000000002
 20
21.595
 30
0.0
 11
1.5950000000000002
 21
28.405
 31
0.0
 12
8.405
 22
21.595
 32
0.0
 13
8.405
 23
28.405
 33
0.0
  0
SOLID
  5
32
330
17
100
AcDbEntity
  8
0
100
AcDbTrace
 10
1.3410000000000002
 20
31.341
 30
0.0
 11
1.3410000000000002
 21
38.659
 31
0.0
 12
8.658999999999999
 22
31.341
 32
0.0
 13
8.658999999999999
 23
38.659
 33
0.0
  0
SOLID
  5
33
330
17
100
AcDbEntity
  8
0
100
AcDbTrace
 10
0.1980000000000004
 20
40.198
 30
0.0
 11
0.1980000000000004
 21
49.802
 31
0.0
 12
9.802
 22
40.198
 32
0.0
 13
9.802
 23
49.802
 33
0.0
  0
SOLID
  5
34
330
17
100
AcDbEntity
  8
0
100
AcDbTrace
 10
3.5
 20
53.5
 30
0.0
 11
3.5
 21
56.5
 31
0.0
 12
6.5
 22
53.5
 32
0.0
 13
6.5
 23
56.5
 33
0.0
  0
SOLID
  5
35
330
17
100
AcDbEntity
  8
0
100
AcDbTrace
 10
2.357
 20
62.357
 30
0.0
 11
2.357
 21
67.643
 31
0.0
 12
7.643
 22
62.357
 32
0.0
 13
7.643
 23
67.643
 33
0.0
  0
SOLID
  5
36
330
17
100
AcDbEntity
  8
0
100
AcDbTrace
 10
2.103
 20
72.103
 30
0.0
 11
2.103
 21
77.897
 31
0.0
 12
7.897
 22
72.103
 32
0.0
 13
7.897
 23
77.897
 33
0.0
  0
SOLID
  5
37
330
17
100
AcDbEntity
  8
0
100
AcDbTrace
 10
1.976
 20
81.976
 30
0.0
 11
1.976
 21
88.024
 31
0.0
 12
8.024000000000001
 22
81.976
 32
0.0
 13
8.024000000000001
 23
88.024
 33
0.0
  0
SOLID
  5
38
330
17
100
AcDbEntity
  8
0
100
AcDbTrace
 10
1.722
 20
91.722
 30
0.0
 11
1.722
 21
98.278
 31
0.0
 12
8.278
 22
91.722
 32
0.0
 13
8.278
 23
98.278
 33
0.0
  0
SOLID
  5
39
330
17
100
AcDbEntity
  8
0
100
AcDbTrace
 10
1.722
 20
101.722
 30
0.0
 11
1.722
 21
108.278
 31
0.0
 12
8.278
 22
101.722
 32
0.0
 13
8.278
 23
108.278
 33
0.0
  0
SOLID
  5
3A
330
17
100
AcDbEntity
  8
0
100
AcDbTrace
 10
1.722
 20
111.722
 30
0.0
 11
1.722
 21
118.278
 31
0.0
 12
8.278
 22
111.722
 32
0.0
 13
8.278
 23
118.278
 33
0.0
  0
SOLID
  5
3B
330
17
100
AcDbEntity
  8
0
100
AcDbTrace
 10
1.5950000000000002
 20
121.595
 30
0.0
 11
1.5950000000000002
 21
128.405
 31
0.0
 12
8.405
 22
121.595
 32
0.0
 13
8.405
 23
128.405
 33
0.0
  0
SOLID
  5
3C
330
17
100
AcDbEntity
  8
0
100
AcDbTrace
 10
1.5950000000000002
 20
131.595
 30
0.0
 11
1.5950000000000002
 21
138.405
 31
0.0
 12
8.405
 22
131.595
 32
0.0
 13
8.405
 23
138.405
 33
0.0
  0
SOLID
  5
3D
330
17
100
AcDbEntity
  8
0
100
AcDbTrace
 10
1.5950000000000002
 20
141.595
 30
0.0
 11
1.5950000000000002
 21
148.405
 31
0.0
 12
8.405
 22
141.595
 32
0.0
 13
8.405
 23
148.405
 33
0.0
  0
SOLID
  5
3E
330
17
100
AcDbEntity
  8
0
100
AcDbTrace
 10
1.5950000000000002
 20
151.595
 30
0.0
 11
1.5950000000000002
 21
158.405
 31
0.0
 12
8.405
 22
151.595
 32
0.0
 13
8.405
 23
158.405
 33
0.0
  0
SOLID
  5
3F
330
17
100
AcDbEntity
  8
0
100
AcDbTrace
 10
1.5950000000000002
 20
161.595
 30
0.0
 11
1.5950000000000002
 21
168.405
 31
0.0
 12
8.405
 22
161.595
 32
0.0
 13
8.405
 23
168.405
 33
0.0
  0
SOLID
  5
40
330
17
100
AcDbEntity
  8
0
100
AcDbTrace
 10
1.5950000000000002
 20
171.595
 30
0.0
 11
1.5950000000000002
 21
178.405
 31
0.0
 12
8.405
 22
171.595
 32
0.0
 13
8.405
 23
178.405
 33
0.0
  0
SOLID
  5
41
330
17
100
AcDbEntity
  8
0
100
AcDbTrace
 10
1.722
 20
181.722
 30
0.0
 11
1.722
 21
188.278
 31
0.0
 12
8.278
 22
181.722
 32
0.0
 13
8.278
 23
188.278
 33
0.0
  0
SOLID
  5
42
330
17
100
AcDbEntity
  8
0
100
AcDbTrace
 10
1.722
 20
191.722
 30
0.0
 11
1.722
 21
198.278
 31
0.0
 12
8.278
 22
191.722
 32
0.0
 13
8.278
 23
198.278
 33
0.0
  0
SOLID
  5
43
330
17
100
AcDbEntity
  8
0
100
AcDbTrace
 10
1.722
 20
201.722
 30
0.0
 11
1.722
 21
208.278
 31
0.0
 12
8.278
 22
201.722
 32
0.0
 13
8.278
 23
208.278
 33
0.0
  0
SOLID
  5
44
330
17
100
AcDbEntity
  8
0
100
AcDbTrace
 10
1.976
 20
211.976
 30
0.0
 11
1.976
 21
218.024
 31
0.0
 12
8.024000000000001
 22
211.976
 32
0.0
 13
8.024000000000001
 23
218.024
 33
0.0
  0
SOLID
  5
45
330
17
100
AcDbEntity
  8
0
100
AcDbTrace
 10
2.103
 20
222.103
 30
0.0
 11
2.103
 21
227.897
 31
0.0
 12
7.897
 22
222.103
 32
0.0
 13
7.897
 23
227.897
 33
0.0
  0
SOLID
  5
46
330
17
100
AcDbEntity
  8
0
100
AcDbTrace
 10
2.357
 20
232.357
 30
0.0
 11
2.357
 21
237.643
 31
0.0
 12
7.643
 22
232.357
 32
0.0
 13
7.643
 23
237.643
 33
0.0
  0
SOLID
  5
47
330
17
100
AcDbEntity
  8
0
100
AcDbTrace
 10
3.5
 20
243.5
 30
0.0
 11
3.5
 21
246.5
 31
0.0
 12
6.5
 22
243.5
 32
0.0
 13
6.5
 23
246.5
 33
0.0
  0
SOLID
  5
48
330
17
100
AcDbEntity
  8
0
100
AcDbTrace
 10
0.1980000000000004
 20
250.198
 30
0.0
 11
0.1980000000000004
 21
259.802
 31
0.0
 12
9.802
 22
250.198
 32
0.0
 13
9.802
 23
259.802
 33
0.0
  0
SOLID
  5
49
330
17
100
AcDbEntity
  8
0
100
AcDbTrace
 10
1.3410000000000002
 20
261.341
 30
0.0
 11
1.3410000000000002
 21
268.659
 31
0.0
 12
8.658999999999999
 22
261.341
 32
0.0
 13
8.658999999999999
 23
268.659
 33
0.0
  0
SOLID
  5
4A
330
17
100
AcDbEntity
  8
0
100
AcDbTrace
 10
1.5950000000000002
 20
271.595
 30
0.0
 11
1.5950000000000002
 21
278.405
 31
0.0
 12
8.405
 22
271.595
 32
0.0
 13
8.405
 23
278.405
 33
0.0
  0
SOLID
  5
4B
330
17
100
AcDbEntity
  8
0
100
AcDbTrace
 10
1.722
 20
281.722
 30
0.0
 11
1.722
 21
288.278
 31
0.0
 12
8.278
 22
281.722
 32
0.0
 13
8.278
 23
288.278
 33
0.0
  0
SOLID
  5
4C
330
17
100
AcDbEntity
  8
0
100
AcDbTrace
 10
1.976
 20
291.976
 30
0.0
 11
1.976
 21
298.024
 31
0.0
 12
8.024000000000001
 22
291.976
 32
0.0
 13
8.024000000000001
 23
298.024
 33
0.0
  0
SOLID
  5
4D
330
17
100
AcDbEntity
  8
0
100
AcDbTrace
 10
11.722
 20
1.722
 30
0.0
 11
11.722
 21
8.278
 31
0.0
 12
18.278
 22
1.722
 32
0.0
 13
18.278
 23
8.278
 33
0.0
  0
SOLID
  5
4E
330
17
100
AcDbEntity
  8
0
100
AcDbTrace
 10
11.595
 20
11.595
 30
0.0
 11
11.595
 21
18.405
 31
0.0
 12
18.405
 22
11.595
 32
0.0
 13
18.405
 23
18.405
 33
0.0
  0
SOLID
  5
4F
330
17
100
AcDbEntity
  8
0
100
AcDbTrace
 10
11.214
 20
21.214
 30
0.0
 11
11.214
 21
28.786
 31
0.0
 12
18.786
 22
21.214
 32
0.0
 13
18.786
 23
28.786
 33
0.0
  0
SOLID
  5
50
330
17
100
AcDbEntity
  8
0
100
AcDbTrace
 10
10.126999999999999
 20
30.127
 30
0.0
 11
10.126999999999999
 21
39.873
 31
0.0
 12
19.873
 22
30.127
 32
0.0
 13
19.873
 23
39.873
 33
0.0
  0
SOLID
  5
51
330
17
100
AcDbEntity
  8
0
100
AcDbTrace
 10
13.246
 20
43.246
 30
0.0
 11
13.246
 21
46.754
 31
0.0
 12
16.754
 22
43.246
 32
0.0
 13
16.754
 23
46.754
 33
0.0
  0
SOLID
  5
52
330
17
100
AcDbEntity
  8
0
100
AcDbTrace
 10
12.23
 20
52.23
 30
0.0
 11
12.23
 21
57.77
 31
0.0
 12
17.77
 22
52.23
 32
0.0
 13
17.77
 23
57.77
 33
0.0
  0
SOLID
  5
53
330
17
100
AcDbEntity
  8
0
100
AcDbTrace
 10
11.975999999999999
 20
61.976
 30
0.0
 11
11.975999999999999
 21
68.024
 31
0.0
 12
18.024
 22
61.976
 32
0.0
 13
18.024
 23
68.024
 33
0.0
  0
SOLID
  5
54
330
17
100
AcDbEntity
  8
0
100
AcDbTrace
 10
11.722
 20
71.722
 30
0.0
 11
11.722
 21
78.278
 31
0.0
 12
18.278
 22
71.722
 32
0.0
 13
18.278
 23
78.278
 33
0.0
  0
SOLID
  5
55
330
17
100
AcDbEntity
  8
0
100
AcDbTrace
 10
11.722
 20
81.722
 30
0.0
 11
11.722
 21
88.278
 31
0.0
 12
18.278
 22
81.722
 32
0.0
 13
18.278
 23
88.278
 33
0.0
  0
SOLID
  5
56
330
17
100
AcDbEntity
  8
0
100
AcDbTrace
 10
11.595
 20
91.595
 30
0.0
 11
11.595
 21
98.405
 31
0.0
 12
18.405
 22
91.595
 32
0.0
 13
18.405
 23
98.405
 33
0.0
  0
SOLID
  5
57
330
17
100
AcDbEntity
  8
0
100
AcDbTrace
 10
11.595
 20
101.595
 30
0.0
 11
11.595
 21
108.405
 31
0.0
 12
18.405
 22
101.595
 32
0.0
 13
18.405
 23
108.405
 33
0.0
  0
SOLID
  5
58
330
17
100
AcDbEntity
  8
0
100
AcDbTrace
 10
11.468
 20
111.468
 30
0.0
 11
11.468
 21
118.532
 31
0.0
 12
18.532
 22
111.468
 32
0.0
 13
18.532
 23
118.532
 33
0.0
  0
SOLID
  5
59
330
17
100
AcDbEntity
  8
0
100
AcDbTrace
 10
11.468
 20
121.468
 30
0.0
 11
11.468
 21
128.532
 31
0.0
 12
18.532
 22
121.468
 32
0.0
 13
18.532
 23
128.532
 33
0.0
  0
SOLID
  5
5A
330
17
100
AcDbEntity
  8
0
100
AcDbTrace
 10
11.341000000000001
 20
131.341
 30
0.0
 11
11.341000000000001
 21
138.659
 31
0.0
 12
18.659
 22
131.341
 32
0.0
 13
18.659
 23
138.659
 33
0.0
  0
SOLID
  5
5B
330
17
100
AcDbEntity
  8
0
100
AcDbTrace
 10
11.341000000000001
 20
141.341
 30
0.0
 11
11.341000000000001
 21
148.659
 31
0.0
 12
18.659
 22
141.341
 32
0.0
 13
18.659
 23
148.659
 33
0.0
  0
SOLID
  5
5C
330
17
100
AcDbEntity
  8
0
100
AcDbTrace
 10
11.341000000000001
 20
151.341
 30
0.0
 11
11.341000000000001
 21
158.659
 31
0.0
 12
18.659
 22
151.341
 32
0.0
 13
18.659
 23
158.659
 33
0.0
  0
SOLID
  5
5D
330
17
100
AcDbEntity
  8
0
100
AcDbTrace
 10
11.341000000000001
 20
161.341
 30
0.0
 11
11.341000000000001
 21
168.659
 31
0.0
 12
18.659
 22
161.341
 32
0.0
 13
18.659
 23
168.659
 33
0.0
  0
SOLID
  5
5E
330
17
100
AcDbEntity
  8
0
100
AcDbTrace
 10
11.468
 20
171.468
 30
0.0
 11
11.468
 21
178.532
 31
0.0
 12
18.532
 22
171.468
 32
0.0
 13
18.532
 23
178.532
 33
0.0
  0
SOLID
  5
5F
330
17
100
AcDbEntity
  8
0
100
AcDbTrace
 10
11.468
 20
181.468
 30
0.0
 11
11.468
 21
188.532
 31
0.0
 12
18.532
 22
181.468
 32
0.0
 13
18.532
 23
188.532
 33
0.0
  0
SOLID
  5
60
330
17
100
AcDbEntity
  8
0
100
AcDbTrace
 10
11.595
 20
191.595
 30
0.0
 11
11.595
 21
198.405
 31
0.0
 12
18.405
 22
191.595
 32
0.0
 13
18.405
 23
198.405
 33
0.0
  0
SOLID
  5
61
330
17
100
AcDbEntity
  8
0
100
AcDbTrace
 10
11.595
 20
201.595
 30
0.0
 11
11.595
 21
208.405
 31
0.0
 12
18.405
 22
201.595
 32
0.0
 13
18.405
 23
208.405
 33
0.0
  0
SOLID
  5
62
330
17
100
AcDbEntity
  8
0
100
AcDbTrace
 10
11.722
 20
211.722
 30
0.0
 11
11.722
 21
218.278
 31
0.0
 12
18.278
 22
211.722
 32
0.0
 13
18.278
 23
218.278
 33
0.0
  0
SOLID
  5
63
330
17
100
AcDbEntity
  8
0
100
AcDbTrace
 10
11.722
 20
221.722
 30
0.0
 11
11.722
 21
228.278
 31
0.0
 12
18.278
 22
221.722
 32
0.0
 13
18.278
 23
228.278
 33
0.0
  0
SOLID
  5
64
330
17
100
AcDbEntity
  8
0
100
AcDbTrace
 10
11.975999999999999
 20
231.976
 30
0.0
 11
11.975999999999999
 21
238.024
 31
0.0
 12
18.024
 22
231.976
 32
0.0
 13
18.024
 23
238.024
 33
0.0
  0
SOLID
  5
65
330
17
100
AcDbEntity
  8
0
100
AcDbTrace
 10
12.23
 20
242.23
 30
0.0
 11
12.23
 21
247.77
 31
0.0
 12
17.77
 22
242.23
 32
0.0
 13
17.77
 23
247.77
 33
0.0
  0
SOLID
  5
66
330
17
100
AcDbEntity
  8
0
100
AcDbTrace
 10
13.246
 20
253.246
 30
0.0
 11
13.246
 21
256.754
 31
0.0
 12
16.754
 22
253.246
 32
0.0
 13
16.754
 23
256.754
 33
0.0
  0
SOLID
  5
67
330
17
100
AcDbEntity
  8
0
100
AcDbTrace
 10
10.126999999999999
 20
260.127
 30
0.0
 11
10.126999999999999
 21
269.873
 31
0.0
 12
19.873
 22
260.127
 32
0.0
 13
19.873
 23
269.873
 33
0.0
  0
SOLID
  5
68
330
17
100
AcDbEntity
  8
0
100
AcDbTrace
 10
11.214
 20
271.214
 30
0.0
 11
11.214
 21
278.786
 31
0.0
 12
18.786
 22
271.214
 32
0.0
 13
18.786
 23
278.786
 33
0.0
  0
SOLID
  5
69
330
17
100
AcDbEntity
  8
0
100
AcDbTrace
 10
11.595
 20
281.595
 30
0.0
 11
11.595
 21
288.405
 31
0.0
 12
18.405
 22
281.595
 32
0.0
 13
18.405
 23
288.405
 33
0.0
  0
SOLID
  5
6A
330
17
100
AcDbEntity
  8
0
100
AcDbTrace
 10
11.722
 20
291.722
 30
0.0
 11
11.722
 21
298.278
 31
0.0
 12
18.278
 22
291.722
 32
0.0
 13
18.278
 23
298.278
 33
0.0
  0
SOLID
  5
6B
330
17
100
AcDbEntity
  8
0
100
AcDbTrace
 10
21.595
 20
1.5950000000000002
 30
0.0
 11
21.595
 21
8.405
 31
0.0
 12
28.405
 22
1.5950000000000002
 32
0.0
 13
28.405
 23
8.405
 33
0.0
  0
SOLID
  5
6C
330
17
100
AcDbEntity
  8
0
100
AcDbTrace
 10
21.214
 20
11.214
 30
0.0
 11
21.214
 21
18.786
 31
0.0
 12
28.786
 22
11.214
 32
0.0
 13
28.786
 23
18.786
 33
0.0
  0
SOLID
  5
6D
330
17
100
AcDbEntity
  8
0
100
AcDbTrace
 10
20.127
 20
20.127
 30
0.0
 11
20.127
 21
29.873
 31
0.0
 12
29.873
 22
20.127
 32
0.0
 13
29.873
 23
29.873
 33
0.0
  0
SOLID
  5
6E
330
17
100
AcDbEntity
  8
0
100
AcDbTrace
 10
22.992
 20
32.992
 30
0.0
 11
22.992
 21
37.008
 31
0.0
 12
27.008
 22
32.992
 32
0.0
 13
27.008
 23
37.008
 33
0.0
  0
SOLID
  5
6F
330
17
100
AcDbEntity
  8
0
100
AcDbTrace
 10
22.103
 20
42.103
 30
0.0
 11
22.103
 21
47.897
 31
0.0
 12
27.897
 22
42.103
 32
0.0
 13
27.897
 23
47.897
 33
0.0
  0
SOLID
  5
70
330
17
100
AcDbEntity
  8
0
100
AcDbTrace
 10
21.976
 20
51.976
 30
0.0
 11
21.976
 21
58.024
 31
0.0
 12
28.024
 22
51.976
 32
0.0
 13
28.024
 23
58.024
 33
0.0
  0
SOLID
  5
71
330
17
100
AcDbEntity
  8
0
100
AcDbTrace
 10
21.722
 20
61.722
 30
0.0
 11
21.722
 21
68.278
 31
0.0
 12
28.278
 22
61.722
 32
0.0
 13
28.278
 23
68.278
 33
0.0
  0
SOLID
  5
72
330
17
100
AcDbEntity
  8
0
100
AcDbTrace
 10
21.722
 20
71.722
 30
0.0
 11
21.722
 21
78.278
 31
0.0
 12
28.278
 22
71.722
 32
0.0
 13
28.278
 23
78.278
 33
0.0
  0
SOLID
  5
73
330
17
100
AcDbEntity
  8
0
100
AcDbTrace
 10
21.595
 20
81.595
 30
0.0
 11
21.595
 21
88.405
 31
0.0
 12
28.405
 22
81.595
 32
0.0
 13
28.405
 23
88.405
 33
0.0
  0
SOLID
  5
74
330
17
100
AcDbEntity
  8
0
100
AcDbTrace
 10
21.468
 20
91.468
 30
0.0
 11
21.468
 21
98.532
 31
0.0
 12
28.532
 22
91.468
 32
0.0
 13
28.532
 23
98.532
 33
0.0
  0
SOLID
  5
75
330
17
100
AcDbEntity
  8
0
100
AcDbTrace
 10
21.214
 20
101.214
 30
0.0
 11
21.214
 21
108.786
 31
0.0
 12
28.786
 22
101.214
 32
0.0
 13
28.786
 23
108.786
 33
0.0
  0
SOLID
  5
76
330
17
100
AcDbEntity
  8
0
100
AcDbTrace
 10
21.087
 20
111.087
 30
0.0
 11
21.087
 21
118.913
 31
0.0
 12
28.913
 22
111.087
 32
0.0
 13
28.913
 23
118.913
 33
0.0
  0
SOLID
  5
77
330
17
100
AcDbEntity
  8
0
100
AcDbTrace
 10
20.706
 20
120.706
 30
0.0
 11
20.706
 21
129.294
 31
0.0
 12
29.294
 22
120.706
 32
0.0
 13
29.294
 23
129.294
 33
0.0
  0
SOLID
  5
78
330
17
100
AcDbEntity
  8
0
100
AcDbTrace
 10
20.325
 20
130.325
 30
0.0
 11
20.325
 21
139.675
 31
0.0
 12
29.675
 22
130.325
 32
0.0
 13
29.675
 23
139.675
 33
0.0
  0
SOLID
  5
79
330
17
100
AcDbEntity
  8
0
100
AcDbTrace
 10
20.127
 20
140.127
 30
0.0
 11
20.127
 21
149.873
 31
0.0
 12
29.873
 22
140.127
 32
0.0
 13
29.873
 23
149.873
 33
0.0
  0
SOLID
  5
7A
330
17
100
AcDbEntity
  8
0
100
AcDbTrace
 10
20.127
 20
150.127
 30
0.0
 11
20.127
 21
159.873
 31
0.0
 12
29.873
 22
150.127
 32
0.0
 13
29.873
 23
159.873
 33
0.0
  0
SOLID
  5
7B
330
17
100
AcDbEntity
  8
0
100
AcDbTrace
 10
20.325
 20
160.325
 30
0.0
 11
20.325
 21
169.675
 31
0.0
 12
29.675
 22
160.325
 32
0.0
 13
29.675
 23
169.675
 33
0.0
  0
SOLID
  5
7C
330
17
100
AcDbEntity
  8
0
100
AcDbTrace
 10
20.706
 20
170.706
 30
0.0
 11
20.706
 21
179.294
 31
0.0
 12
29.294
 22
170.706
 32
0.0
 13
29.294
 23
179.294
 33
0.0
  0
SOLID
  5
7D
330
17
100
AcDbEntity
  8
0
100
AcDbTrace
 10
21.087
 20
181.087
 30
0.0
 11
21.087
 21
188.913
 31
0.0
 12
28.913
 22
181.087
 32
0.0
 13
28.913
 23
188.913
 33
0.0
  0
SOLID
  5
7E
330
17
100
AcDbEntity
  8
0
100
AcDbTrace
 10
21.214
 20
191.214
 30
0.0
 11
21.214
 21
198.786
 31
0.0
 12
28.786
 22
191.214
 32
0.0
 13
28.786
 23
198.786
 33
0.0
  0
SOLID
  5
7F
330
17
100
AcDbEntity
  8
0
100
AcDbTrace
 10
21.468
 20
201.468
 30
0.0
 11
21.468
 21
208.532
 31
0.0
 12
28.532
 22
201.468
 32
0.0
 13
28.532
 23
208.532
 33
0.0
  0
SOLID
  5
80
330
17
100
AcDbEntity
  8
0
100
AcDbTrace
 10
21.595
 20
211.595
 30
0.0
 11
21.595
 21
218.405
 31
0.0
 12
28.405
 22
211.595
 32
0.0
 13
28.405
 23
218.405
 33
0.0
  0
SOLID
  5
81
330
17
100
AcDbEntity
  8
0
100
AcDbTrace
 10
21.722
 20
221.722
 30
0.0
 11
21.722
 21
228.278
 31
0.0
 12
28.278
 22
221.722
 32
0.0
 13
28.278
 23
228.278
 33
0.0
  0
SOLID
  5
82
330
17
100
AcDbEntity
  8
0
100
AcDbTrace
 10
21.722
 20
231.722
 30
0.0
 11
21.722
 21
238.278
 31
0.0
 12
28.278
 22
231.722
 32
0.0
 13
28.278
 23
238.278
 33
0.0
  0
SOLID
  5
83
330
17
100
AcDbEntity
  8
0
100
AcDbTrace
 10
21.976
 20
241.976
 30
0.0
 11
21.976
 21
248.024
 31
0.0
 12
28.024
 22
241.976
 32
0.0
 13
28.024
 23
248.024
 33
0.0
  0
SOLID
  5
84
330
17
100
AcDbEntity
  8
0
100
AcDbTrace
 10
22.103
 20
252.103
 30
0.0
 11
22.103
 21
257.897
 31
0.0
 12
27.897
 22
252.103
 32
0.0
 13
27.897
 23
257.897
 33
0.0
  0
SOLID
  5
85
330
17
100
AcDbEntity
  8
0
100
AcDbTrace
 10
22.992
 20
262.992
 30
0.0
 11
22.992
 21
267.008
 31
0.0
 12
27.008
 22
262.992
 32
0.0
 13
27.008
 23
267.008
 33
0.0
  0
SOLID
  5
86
330
17
100
AcDbEntity
  8
0
100
AcDbTrace
 10
20.127
 20
270.127
 30
0.0
 11
20.127
 21
279.873
 31
0.0
 12
29.873
 22
270.127
 32
0.0
 13
29.873
 23
279.873
 33
0.0
  0
SOLID
  5
87
330
17
100
AcDbEntity
  8
0
100
AcDbTrace
 10
21.214
 20
281.214
 30
0.0
 11
21.214
 21
288.786
 31
0.0
 12
28.786
 22
281.214
 32
0.0
 13
28.786
 23
288.786
 33
0.0
  0
SOLID
  5
88
330
17
100
AcDbEntity
  8
0
100
AcDbTrace
 10
21.595
 20
291.595
 30
0.0
 11
21.595
 21
298.405
 31
0.0
 12
28.405
 22
291.595
 32
0.0
 13
28.405
 23
298.405
 33
0.0
  0
SOLID
  5
89
330
17
100
AcDbEntity
  8
0
100
AcDbTrace
 10
31.341
 20
1.3410000000000002
 30
0.0
 11
31.341
 21
8.658999999999999
 31
0.0
 12
38.659
 22
1.3410000000000002
 32
0.0
 13
38.659
 23
8.658999999999999
 33
0.0
  0
SOLID
  5
8A
330
17
100
AcDbEntity
  8
0
100
AcDbTrace
 10
30.127
 20
10.126999999999999
 30
0.0
 11
30.127
 21
19.873
 31
0.0
 12
39.873
 22
10.126999999999999
 32
0.0
 13
39.873
 23
19.873
 33
0.0
  0
SOLID
  5
8B
330
17
100
AcDbEntity
  8
0
100
AcDbTrace
 10
33.119
 20
23.119
 30
0.0
 11
33.119
 21
26.881
 31
0.0
 12
36.881
 22
23.119
 32
0.0
 13
36.881
 23
26.881
 33
0.0
  0
SOLID
  5
8C
330
17
100
AcDbEntity
  8
0
100
AcDbTrace
 10
32.103
 20
32.103
 30
0.0
 11
32.103
 21
37.897
 31
0.0
 12
37.897
 22
32.103
 32
0.0
 13
37.897
 23
37.897
 33
0.0
  0
SOLID
  5
8D
330
17
100
AcDbEntity
  8
0
100
AcDbTrace
 10
31.976
 20
41.976
 30
0.0
 11
31.976
 21
48.024
 31
0.0
 12
38.024
 22
41.976
 32
0.0
 13
38.024
 23
48.024
 33
0.0
  0
SOLID
  5
8E
330
17
100
AcDbEntity
  8
0
100
AcDbTrace
 10
31.722
 20
51.722
 30
0.0
 11
31.722
 21
58.278
 31
0.0
 12
38.278
 22
51.722
 32
0.0
 13
38.278
 23
58.278
 33
0.0
  0
SOLID
  5
8F
330
17
100
AcDbEntity
  8
0
100
AcDbTrace
 10
31.595
 20
61.595
 30
0.0
 11
31.595
 21
68.405
 31
0.0
 12
38.405
 22
61.595
 32
0.0
 13
38.405
 23
68.405
 33
0.0
  0
SOLID
  5
90
330
17
100
AcDbEntity
  8
0
100
AcDbTrace
 10
31.468
 20
71.468
 30
0.0
 11
31.468
 21
78.532
 31
0.0
 12
38.532
 22
71.468
 32
0.0
 13
38.532
 23
78.532
 33
0.0
  0
SOLID
  5
91
330
17
100
AcDbEntity
  8
0
100
AcDbTrace
 10
31.341
 20
81.341
 30
0.0
 11
31.341
 21
88.659
 31
0.0
 12
38.659
 22
81.341
 32
0.0
 13
38.659
 23
88.659
 33
0.0
  0
SOLID
  5
92
330
17
100
AcDbEntity
  8
0
100
AcDbTrace
 10
30.96
 20
90.96
 30
0.0
 11
30.96
 21
99.04
 31
0.0
 12
39.04
 22
90.96
 32
0.0
 13
39.04
 23
99.04
 33
0.0
  0
SOLID
  5
93
330
17
100
AcDbEntity
  8
0
100
AcDbTrace
 10
30.127
 20
100.127
 30
0.0
 11
30.127
 21
109.873
 31
0.0
 12
39.873
 22
100.127
 32
0.0
 13
39.873
 23
109.873
 33
0.0
  0
SOLID
  5
94
330
17
100
AcDbEntity
  8
0
100
AcDbTrace
 10
33.5
 20
113.5
 30
0.0
 11
33.5
 21
116.5
 31
0.0
 12
36.5
 22
113.5
 32
0.0
 13
36.5
 23
116.5
 33
0.0
  0
SOLID
  5
95
330
17
100
AcDbEntity
  8
0
100
AcDbTrace
 10
33.5
 20
123.5
 30
0.0
 11
33.5
 21
126.5
 31
0.0
 12
36.5
 22
123.5
 32
0.0
 13
36.5
 23
126.5
 33
0.0
  0
SOLID
  5
96
330
17
100
AcDbEntity
  8
0
100
AcDbTrace
 10
33.5
 20
133.5
 30
0.0
 11
33.5
 21
136.5
 31
0.0
 12
36.5
 22
133.5
 32
0.0
 13
36.5
 23
136.5
 33
0.0
  0
SOLID
  5
97
330
17
100
AcDbEntity
  8
0
100
AcDbTrace
 10
33.5
 20
143.5
 30
0.0
 11
33.5
 21
146.5
 31
0.0
 12
36.5
 22
143.5
 32
0.0
 13
36.5
 23
146.5
 33
0.0
  0
SOLID
  5
98
330
17
100
AcDbEntity
  8
0
100
AcDbTrace
 10
33.5
 20
153.5
 30
0.0
 11
33.5
 21
156.5
 31
0.0
 12
36.5
 22
153.5
 32
0.0
 13
36.5
 23
156.5
 33
0.0
  0
SOLID
  5
99
330
17
100
AcDbEntity
  8
0
100
AcDbTrace
 10
33.5
 20
163.5
 30
0.0
 11
33.5
 21
166.5
 31
0.0
 12
36.5
 22
163.5
 32
0.0
 13
36.5
 23
166.5
 33
0.0
  0
SOLID
  5
9A
330
17
100
AcDbEntity
  8
0
100
AcDbTrace
 10
33.5
 20
173.5
 30
0.0
 11
33.5
 21
176.5
 31
0.0
 12
36.5
 22
173.5
 32
0.0
 13
36.5
 23
176.5
 33
0.0
  0
SOLID
  5
9B
330
17
100
AcDbEntity
  8
0
100
AcDbTrace
 10
33.5
 20
183.5
 30
0.0
 11
33.5
 21
186.5
 31
0.0
 12
36.5
 22
183.5
 32
0.0
 13
36.5
 23
186.5
 33
0.0
  0
SOLID
  5
9C
330
17
100
AcDbEntity
  8
0
100
AcDbTrace
 10
30.127
 20
190.127
 30
0.0
 11
30.127
 21
199.873
 31
0.0
 12
39.873
 22
190.127
 32
0.0
 13
39.873
 23
199.873
 33
0.0
  0
SOLID
  5
9D
330
17
100
AcDbEntity
  8
0
100
AcDbTrace
 10
30.96
 20
200.96
 30
0.0
 11
30.96
 21
209.04
 31
0.0
 12
39.04
 22
200.96
 32
0.0
 13
39.04
 23
209.04
 33
0.0
  0
SOLID
  5
9E
330
17
100
AcDbEntity
  8
0
100
AcDbTrace
 10
31.341
 20
211.341
 30
0.0
 11
31.341
 21
218.659
 31
0.0
 12
38.659
 22
211.341
 32
0.0
 13
38.659
 23
218.659
 33
0.0
  0
SOLID
  5
9F
330
17
100
AcDbEntity
  8
0
100
AcDbTrace
 10
31.468
 20
221.468
 30
0.0
 11
31.468
 21
228.532
 31
0.0
 12
38.532
 22
221.468
 32
0.0
 13
38.532
 23
228.532
 33
0.0
  0
SOLID
  5
A0
330
17
100
AcDbEntity
  8
0
100
AcDbTrace
 10
31.595
 20
231.595
 30
0.0
 11
31.595
 21
238.405
 31
0.0
 12
38.405
 22
231.595
 32
0.0
 13
38.405
 23
238.405
 33
0.0
  0
SOLID
  5
A1
330
17
100
AcDbEntity
  8
0
100
AcDbTrace
 10
31.722
 20
241.722
 30
0.0
 11
31.722
 21
248.278
 31
0.0
 12
38.278
 22
241.722
 32
0.0
 13
38.278
 23
248.278
 33
0.0
  0
SOLID
  5
A2
330
17
100
AcDbEntity
  8
0
100
AcDbTrace
 10
31.976
 20
251.976
 30
0.0
 11
31.976
 21
258.024
 31
0.0
 12
38.024
 22
251.976
 32
0.0
 13
38.024
 23
258.024
 33
0.0
  0
SOLID
  5
A3
330
17
100
AcDbEntity
  8
0
100
AcDbTrace
 10
32.103
 20
262.103
 30
0.0
 11
32.103
 21
267.897
 31
0.0
 12
37.897
 22
262.103
 32
0.0
 13
37.897
 23
267.897
 33
0.0
  0
SOLID
  5
A4
330
17
100
AcDbEntity
  8
0
100
AcDbTrace
 10
33.119
 20
273.119
 30
0.0
 11
33.119
 21
276.881
 31
0.0
 12
36.881
 22
273.119
 32
0.0
 13
36.881
 23
276.881
 33
0.0
  0
SOLID
  5
A5
330
17
100
AcDbEntity
  8
0
100
AcDbTrace
 10
30.127
 20
280.127
 30
0.0
 11
30.127
 21
289.873
 31
0.0
 12
39.873
 22
280.127
 32
0.0
 13
39.873
 23
289.873
 33
0.0
  0
SOLID
  5
A6
330
17
100
AcDbEntity
  8
0
100
AcDbTrace
 10
31.341
 20
291.341
 30
0.0
 11
31.341
 21
298.659
 31
0.0
 12
38.659
 22
291.341
 32
0.0
 13
38.659
 23
298.659
 33
0.0
  0
SOLID
  5
A7
330
17
100
AcDbEntity
  8
0
100
AcDbTrace
 10
40.579
 20
0.5789999999999997
 30
0.0
 11
40.579
 21
9.421
 31
0.0
 12
49.421
 22
0.5789999999999997
 32
0.0
 13
49.421
 23
9.421
 33
0.0
  0
SOLID
  5
A8
330
17
100
AcDbEntity
  8
0
100
AcDbTrace
 10
43.5
 20
13.5
 30
0.0
 11
43.5
 21
16.5
 31
0.0
 12
46.5
 22
13.5
 32
0.0
 13
46.5
 23
16.5
 33
0.0
  0
SOLID
  5
A9
330
17
100
AcDbEntity
  8
0
100
AcDbTrace
 10
42.103
 20
22.103
 30
0.0
 11
42.103
 21
27.897
 31
0.0
 12
47.897
 22
22.103
 32
0.0
 13
47.897
 23
27.897
 33
0.0
  0
SOLID
  5
AA
330
17
100
AcDbEntity
  8
0
100
AcDbTrace
 10
41.976
 20
31.976
 30
0.0
 11
41.976
 21
38.024
 31
0.0
 12
48.024
 22
31.976
 32
0.0
 13
48.024
 23
38.024
 33
0.0
  0
SOLID
  5
AB
330
17
100
AcDbEntity
  8
0
100
AcDbTrace
 10
41.722
 20
41.722
 30
0.0
 11
41.722
 21
48.278
 31
0.0
 12
48.278
 22
41.722
 32
0.0
 13
48.278
 23
48.278
 33
0.0
  0
SOLID
  5
AC
330
17
100
AcDbEntity
  8
0
100
AcDbTrace
 10
41.595
 20
51.595
 30
0.0
 11
41.595
 21
58.405
 31
0.0
 12
48.405
 22
51.595
 32
0.0
 13
48.405
 23
58.405
 33
0.0
  0
SOLID
  5
AD
330
17
100
AcDbEntity
  8
0
100
AcDbTrace
 10
41.468
 20
61.468
 30
0.0
 11
41.468
 21
68.532
 31
0.0
 12
48.532
 22
61.468
 32
0.0
 13
48.532
 23
68.532
 33
0.0
  0
SOLID
  5
AE
330
17
100
AcDbEntity
  8
0
100
AcDbTrace
 10
41.214
 20
71.214
 30
0.0
 11
41.214
 21
78.786
 31
0.0
 12
48.786
 22
71.214
 32
0.0
 13
48.786
 23
78.786
 33
0.0
  0
SOLID
  5
AF
330
17
100
AcDbEntity
  8
0
100
AcDbTrace
 10
40.452
 20
80.452
 30
0.0
 11
40.452
 21
89.548
 31
0.0
 12
49.548
 22
80.452
 32
0.0
 13
49.548
 23
89.548
 33
0.0
  0
SOLID
  5
B0
330
17
100
AcDbEntity
  8
0
100
AcDbTrace
 10
43.5
 20
93.5
 30
0.0
 11
43.5
 21
96.5
 31
0.0
 12
46.5
 22
93.5
 32
0.0
 13
46.5
 23
96.5
 33
0.0
  0
SOLID
  5
B1
330
17
100
AcDbEntity
  8
0
100
AcDbTrace
 10
43.5
 20
103.5
 30
0.0
 11
43.5
 21
106.5
 31
0.0
 12
46.5
 22
103.5
 32
0.0
 13
46.5
 23
106.5
 33
0.0
  0
SOLID
  5
B2
330
17
100
AcDbEntity
  8
0
100
AcDbTrace
 10
42.865
 20
112.865
 30
0.0
 11
42.865
 21
117.135
 31
0.0
 12
47.135
 22
112.865
 32
0.0
 13
47.135
 23
117.135
 33
0.0
  0
SOLID
  5
B3
330
17
100
AcDbEntity
  8
0
100
AcDbTrace
 10
42.484
 20
122.484
 30
0.0
 11
42.484
 21
127.516
 31
0.0
 12
47.516
 22
122.484
 32
0.0
 13
47.516
 23
127.516
 33
0.0
  0
SOLID
  5
B4
330
17
100
AcDbEntity
  8
0
100
AcDbTrace
 10
42.357
 20
132.357
 30
0.0
 11
42.357
 21
137.643
 31
0.0
 12
47.643
 22
132.357
 32
0.0
 13
47.643
 23
137.643
 33
0.0
  0
SOLID
  5
B5
330
17
100
AcDbEntity
  8
0
100
AcDbTrace
 10
42.23
 20
142.23
 30
0.0
 11
42.23
 21
147.77
 31
0.0
 12
47.77
 22
142.23
 32
0.0
 13
47.77
 23
147.77
 33
0.0
  0
SOLID
  5
B6
330
17
100
AcDbEntity
  8
0
100
AcDbTrace
 10
42.23
 20
152.23
 30
0.0
 11
42.23
 21
157.77
 31
0.0
 12
47.77
 22
152.23
 32
0.0
 13
47.77
 23
157.77
 33
0.0
  0
SOLID
  5
B7
330
17
100
AcDbEntity
  8
0
100
AcDbTrace
 10
42.357
 20
162.357
 30
0.0
 11
42.357
 21
167.643
 31
0.0
 12
47.643
 22
162.357
 32
0.0
 13
47.643
 23
167.643
 33
0.0
  0
SOLID
  5
B8
330
17
100
AcDbEntity
  8
0
100
AcDbTrace
 10
42.484
 20
172.484
 30
0.0
 11
42.484
 21
177.516
 31
0.0
 12
47.516
 22
172.484
 32
0.0
 13
47.516
 23
177.516
 33
0.0
  0
SOLID
  5
B9
330
17
100
AcDbEntity
  8
0
100
AcDbTrace
 10
42.865
 20
182.865
 30
0.0
 11
42.865
 21
187.135
 31
0.0
 12
47.135
 22
182.865
 32
0.0
 13
47.135
 23
187.135
 33
0.0
  0
SOLID
  5
BA
330
17
100
AcDbEntity
  8
0
100
AcDbTrace
 10
43.5
 20
193.5
 30
0.0
 11
43.5
 21
196.5
 31
0.0
 12
46.5
 22
193.5
 32
0.0
 13
46.5
 23
196.5
 33
0.0
  0
SOLID
  5
BB
330
17
100
AcDbEntity
  8
0
100
AcDbTrace
 10
43.5
 20
203.5
 30
0.0
 11
43.5
 21
206.5
 31
0.0
 12
46.5
 22
203.5
 32
0.0
 13
46.5
 23
206.5
 33
0.0
  0
SOLID
  5
BC
330
17
100
AcDbEntity
  8
0
100
AcDbTrace
 10
40.452
 20
210.452
 30
0.0
 11
40.452
 21
219.548
 31
0.0
 12
49.548
 22
210.452
 32
0.0
 13
49.548
 23
219.548
 33
0.0
  0
SOLID
  5
BD
330
17
100
AcDbEntity
  8
0
100
AcDbTrace
 10
41.214
 20
221.214
 30
0.0
 11
41.214
 21
228.786
 31
0.0
 12
48.786
 22
221.214
 32
0.0
 13
48.786
 23
228.786
 33
0.0
  0
SOLID
  5
BE
330
17
100
AcDbEntity
  8
0
100
AcDbTrace
 10
41.468
 20
231.468
 30
0.0
 11
41.468
 21
238.532
 31
0.0
 12
48.532
 22
231.468
 32
0.0
 13
48.532
 23
238.532
 33
0.0
  0
SOLID
  5
BF
330
17
100
AcDbEntity
  8
0
100
AcDbTrace
 10
41.595
 20
241.595
 30
0.0
 11
41.595
 21
248.405
 31
0.0
 12
48.405
 22
241.595
 32
0.0
 13
48.405
 23
248.405
 33
0.0
  0
SOLID
  5
C0
330
17
100
AcDbEntity
  8
0
100
AcDbTrace
 10
41.722
 20
251.722
 30
0.0
 11
41.722
 21
258.278
 31
0.0
 12
48.278
 22
251.722
 32
0.0
 13
48.278
 23
258.278
 33
0.0
  0
SOLID
  5
C1
330
17
100
AcDbEntity
  8
0
100
AcDbTrace
 10
41.976
 20
261.976
 30
0.0
 11
41.976
 21
268.024
 31
0.0
 12
48.024
 22
261.976
 32
0.0
 13
48.024
 23
268.024
 33
0.0
  0
SOLID
  5
C2
330
17
100
AcDbEntity
  8
0
100
AcDbTrace
 10
42.103
 20
272.103
 30
0.0
 11
42.103
 21
277.897
 31
0.0
 12
47.897
 22
272.103
 32
0.0
 13
47.897
 23
277.897
 33
0.0
  0
SOLID
  5
C3
330
17
100
AcDbEntity
  8
0
100
AcDbTrace
 10
43.5
 20
283.5
 30
0.0
 11
43.5
 21
286.5
 31
0.0
 12
46.5
 22
283.5
 32
0.0
 13
46.5
 23
286.5
 33
0.0
  0
SOLID
  5
C4
330
17
100
AcDbEntity
  8
0
100
AcDbTrace
 10
40.579
 20
290.579
 30
0.0
 11
40.579
 21
299.421
 31
0.0
 12
49.421
 22
290.579
 32
0.0
 13
49.421
 23
299.421
 33
0.0
  0
SOLID
  5
C5
330
17
100
AcDbEntity
  8
0
100
AcDbTrace
 10
53.5
 20
3.5
 30
0.0
 11
53.5
 21
6.5
 31
0.0
 12
56.5
 22
3.5
 32
0.0
 13
56.5
 23
6.5
 33
0.0
  0
SOLID
  5
C6
330
17
100
AcDbEntity
  8
0
100
AcDbTrace
 10
52.23
 20
12.23
 30
0.0
 11
52.23
 21
17.77
 31
0.0
 12
57.77
 22
12.23
 32
0.0
 13
57.77
 23
17.77
 33
0.0
  0
SOLID
  5
C7
330
17
100
AcDbEntity
  8
0
100
AcDbTrace
 10
51.976
 20
21.976
 30
0.0
 11
51.976
 21
28.024
 31
0.0
 12
58.024
 22
21.976
 32
0.0
 13
58.024
 23
28.024
 33
0.0
  0
SOLID
  5
C8
330
17
100
AcDbEntity
  8
0
100
AcDbTrace
 10
51.722
 20
31.722
 30
0.0
 11
51.722
 21
38.278
 31
0.0
 12
58.278
 22
31.722
 32
0.0
 13
58.278
 23
38.278
 33
0.0
  0
SOLID
  5
C9
330
17
100
AcDbEntity
  8
0
100
AcDbTrace
 10
51.595
 20
41.595
 30
0.0
 11
51.595
 21
48.405
 31
0.0
 12
58.405
 22
41.595
 32
0.0
 13
58.405
 23
48.405
 33
0.0
  0
SOLID
  5
CA
330
17
100
AcDbEntity
  8
0
100
AcDbTrace
 10
51.468
 20
51.468
 30
0.0
 11
51.468
 21
58.532
 31
0.0
 12
58.532
 22
51.468
 32
0.0
 13
58.532
 23
58.532
 33
0.0
  0
SOLID
  5
CB
330
17
100
AcDbEntity
  8
0
100
AcDbTrace
 10
51.087
 20
61.087
 30
0.0
 11
51.087
 21
68.913
 31
0.0
 12
58.913
 22
61.087
 32
0.0
 13
58.913
 23
68.913
 33
0.0
  0
SOLID
  5
CC
330
17
100
AcDbEntity
  8
0
100
AcDbTrace
 10
50.127
 20
70.127
 30
0.0
 11
50.127
 21
79.873
 31
0.0
 12
59.873
 22
70.127
 32
0.0
 13
59.873
 23
79.873
 33
0.0
  0
SOLID
  5
CD
330
17
100
AcDbEntity
  8
0
100
AcDbTrace
 10
53.5
 20
83.5
 30
0.0
 11
53.5
 21
86.5
 31
0.0
 12
56.5
 22
83.5
 32
0.0
 13
56.5
 23
86.5
 33
0.0
  0
SOLID
  5
CE
330
17
100
AcDbEntity
  8
0
100
AcDbTrace
 10
52.992
 20
92.992
 30
0.0
 11
52.992
 21
97.008
 31
0.0
 12
57.008
 22
92.992
 32
0.0
 13
57.008
 23
97.008
 33
0.0
  0
SOLID
  5
CF
330
17
100
AcDbEntity
  8
0
100
AcDbTrace
 10
52.357
 20
102.357
 30
0.0
 11
52.357
 21
107.643
 31
0.0
 12
57.643
 22
102.357
 32
0.0
 13
57.643
 23
107.643
 33
0.0
  0
SOLID
  5
D0
330
17
100
AcDbEntity
  8
0
100
AcDbTrace
 10
52.23
 20
112.23
 30
0.0
 11
52.23
 21
117.77
 31
0.0
 12
57.77
 22
112.23
 32
0.0
 13
57.77
 23
117.77
 33
0.0
  0
SOLID
  5
D1
330
17
100
AcDbEntity
  8
0
100
AcDbTrace
 10
52.103
 20
122.103
 30
0.0
 11
52.103
 21
127.897
 31
0.0
 12
57.897
 22
122.103
 32
0.0
 13
57.897
 23
127.897
 33
0.0
  0
SOLID
  5
D2
330
17
100
AcDbEntity
  8
0
100
AcDbTrace
 10
51.976
 20
131.976
 30
0.0
 11
51.976
 21
138.024
 31
0.0
 12
58.024
 22
131.976
 32
0.0
 13
58.024
 23
138.024
 33
0.0
  0
SOLID
  5
D3
330
17
100
AcDbEntity
  8
0
100
AcDbTrace
 10
51.976
 20
141.976
 30
0.0
 11
51.976
 21
148.024
 31
0.0
 12
58.024
 22
141.976
 32
0.0
 13
58.024
 23
148.024
 33
0.0
  0
SOLID
  5
D4
330
17
100
AcDbEntity
  8
0
100
AcDbTrace
 10
51.976
 20
151.976
 30
0.0
 11
51.976
 21
158.024
 31
0.0
 12
58.024
 22
151.976
 32
0.0
 13
58.024
 23
158.024
 33
0.0
  0
SOLID
  5
D5
330
17
100
AcDbEntity
  8
0
100
AcDbTrace
 10
51.976
 20
161.976
 30
0.0
 11
51.976
 21
168.024
 31
0.0
 12
58.024
 22
161.976
 32
0.0
 13
58.024
 23
168.024
 33
0.0
  0
SOLID
  5
D6
330
17
100
AcDbEntity
  8
0
100
AcDbTrace
 10
52.103
 20
172.103
 30
0.0
 11
52.103
 21
177.897
 31
0.0
 12
57.897
 22
172.103
 32
0.0
 13
57.897
 23
177.897
 33
0.0
  0
SOLID
  5
D7
330
17
100
AcDbEntity
  8
0
100
AcDbTrace
 10
52.23
 20
182.23
 30
0.0
 11
52.23
 21
187.77
 31
0.0
 12
57.77
 22
182.23
 32
0.0
 13
57.77
 23
187.77
 33
0.0
  0
SOLID
  5
D8
330
17
100
AcDbEntity
  8
0
100
AcDbTrace
 10
52.357
 20
192.357
 30
0.0
 11
52.357
 21
197.643
 31
0.0
 12
57.643
 22
192.357
 32
0.0
 13
57.643
 23
197.643
 33
0.0
  0
SOLID
  5
D9
330
17
100
AcDbEntity
  8
0
100
AcDbTrace
 10
52.992
 20
202.992
 30
0.0
 11
52.992
 21
207.008
 31
0.0
 12
57.008
 22
202.992
 32
0.0
 13
57.008
 23
207.008
 33
0.0
  0
SOLID
  5
DA
330
17
100
AcDbEntity
  8
0
100
AcDbTrace
 10
53.5
 20
213.5
 30
0.0
 11
53.5
 21
216.5
 31
0.0
 12
56.5
 22
213.5
 32
0.0
 13
56.5
 23
216.5
 33
0.0
  0
SOLID
  5
DB
330
17
100
AcDbEntity
  8
0
100
AcDbTrace
 10
50.127
 20
220.127
 30
0.0
 11
50.127
 21
229.873
 31
0.0
 12
59.873
 22
220.127
 32
0.0
 13
59.873
 23
229.873
 33
0.0
  0
SOLID
  5
DC
330
17
100
AcDbEntity
  8
0
100
AcDbTrace
 10
51.087
 20
231.087
 30
0.0
 11
51.087
 21
238.913
 31
0.0
 12
58.913
 22
231.087
 32
0.0
 13
58.913
 23
238.913
 33
0.0
  0
SOLID
  5
DD
330
17
100
AcDbEntity
  8
0
100
AcDbTrace
 10
51.468
 20
241.468
 30
0.0
 11
51.468
 21
248.532
 31
0.0
 12
58.532
 22
241.468
 32
0.0
 13
58.532
 23
248.532
 33
0.0
  0
SOLID
  5
DE
330
17
100
AcDbEntity
  8
0
100
AcDbTrace
 10
51.595
 20
251.595
 30
0.0
 11
51.595
 21
258.405
 31
0.0
 12
58.405
 22
251.595
 32
0.0
 13
58.405
 23
258.405
 33
0.0
  0
SOLID
  5
DF
330
17
100
AcDbEntity
  8
0
100
AcDbTrace
 10
51.722
 20
261.722
 30
0.0
 11
51.722
 21
268.278
 31
0.0
 12
58.278
 22
261.722
 32
0.0
 13
58.278
 23
268.278
 33
0.0
  0
SOLID
  5
E0
330
17
100
AcDbEntity
  8
0
100
AcDbTrace
 10
51.976
 20
271.976
 30
0.0
 11
51.976
 21
278.024
 31
0.0
 12
58.024
 22
271.976
 32
0.0
 13
58.024
 23
278.024
 33
0.0
  0
SOLID
  5
E1
330
17
100
AcDbEntity
  8
0
100
AcDbTrace
 10
52.23
 20
282.23
 30
0.0
 11
52.23
 21
287.77
 31
0.0
 12
57.77
 22
282.23
 32
0.0
 13
57.77
 23
287.77
 33
0.0
  0
SOLID
  5
E2
330
17
100
AcDbEntity
  8
0
100
AcDbTrace
 10
53.5
 20
293.5
 30
0.0
 11
53.5
 21
296.5
 31
0.0
 12
56.5
 22
293.5
 32
0.0
 13
56.5
 23
296.5
 33
0.0
  0
SOLID
  5
E3
330
17
100
AcDbEntity
  8
0
100
AcDbTrace
 10
62.611
 20
2.611
 30
0.0
 11
62.611
 21
7.388999999999999
 31
0.0
 12
67.389
 22
2.611
 32
0.0
 13
67.389
 23
7.388999999999999
 33
0.0
  0
SOLID
  5
E4
330
17
100
AcDbEntity
  8
0
100
AcDbTrace
 10
61.976
 20
11.975999999999999
 30
0.0
 11
61.976
 21
18.024
 31
0.0
 12
68.024
 22
11.975999999999999
 32
0.0
 13
68.024
 23
18.024
 33
0.0
  0
SOLID
  5
E5
330
17
100
AcDbEntity
  8
0
100
AcDbTrace
 10
61.722
 20
21.722
 30
0.0
 11
61.722
 21
28.278
 31
0.0
 12
68.278
 22
21.722
 32
0.0
 13
68.278
 23
28.278
 33
0.0
  0
SOLID
  5
E6
330
17
100
AcDbEntity
  8
0
100
AcDbTrace
 10
61.722
 20
31.722
 30
0.0
 11
61.722
 21
38.278
 31
0.0
 12
68.278
 22
31.722
 32
0.0
 13
68.278
 23
38.278
 33
0.0
  0
SOLID
  5
E7
330
17
100
AcDbEntity
  8
0
100
AcDbTrace
 10
61.468
 20
41.468
 30
0.0
 11
61.468
 21
48.532
 31
0.0
 12
68.532
 22
41.468
 32
0.0
 13
68.532
 23
48.532
 33
0.0
  0
SOLID
  5
E8
330
17
100
AcDbEntity
  8
0
100
AcDbTrace
 10
61.214
 20
51.214
 30
0.0
 11
61.214
 21
58.786
 31
0.0
 12
68.786
 22
51.214
 32
0.0
 13
68.786
 23
58.786
 33
0.0
  0
SOLID
  5
E9
330
17
100
AcDbEntity
  8
0
100
AcDbTrace
 10
60.127
 20
60.127
 30
0.0
 11
60.127
 21
69.873
 31
0.0
 12
69.873
 22
60.127
 32
0.0
 13
69.873
 23
69.873
 33
0.0
  0
SOLID
  5
EA
330
17
100
AcDbEntity
  8
0
100
AcDbTrace
 10
63.5
 20
73.5
 30
0.0
 11
63.5
 21
76.5
 31
0.0
 12
66.5
 22
73.5
 32
0.0
 13
66.5
 23
76.5
 33
0.0
  0
SOLID
  5
EB
330
17
100
AcDbEntity
  8
0
100
AcDbTrace
 10
62.738
 20
82.738
 30
0.0
 11
62.738
 21
87.262
 31
0.0
 12
67.262
 22
82.738
 32
0.0
 13
67.262
 23
87.262
 33
0.0
  0
SOLID
  5
EC
330
17
100
AcDbEntity
  8
0
100
AcDbTrace
 10
62.23
 20
92.23
 30
0.0
 11
62.23
 21
97.77
 31
0.0
 12
67.77
 22
92.23
 32
0.0
 13
67.77
 23
97.77
 33
0.0
  0
SOLID
  5
ED
330
17
100
AcDbEntity
  8
0
100
AcDbTrace
 10
62.103
 20
102.103
 30
0.0
 11
62.103
 21
107.897
 31
0.0
 12
67.897
 22
102.103
 32
0.0
 13
67.897
 23
107.897
 33
0.0
  0
SOLID
  5
EE
330
17
100
AcDbEntity
  8
0
100
AcDbTrace
 10
61.976
 20
111.976
 30
0.0
 11
61.976
 21
118.024
 31
0.0
 12
68.024
 22
111.976
 32
0.0
 13
68.024
 23
118.024
 33
0.0
  0
SOLID
  5
EF
330
17
100
AcDbEntity
  8
0
100
AcDbTrace
 10
61.976
 20
121.976
 30
0.0
 11
61.976
 21
128.024
 31
0.0
 12
68.024
 22
121.976
 32
0.0
 13
68.024
 23
128.024
 33
0.0
  0
SOLID
  5
F0
330
17
100
AcDbEntity
  8
0
100
AcDbTrace
 10
61.976
 20
131.976
 30
0.0
 11
61.976
 21
138.024
 31
0.0
 12
68.024
 22
131.976
 32
0.0
 13
68.024
 23
138.024
 33
0.0
  0
SOLID
  5
F1
330
17
100
AcDbEntity
  8
0
100
AcDbTrace
 10
61.976
 20
141.976
 30
0.0
 11
61.976
 21
148.024
 31
0.0
 12
68.024
 22
141.976
 32
0.0
 13
68.024
 23
148.024
 33
0.0
  0
SOLID
  5
F2
330
17
100
AcDbEntity
  8
0
100
AcDbTrace
 10
61.976
 20
151.976
 30
0.0
 11
61.976
 21
158.024
 31
0.0
 12
68.024
 22
151.976
 32
0.0
 13
68.024
 23
158.024
 33
0.0
  0
SOLID
  5
F3
330
17
100
AcDbEntity
  8
0
100
AcDbTrace
 10
61.976
 20
161.976
 30
0.0
 11
61.976
 21
168.024
 31
0.0
 12
68.024
 22
161.976
 32
0.0
 13
68.024
 23
168.024
 33
0.0
  0
SOLID
  5
F4
330
17
100
AcDbEntity
  8
0
100
AcDbTrace
 10
61.976
 20
171.976
 30
0.0
 11
61.976
 21
178.024
 31
0.0
 12
68.024
 22
171.976
 32
0.0
 13
68.024
 23
178.024
 33
0.0
  0
SOLID
  5
F5
330
17
100
AcDbEntity
  8
0
100
AcDbTrace
 10
61.976
 20
181.976
 30
0.0
 11
61.976
 21
188.024
 31
0.0
 12
68.024
 22
181.976
 32
0.0
 13
68.024
 23
188.024
 33
0.0
  0
SOLID
  5
F6
330
17
100
AcDbEntity
  8
0
100
AcDbTrace
 10
62.103
 20
192.103
 30
0.0
 11
62.103
 21
197.897
 31
0.0
 12
67.897
 22
192.103
 32
0.0
 13
67.897
 23
197.897
 33
0.0
  0
SOLID
  5
F7
330
17
100
AcDbEntity
  8
0
100
AcDbTrace
 10
62.23
 20
202.23
 30
0.0
 11
62.23
 21
207.77
 31
0.0
 12
67.77
 22
202.23
 32
0.0
 13
67.77
 23
207.77
 33
0.0
  0
SOLID
  5
F8
330
17
100
AcDbEntity
  8
0
100
AcDbTrace
 10
62.738
 20
212.738
 30
0.0
 11
62.738
 21
217.262
 31
0.0
 12
67.262
 22
212.738
 32
0.0
 13
67.262
 23
217.262
 33
0.0
  0
SOLID
  5
F9
330
17
100
AcDbEntity
  8
0
100
AcDbTrace
 10
63.5
 20
223.5
 30
0.0
 11
63.5
 21
226.5
 31
0.0
 12
66.5
 22
223.5
 32
0.0
 13
66.5
 23
226.5
 33
0.0
  0
SOLID
  5
FA
330
17
100
AcDbEntity
  8
0
100
AcDbTrace
 10
60.127
 20
230.127
 30
0.0
 11
60.127
 21
239.873
 31
0.0
 12
69.873
 22
230.127
 32
0.0
 13
69.873
 23
239.873
 33
0.0
  0
SOLID
  5
FB
330
17
100
AcDbEntity
  8
0
100
AcDbTrace
 10
61.214
 20
241.214
 30
0.0
 11
61.214
 21
248.786
 31
0.0
 12
68.786
 22
241.214
 32
0.0
 13
68.786
 23
248.786
 33
0.0
  0
SOLID
  5
FC
330
17
100
AcDbEntity
  8
0
100
AcDbTrace
 10
61.468
 20
251.468
 30
0.0
 11
61.468
 21
258.532
 31
0.0
 12
68.532
 22
251.468
 32
0.0
 13
68.532
 23
258.532
 33
0.0
  0
SOLID
  5
FD
330
17
100
AcDbEntity
  8
0
100
AcDbTrace
 10
61.722
 20
261.722
 30
0.0
 11
61.722
 21
268.278
 31
0.0
 12
68.278
 22
261.722
 32
0.0
 13
68.278
 23
268.278
 33
0.0
  0
SOLID
  5
FE
330
17
100
AcDbEntity
  8
0
100
AcDbTrace
 10
61.722
 20
271.722
 30
0.0
 11
61.722
 21
278.278
 31
0.0
 12
68.278
 22
271.722
 32
0.0
 13
68.278
 23
278.278
 33
0.0
  0
SOLID
  5
FF
330
17
100
AcDbEntity
  8
0
100
AcDbTrace
 10
61.976
 20
281.976
 30
0.0
 11
61.976
 21
288.024
 31
0.0
 12
68.024
 22
281.976
 32
0.0
 13
68.024
 23
288.024
 33
0.0
  0
SOLID
  5
100
330
17
100
AcDbEntity
  8
0
100
AcDbTrace
 10
62.611
 20
292.611
 30
0.0
 11
62.611
 21
297.389
 31
0.0
 12
67.389
 22
292.611
 32
0.0
 13
67.389
 23
297.389
 33
0.0
  0
SOLID
  5
101
330
17
100
AcDbEntity
  8
0
100
AcDbTrace
 10
72.103
 20
2.103
 30
0.0
 11
72.103
 21
7.897
 31
0.0
 12
77.897
 22
2.103
 32
0.0
 13
77.897
 23
7.897
 33
0.0
  0
SOLID
  5
102
330
17
100
AcDbEntity
  8
0
100
AcDbTrace
 10
71.976
 20
11.975999999999999
 30
0.0
 11
71.976
 21
18.024
 31
0.0
 12
78.024
 22
11.975999999999999
 32
0.0
 13
78.024
 23
18.024
 33
0.0
  0
SOLID
  5
103
330
17
100
AcDbEntity
  8
0
100
AcDbTrace
 10
71.722
 20
21.722
 30
0.0
 11
71.722
 21
28.278
 31
0.0
 12
78.278
 22
21.722
 32
0.0
 13
78.278
 23
28.278
 33
0.0
  0
SOLID
  5
104
330
17
100
AcDbEntity
  8
0
100
AcDbTrace
 10
71.595
 20
31.595
 30
0.0
 11
71.595
 21
38.405
 31
0.0
 12
78.405
 22
31.595
 32
0.0
 13
78.405
 23
38.405
 33
0.0
  0
SOLID
  5
105
330
17
100
AcDbEntity
  8
0
100
AcDbTrace
 10
71.341
 20
41.341
 30
0.0
 11
71.341
 21
48.659
 31
0.0
 12
78.659
 22
41.341
 32
0.0
 13
78.659
 23
48.659
 33
0.0
  0
SOLID
  5
106
330
17
100
AcDbEntity
  8
0
100
AcDbTrace
 10
70.452
 20
50.452
 30
0.0
 11
70.452
 21
59.548
 31
0.0
 12
79.548
 22
50.452
 32
0.0
 13
79.548
 23
59.548
 33
0.0
  0
SOLID
  5
107
330
17
100
AcDbEntity
  8
0
100
AcDbTrace
 10
73.5
 20
63.5
 30
0.0
 11
73.5
 21
66.5
 31
0.0
 12
76.5
 22
63.5
 32
0.0
 13
76.5
 23
66.5
 33
0.0
  0
SOLID
  5
108
330
17
100
AcDbEntity
  8
0
100
AcDbTrace
 10
72.738
 20
72.738
 30
0.0
 11
72.738
 21
77.262
 31
0.0
 12
77.262
 22
72.738
 32
0.0
 13
77.262
 23
77.262
 33
0.0
  0
SOLID
  5
109
330
17
100
AcDbEntity
  8
0
100
AcDbTrace
 10
72.23
 20
82.23
 30
0.0
 11
72.23
 21
87.77
 31
0.0
 12
77.77
 22
82.23
 32
0.0
 13
77.77
 23
87.77
 33
0.0
  0
SOLID
  5
10A
330
17
100
AcDbEntity
  8
0
100
AcDbTrace
 10
71.976
 20
91.976
 30
0.0
 11
71.976
 21
98.024
 31
0.0
 12
78.024
 22
91.976
 32
0.0
 13
78.024
 23
98.024
 33
0.0
  0
SOLID
  5
10B
330
17
100
AcDbEntity
  8
0
100
AcDbTrace
 10
71.976
 20
101.976
 30
0.0
 11
71.976
 21
108.024
 31
0.0
 12
78.024
 22
101.976
 32
0.0
 13
78.024
 23
108.024
 33
0.0
  0
SOLID
  5
10C
330
17
100
AcDbEntity
  8
0
100
AcDbTrace
 10
71.976
 20
111.976
 30
0.0
 11
71.976
 21
118.024
 31
0.0
 12
78.024
 22
111.976
 32
0.0
 13
78.024
 23
118.024
 33
0.0
  0
SOLID
  5
10D
330
17
100
AcDbEntity
  8
0
100
AcDbTrace
 10
71.722
 20
121.722
 30
0.0
 11
71.722
 21
128.278
 31
0.0
 12
78.278
 22
121.722
 32
0.0
 13
78.278
 23
128.278
 33
0.0
  0
SOLID
  5
10E
330
17
100
AcDbEntity
  8
0
100
AcDbTrace
 10
71.722
 20
131.722
 30
0.0
 11
71.722
 21
138.278
 31
0.0
 12
78.278
 22
131.722
 32
0.0
 13
78.278
 23
138.278
 33
0.0
  0
SOLID
  5
10F
330
17
100
AcDbEntity
  8
0
100
AcDbTrace
 10
71.722
 20
141.722
 30
0.0
 11
71.722
 21
148.278
 31
0.0
 12
78.278
 22
141.722
 32
0.0
 13
78.278
 23
148.278
 33
0.0
  0
SOLID
  5
110
330
17
100
AcDbEntity
  8
0
100
AcDbTrace
 10
71.722
 20
151.722
 30
0.0
 11
71.722
 21
158.278
 31
0.0
 12
78.278
 22
151.722
 32
0.0
 13
78.278
 23
158.278
 33
0.0
  0
SOLID
  5
111
330
17
100
AcDbEntity
  8
0
100
AcDbTrace
 10
71.722
 20
161.722
 30
0.0
 11
71.722
 21
168.278
 31
0.0
 12
78.278
 22
161.722
 32
0.0
 13
78.278
 23
168.278
 33
0.0
  0
SOLID
  5
112
330
17
100
AcDbEntity
  8
0
100
AcDbTrace
 10
71.722
 20
171.722
 30
0.0
 11
71.722
 21
178.278
 31
0.0
 12
78.278
 22
171.722
 32
0.0
 13
78.278
 23
178.278
 33
0.0
  0
SOLID
  5
113
330
17
100
AcDbEntity
  8
0
100
AcDbTrace
 10
71.976
 20
181.976
 30
0.0
 11
71.976
 21
188.024
 31
0.0
 12
78.024
 22
181.976
 32
0.0
 13
78.024
 23
188.024
 33
0.0
  0
SOLID
  5
114
330
17
100
AcDbEntity
  8
0
100
AcDbTrace
 10
71.976
 20
191.976
 30
0.0
 11
71.976
 21
198.024
 31
0.0
 12
78.024
 22
191.976
 32
0.0
 13
78.024
 23
198.024
 33
0.0
  0
SOLID
  5
115
330
17
100
AcDbEntity
  8
0
100
AcDbTrace
 10
71.976
 20
201.976
 30
0.0
 11
71.976
 21
208.024
 31
0.0
 12
78.024
 22
201.976
 32
0.0
 13
78.024
 23
208.024
 33
0.0
  0
SOLID
  5
116
330
17
100
AcDbEntity
  8
0
100
AcDbTrace
 10
72.23
 20
212.23
 30
0.0
 11
72.23
 21
217.77
 31
0.0
 12
77.77
 22
212.23
 32
0.0
 13
77.77
 23
217.77
 33
0.0
  0
SOLID
  5
117
330
17
100
AcDbEntity
  8
0
100
AcDbTrace
 10
72.738
 20
222.738
 30
0.0
 11
72.738
 21
227.262
 31
0.0
 12
77.262
 22
222.738
 32
0.0
 13
77.262
 23
227.262
 33
0.0
  0
SOLID
  5
118
330
17
100
AcDbEntity
  8
0
100
AcDbTrace
 10
73.5
 20
233.5
 30
0.0
 11
73.5
 21
236.5
 31
0.0
 12
76.5
 22
233.5
 32
0.0
 13
76.5
 23
236.5
 33
0.0
  0
SOLID
  5
119
330
17
100
AcDbEntity
  8
0
100
AcDbTrace
 10
70.452
 20
240.452
 30
0.0
 11
70.452
 21
249.548
 31
0.0
 12
79.548
 22
240.452
 32
0.0
 13
79.548
 23
249.548
 33
0.0
  0
SOLID
  5
11A
330
17
100
AcDbEntity
  8
0
100
AcDbTrace
 10
71.341
 20
251.341
 30
0.0
 11
71.341
 21
258.659
 31
0.0
 12
78.659
 22
251.341
 32
0.0
 13
78.659
 23
258.659
 33
0.0
  0
SOLID
  5
11B
330
17
100
AcDbEntity
  8
0
100
AcDbTrace
 10
71.595
 20
261.595
 30
0.0
 11
71.595
 21
268.405
 31
0.0
 12
78.405
 22
261.595
 32
0.0
 13
78.405
 23
268.405
 33
0.0
  0
SOLID
  5
11C
330
17
100
AcDbEntity
  8
0
100
AcDbTrace
 10
71.722
 20
271.722
 30
0.0
 11
71.722
 21
278.278
 31
0.0
 12
78.278
 22
271.722
 32
0.0
 13
78.278
 23
278.278
 33
0.0
  0
SOLID
  5
11D
330
17
100
AcDbEntity
  8
0
100
AcDbTrace
 10
71.976
 20
281.976
 30
0.0
 11
71.976
 21
288.024
 31
0.0
 12
78.024
 22
281.976
 32
0.0
 13
78.024
 23
288.024
 33
0.0
  0
SOLID
  5
11E
330
17
100
AcDbEntity
  8
0
100
AcDbTrace
 10
72.103
 20
292.103
 30
0.0
 11
72.103
 21
297.897
 31
0.0
 12
77.897
 22
292.103
 32
0.0
 13
77.897
 23
297.897
 33
0.0
  0
SOLID
  5
11F
330
17
100
AcDbEntity
  8
0
100
AcDbTrace
 10
81.976
 20
1.976
 30
0.0
 11
81.976
 21
8.024000000000001
 31
0.0
 12
88.024
 22
1.976
 32
0.0
 13
88.024
 23
8.024000000000001
 33
0.0
  0
SOLID
  5
120
330
17
100
AcDbEntity
  8
0
100
AcDbTrace
 10
81.722
 20
11.722
 30
0.0
 11
81.722
 21
18.278
 31
0.0
 12
88.278
 22
11.722
 32
0.0
 13
88.278
 23
18.278
 33
0.0
  0
SOLID
  5
121
330
17
100
AcDbEntity
  8
0
100
AcDbTrace
 10
81.595
 20
21.595
 30
0.0
 11
81.595
 21
28.405
 31
0.0
 12
88.405
 22
21.595
 32
0.0
 13
88.405
 23
28.405
 33
0.0
  0
SOLID
  5
122
330
17
100
AcDbEntity
  8
0
100
AcDbTrace
 10
81.468
 20
31.468
 30
0.0
 11
81.468
 21
38.532
 31
0.0
 12
88.532
 22
31.468
 32
0.0
 13
88.532
 23
38.532
 33
0.0
  0
SOLID
  5
123
330
17
100
AcDbEntity
  8
0
100
AcDbTrace
 10
80.96
 20
40.96
 30
0.0
 11
80.96
 21
49.04
 31
0.0
 12
89.04
 22
40.96
 32
0.0
 13
89.04
 23
49.04
 33
0.0
  0
SOLID
  5
124
330
17
100
AcDbEntity
  8
0
100
AcDbTrace
 10
83.5
 20
53.5
 30
0.0
 11
83.5
 21
56.5
 31
0.0
 12
86.5
 22
53.5
 32
0.0
 13
86.5
 23
56.5
 33
0.0
  0
SOLID
  5
125
330
17
100
AcDbEntity
  8
0
100
AcDbTrace
 10
83.119
 20
63.119
 30
0.0
 11
83.119
 21
66.881
 31
0.0
 12
86.881
 22
63.119
 32
0.0
 13
86.881
 23
66.881
 33
0.0
  0
SOLID
  5
126
330
17
100
AcDbEntity
  8
0
100
AcDbTrace
 10
82.23
 20
72.23
 30
0.0
 11
82.23
 21
77.77
 31
0.0
 12
87.77
 22
72.23
 32
0.0
 13
87.77
 23
77.77
 33
0.0
  0
SOLID
  5
127
330
17
100
AcDbEntity
  8
0
100
AcDbTrace
 10
81.976
 20
81.976
 30
0.0
 11
81.976
 21
88.024
 31
0.0
 12
88.024
 22
81.976
 32
0.0
 13
88.024
 23
88.024
 33
0.0
  0
SOLID
  5
128
330
17
100
AcDbEntity
  8
0
100
AcDbTrace
 10
81.976
 20
91.976
 30
0.0
 11
81.976
 21
98.024
 31
0.0
 12
88.024
 22
91.976
 32
0.0
 13
88.024
 23
98.024
 33
0.0
  0
SOLID
  5
129
330
17
100
AcDbEntity
  8
0
100
AcDbTrace
 10
81.976
 20
101.976
 30
0.0
 11
81.976
 21
108.024
 31
0.0
 12
88.024
 22
101.976
 32
0.0
 13
88.024
 23
108.024
 33
0.0
  0
SOLID
  5
12A
330
17
100
AcDbEntity
  8
0
100
AcDbTrace
 10
81.722
 20
111.722
 30
0.0
 11
81.722
 21
118.278
 31
0.0
 12
88.278
 22
111.722
 32
0.0
 13
88.278
 23
118.278
 33
0.0
  0
SOLID
  5
12B
330
17
100
AcDbEntity
  8
0
100
AcDbTrace
 10
81.722
 20
121.722
 30
0.0
 11
81.722
 21
128.278
 31
0.0
 12
88.278
 22
121.722
 32
0.0
 13
88.278
 23
128.278
 33
0.0
  0
SOLID
  5
12C
330
17
100
AcDbEntity
  8
0
100
AcDbTrace
 10
81.722
 20
131.722
 30
0.0
 11
81.722
 21
138.278
 31
0.0
 12
88.278
 22
131.722
 32
0.0
 13
88.278
 23
138.278
 33
0.0
  0
SOLID
  5
12D
330
17
100
AcDbEntity
  8
0
100
AcDbTrace
 10
81.722
 20
141.722
 30
0.0
 11
81.722
 21
148.278
 31
0.0
 12
88.278
 22
141.722
 32
0.0
 13
88.278
 23
148.278
 33
0.0
  0
SOLID
  5
12E
330
17
100
AcDbEntity
  8
0
100
AcDbTrace
 10
81.722
 20
151.722
 30
0.0
 11
81.722
 21
158.278
 31
0.0
 12
88.278
 22
151.722
 32
0.0
 13
88.278
 23
158.278
 33
0.0
  0
SOLID
  5
12F
330
17
100
AcDbEntity
  8
0
100
AcDbTrace
 10
81.722
 20
161.722
 30
0.0
 11
81.722
 21
168.278
 31
0.0
 12
88.278
 22
161.722
 32
0.0
 13
88.278
 23
168.278
 33
0.0
  0
SOLID
  5
130
330
17
100
AcDbEntity
  8
0
100
AcDbTrace
 10
81.722
 20
171.722
 30
0.0
 11
81.722
 21
178.278
 31
0.0
 12
88.278
 22
171.722
 32
0.0
 13
88.278
 23
178.278
 33
0.0
  0
SOLID
  5
131
330
17
100
AcDbEntity
  8
0
100
AcDbTrace
 10
81.722
 20
181.722
 30
0.0
 11
81.722
 21
188.278
 31
0.0
 12
88.278
 22
181.722
 32
0.0
 13
88.278
 23
188.278
 33
0.0
  0
SOLID
  5
132
330
17
100
AcDbEntity
  8
0
100
AcDbTrace
 10
81.976
 20
191.976
 30
0.0
 11
81.976
 21
198.024
 31
0.0
 12
88.024
 22
191.976
 32
0.0
 13
88.024
 23
198.024
 33
0.0
  0
SOLID
  5
133
330
17
100
AcDbEntity
  8
0
100
AcDbTrace
 10
81.976
 20
201.976
 30
0.0
 11
81.976
 21
208.024
 31
0.0
 12
88.024
 22
201.976
 32
0.0
 13
88.024
 23
208.024
 33
0.0
  0
SOLID
  5
134
330
17
100
AcDbEntity
  8
0
100
AcDbTrace
 10
81.976
 20
211.976
 30
0.0
 11
81.976
 21
218.024
 31
0.0
 12
88.024
 22
211.976
 32
0.0
 13
88.024
 23
218.024
 33
0.0
  0
SOLID
  5
135
330
17
100
AcDbEntity
  8
0
100
AcDbTrace
 10
82.23
 20
222.23
 30
0.0
 11
82.23
 21
227.77
 31
0.0
 12
87.77
 22
222.23
 32
0.0
 13
87.77
 23
227.77
 33
0.0
  0
SOLID
  5
136
330
17
100
AcDbEntity
  8
0
100
AcDbTrace
 10
83.119
 20
233.119
 30
0.0
 11
83.119
 21
236.881
 31
0.0
 12
86.881
 22
233.119
 32
0.0
 13
86.881
 23
236.881
 33
0.0
  0
SOLID
  5
137
330
17
100
AcDbEntity
  8
0
100
AcDbTrace
 10
83.5
 20
243.5
 30
0.0
 11
83.5
 21
246.5
 31
0.0
 12
86.5
 22
243.5
 32
0.0
 13
86.5
 23
246.5
 33
0.0
  0
SOLID
  5
138
330
17
100
AcDbEntity
  8
0
100
AcDbTrace
 10
80.96
 20
250.96
 30
0.0
 11
80.96
 21
259.04
 31
0.0
 12
89.04
 22
250.96
 32
0.0
 13
89.04
 23
259.04
 33
0.0
  0
SOLID
  5
139
330
17
100
AcDbEntity
  8
0
100
AcDbTrace
 10
81.468
 20
261.468
 30
0.0
 11
81.468
 21
268.532
 31
0.0
 12
88.532
 22
261.468
 32
0.0
 13
88.532
 23
268.532
 33
0.0
  0
SOLID
  5
13A
330
17
100
AcDbEntity
  8
0
100
AcDbTrace
 10
81.595
 20
271.595
 30
0.0
 11
81.595
 21
278.405
 31
0.0
 12
88.405
 22
271.595
 32
0.0
 13
88.405
 23
278.405
 33
0.0
  0
SOLID
  5
13B
330
17
100
AcDbEntity
  8
0
100
AcDbTrace
 10
81.722
 20
281.722
 30
0.0
 11
81.722
 21
288.278
 31
0.0
 12
88.278
 22
281.722
 32
0.0
 13
88.278
 23
288.278
 33
0.0
  0
SOLID
  5
13C
330
17
100
AcDbEntity
  8
0
100
AcDbTrace
 10
81.976
 20
291.976
 30
0.0
 11
81.976
 21
298.024
 31
0.0
 12
88.024
 22
291.976
 32
0.0
 13
88.024
 23
298.024
 33
0.0
  0
SOLID
  5
13D
330
17
100
AcDbEntity
  8
0
100
AcDbTrace
 10
91.976
 20
1.976
 30
0.0
 11
91.976
 21
8.024000000000001
 31
0.0
 12
98.024
 22
1.976
 32
0.0
 13
98.024
 23
8.024000000000001
 33
0.0
  0
SOLID
  5
13E
330
17
100
AcDbEntity
  8
0
100
AcDbTrace
 10
91.722
 20
11.722
 30
0.0
 11
91.722
 21
18.278
 31
0.0
 12
98.278
 22
11.722
 32
0.0
 13
98.278
 23
18.278
 33
0.0
  0
SOLID
  5
13F
330
17
100
AcDbEntity
  8
0
100
AcDbTrace
 10
91.595
 20
21.595
 30
0.0
 11
91.595
 21
28.405
 31
0.0
 12
98.405
 22
21.595
 32
0.0
 13
98.405
 23
28.405
 33
0.0
  0
SOLID
  5
140
330
17
100
AcDbEntity
  8
0
100
AcDbTrace
 10
91.214
 20
31.214
 30
0.0
 11
91.214
 21
38.786
 31
0.0
 12
98.786
 22
31.214
 32
0.0
 13
98.786
 23
38.786
 33
0.0
  0
SOLID
  5
141
330
17
100
AcDbEntity
  8
0
100
AcDbTrace
 10
90.127
 20
40.127
 30
0.0
 11
90.127
 21
49.873
 31
0.0
 12
99.873
 22
40.127
 32
0.0
 13
99.873
 23
49.873
 33
0.0
  0
SOLID
  5
142
330
17
100
AcDbEntity
  8
0
100
AcDbTrace
 10
93.5
 20
53.5
 30
0.0
 11
93.5
 21
56.5
 31
0.0
 12
96.5
 22
53.5
 32
0.0
 13
96.5
 23
56.5
 33
0.0
  0
SOLID
  5
143
330
17
100
AcDbEntity
  8
0
100
AcDbTrace
 10
92.357
 20
62.357
 30
0.0
 11
92.357
 21
67.643
 31
0.0
 12
97.643
 22
62.357
 32
0.0
 13
97.643
 23
67.643
 33
0.0
  0
SOLID
  5
144
330
17
100
AcDbEntity
  8
0
100
AcDbTrace
 10
92.103
 20
72.103
 30
0.0
 11
92.103
 21
77.897
 31
0.0
 12
97.897
 22
72.103
 32
0.0
 13
97.897
 23
77.897
 33
0.0
  0
SOLID
  5
145
330
17
100
AcDbEntity
  8
0
100
AcDbTrace
 10
91.976
 20
81.976
 30
0.0
 11
91.976
 21
88.024
 31
0.0
 12
98.024
 22
81.976
 32
0.0
 13
98.024
 23
88.024
 33
0.0
  0
SOLID
  5
146
330
17
100
AcDbEntity
  8
0
100
AcDbTrace
 10
91.976
 20
91.976
 30
0.0
 11
91.976
 21
98.024
 31
0.0
 12
98.024
 22
91.976
 32
0.0
 13
98.024
 23
98.024
 33
0.0
  0
SOLID
  5
147
330
17
100
AcDbEntity
  8
0
100
AcDbTrace
 10
91.722
 20
101.722
 30
0.0
 11
91.722
 21
108.278
 31
0.0
 12
98.278
 22
101.722
 32
0.0
 13
98.278
 23
108.278
 33
0.0
  0
SOLID
  5
148
330
17
100
AcDbEntity
  8
0
100
AcDbTrace
 10
91.722
 20
111.722
 30
0.0
 11
91.722
 21
118.278
 31
0.0
 12
98.278
 22
111.722
 32
0.0
 13
98.278
 23
118.278
 33
0.0
  0
SOLID
  5
149
330
17
100
AcDbEntity
  8
0
100
AcDbTrace
 10
91.722
 20
121.722
 30
0.0
 11
91.722
 21
128.278
 31
0.0
 12
98.278
 22
121.722
 32
0.0
 13
98.278
 23
128.278
 33
0.0
  0
SOLID
  5
14A
330
17
100
AcDbEntity
  8
0
100
AcDbTrace
 10
91.722
 20
131.722
 30
0.0
 11
91.722
 21
138.278
 31
0.0
 12
98.278
 22
131.722
 32
0.0
 13
98.278
 23
138.278
 33
0.0
  0
SOLID
  5
14B
330
17
100
AcDbEntity
  8
0
100
AcDbTrace
 10
91.595
 20
141.595
 30
0.0
 11
91.595
 21
148.405
 31
0.0
 12
98.405
 22
141.595
 32
0.0
 13
98.405
 23
148.405
 33
0.0
  0
SOLID
  5
14C
330
17
100
AcDbEntity
  8
0
100
AcDbTrace
 10
91.595
 20
151.595
 30
0.0
 11
91.595
 21
158.405
 31
0.0
 12
98.405
 22
151.595
 32
0.0
 13
98.405
 23
158.405
 33
0.0
  0
SOLID
  5
14D
330
17
100
AcDbEntity
  8
0
100
AcDbTrace
 10
91.722
 20
161.722
 30
0.0
 11
91.722
 21
168.278
 31
0.0
 12
98.278
 22
161.722
 32
0.0
 13
98.278
 23
168.278
 33
0.0
  0
SOLID
  5
14E
330
17
100
AcDbEntity
  8
0
100
AcDbTrace
 10
91.722
 20
171.722
 30
0.0
 11
91.722
 21
178.278
 31
0.0
 12
98.278
 22
171.722
 32
0.0
 13
98.278
 23
178.278
 33
0.0
  0
SOLID
  5
14F
330
17
100
AcDbEntity
  8
0
100
AcDbTrace
 10
91.722
 20
181.722
 30
0.0
 11
91.722
 21
188.278
 31
0.0
 12
98.278
 22
181.722
 32
0.0
 13
98.278
 23
188.278
 33
0.0
  0
SOLID
  5
150
330
17
100
AcDbEntity
  8
0
100
AcDbTrace
 10
91.722
 20
191.722
 30
0.0
 11
91.722
 21
198.278
 31
0.0
 12
98.278
 22
191.722
 32
0.0
 13
98.278
 23
198.278
 33
0.0
  0
SOLID
  5
151
330
17
100
AcDbEntity
  8
0
100
AcDbTrace
 10
91.976
 20
201.976
 30
0.0
 11
91.976
 21
208.024
 31
0.0
 12
98.024
 22
201.976
 32
0.0
 13
98.024
 23
208.024
 33
0.0
  0
SOLID
  5
152
330
17
100
AcDbEntity
  8
0
100
AcDbTrace
 10
91.976
 20
211.976
 30
0.0
 11
91.976
 21
218.024
 31
0.0
 12
98.024
 22
211.976
 32
0.0
 13
98.024
 23
218.024
 33
0.0
  0
SOLID
  5
153
330
17
100
AcDbEntity
  8
0
100
AcDbTrace
 10
92.103
 20
222.103
 30
0.0
 11
92.103
 21
227.897
 31
0.0
 12
97.897
 22
222.103
 32
0.0
 13
97.897
 23
227.897
 33
0.0
  0
SOLID
  5
154
330
17
100
AcDbEntity
  8
0
100
AcDbTrace
 10
92.357
 20
232.357
 30
0.0
 11
92.357
 21
237.643
 31
0.0
 12
97.643
 22
232.357
 32
0.0
 13
97.643
 23
237.643
 33
0.0
  0
SOLID
  5
155
330
17
100
AcDbEntity
  8
0
100
AcDbTrace
 10
93.5
 20
243.5
 30
0.0
 11
93.5
 21
246.5
 31
0.0
 12
96.5
 22
243.5
 32
0.0
 13
96.5
 23
246.5
 33
0.0
  0
SOLID
  5
156
330
17
100
AcDbEntity
  8
0
100
AcDbTrace
 10
90.127
 20
250.127
 30
0.0
 11
90.127
 21
259.873
 31
0.0
 12
99.873
 22
250.127
 32
0.0
 13
99.873
 23
259.873
 33
0.0
  0
SOLID
  5
157
330
17
100
AcDbEntity
  8
0
100
AcDbTrace
 10
91.214
 20
261.214
 30
0.0
 11
91.214
 21
268.786
 31
0.0
 12
98.786
 22
261.214
 32
0.0
 13
98.786
 23
268.786
 33
0.0
  0
SOLID
  5
158
330
17
100
AcDbEntity
  8
0
100
AcDbTrace
 10
91.595
 20
271.595
 30
0.0
 11
91.595
 21
278.405
 31
0.0
 12
98.405
 22
271.595
 32
0.0
 13
98.405
 23
278.405
 33
0.0
  0
SOLID
  5
159
330
17
100
AcDbEntity
  8
0
100
AcDbTrace
 10
91.722
 20
281.722
 30
0.0
 11
91.722
 21
288.278
 31
0.0
 12
98.278
 22
281.722
 32
0.0
 13
98.278
 23
288.278
 33
0.0
  0
SOLID
  5
15A
330
17
100
AcDbEntity
  8
0
100
AcDbTrace
 10
91.976
 20
291.976
 30
0.0
 11
91.976
 21
298.024
 31
0.0
 12
98.024
 22
291.976
 32
0.0
 13
98.024
 23
298.024
 33
0.0
  0
SOLID
  5
15B
330
17
100
AcDbEntity
  8
0
100
AcDbTrace
 10
101.722
 20
1.722
 30
0.0
 11
101.722
 21
8.278
 31
0.0
 12
108.278
 22
1.722
 32
0.0
 13
108.278
 23
8.278
 33
0.0
  0
SOLID
  5
15C
330
17
100
AcDbEntity
  8
0
100
AcDbTrace
 10
101.595
 20
11.595
 30
0.0
 11
101.595
 21
18.405
 31
0.0
 12
108.405
 22
11.595
 32
0.0
 13
108.405
 23
18.405
 33
0.0
  0
SOLID
  5
15D
330
17
100
AcDbEntity
  8
0
100
AcDbTrace
 10
101.468
 20
21.468
 30
0.0
 11
101.468
 21
28.532
 31
0.0
 12
108.532
 22
21.468
 32
0.0
 13
108.532
 23
28.532
 33
0.0
  0
SOLID
  5
15E
330
17
100
AcDbEntity
  8
0
100
AcDbTrace
 10
100.96
 20
30.96
 30
0.0
 11
100.96
 21
39.04
 31
0.0
 12
109.04
 22
30.96
 32
0.0
 13
109.04
 23
39.04
 33
0.0
  0
SOLID
  5
15F
330
17
100
AcDbEntity
  8
0
100
AcDbTrace
 10
103.5
 20
43.5
 30
0.0
 11
103.5
 21
46.5
 31
0.0
 12
106.5
 22
43.5
 32
0.0
 13
106.5
 23
46.5
 33
0.0
  0
SOLID
  5
160
330
17
100
AcDbEntity
  8
0
100
AcDbTrace
 10
102.865
 20
52.865
 30
0.0
 11
102.865
 21
57.135
 31
0.0
 12
107.135
 22
52.865
 32
0.0
 13
107.135
 23
57.135
 33
0.0
  0
SOLID
  5
161
330
17
100
AcDbEntity
  8
0
100
AcDbTrace
 10
102.23
 20
62.23
 30
0.0
 11
102.23
 21
67.77
 31
0.0
 12
107.77
 22
62.23
 32
0.0
 13
107.77
 23
67.77
 33
0.0
  0
SOLID
  5
162
330
17
100
AcDbEntity
  8
0
100
AcDbTrace
 10
101.976
 20
71.976
 30
0.0
 11
101.976
 21
78.024
 31
0.0
 12
108.024
 22
71.976
 32
0.0
 13
108.024
 23
78.024
 33
0.0
  0
SOLID
  5
163
330
17
100
AcDbEntity
  8
0
100
AcDbTrace
 10
101.976
 20
81.976
 30
0.0
 11
101.976
 21
88.024
 31
0.0
 12
108.024
 22
81.976
 32
0.0
 13
108.024
 23
88.024
 33
0.0
  0
SOLID
  5
164
330
17
100
AcDbEntity
  8
0
100
AcDbTrace
 10
101.722
 20
91.722
 30
0.0
 11
101.722
 21
98.278
 31
0.0
 12
108.278
 22
91.722
 32
0.0
 13
108.278
 23
98.278
 33
0.0
  0
SOLID
  5
165
330
17
100
AcDbEntity
  8
0
100
AcDbTrace
 10
101.722
 20
101.722
 30
0.0
 11
101.722
 21
108.278
 31
0.0
 12
108.278
 22
101.722
 32
0.0
 13
108.278
 23
108.278
 33
0.0
  0
SOLID
  5
166
330
17
100
AcDbEntity
  8
0
100
AcDbTrace
 10
101.722
 20
111.722
 30
0.0
 11
101.722
 21
118.278
 31
0.0
 12
108.278
 22
111.722
 32
0.0
 13
108.278
 23
118.278
 33
0.0
  0
SOLID
  5
167
330
17
100
AcDbEntity
  8
0
100
AcDbTrace
 10
101.595
 20
121.595
 30
0.0
 11
101.595
 21
128.405
 31
0.0
 12
108.405
 22
121.595
 32
0.0
 13
108.405
 23
128.405
 33
0.0
  0
SOLID
  5
168
330
17
100
AcDbEntity
  8
0
100
AcDbTrace
 10
101.595
 20
131.595
 30
0.0
 11
101.595
 21
138.405
 31
0.0
 12
108.405
 22
131.595
 32
0.0
 13
108.405
 23
138.405
 33
0.0
  0
SOLID
  5
169
330
17
100
AcDbEntity
  8
0
100
AcDbTrace
 10
101.595
 20
141.595
 30
0.0
 11
101.595
 21
148.405
 31
0.0
 12
108.405
 22
141.595
 32
0.0
 13
108.405
 23
148.405
 33
0.0
  0
SOLID
  5
16A
330
17
100
AcDbEntity
  8
0
100
AcDbTrace
 10
101.595
 20
151.595
 30
0.0
 11
101.595
 21
158.405
 31
0.0
 12
108.405
 22
151.595
 32
0.0
 13
108.405
 23
158.405
 33
0.0
  0
SOLID
  5
16B
330
17
100
AcDbEntity
  8
0
100
AcDbTrace
 10
101.595
 20
161.595
 30
0.0
 11
101.595
 21
168.405
 31
0.0
 12
108.405
 22
161.595
 32
0.0
 13
108.405
 23
168.405
 33
0.0
  0
SOLID
  5
16C
330
17
100
AcDbEntity
  8
0
100
AcDbTrace
 10
101.595
 20
171.595
 30
0.0
 11
101.595
 21
178.405
 31
0.0
 12
108.405
 22
171.595
 32
0.0
 13
108.405
 23
178.405
 33
0.0
  0
SOLID
  5
16D
330
17
100
AcDbEntity
  8
0
100
AcDbTrace
 10
101.722
 20
181.722
 30
0.0
 11
101.722
 21
188.278
 31
0.0
 12
108.278
 22
181.722
 32
0.0
 13
108.278
 23
188.278
 33
0.0
  0
SOLID
  5
16E
330
17
100
AcDbEntity
  8
0
100
AcDbTrace
 10
101.722
 20
191.722
 30
0.0
 11
101.722
 21
198.278
 31
0.0
 12
108.278
 22
191.722
 32
0.0
 13
108.278
 23
198.278
 33
0.0
  0
SOLID
  5
16F
330
17
100
AcDbEntity
  8
0
100
AcDbTrace
 10
101.722
 20
201.722
 30
0.0
 11
101.722
 21
208.278
 31
0.0
 12
108.278
 22
201.722
 32
0.0
 13
108.278
 23
208.278
 33
0.0
  0
SOLID
  5
170
330
17
100
AcDbEntity
  8
0
100
AcDbTrace
 10
101.976
 20
211.976
 30
0.0
 11
101.976
 21
218.024
 31
0.0
 12
108.024
 22
211.976
 32
0.0
 13
108.024
 23
218.024
 33
0.0
  0
SOLID
  5
171
330
17
100
AcDbEntity
  8
0
100
AcDbTrace
 10
101.976
 20
221.976
 30
0.0
 11
101.976
 21
228.024
 31
0.0
 12
108.024
 22
221.976
 32
0.0
 13
108.024
 23
228.024
 33
0.0
  0
SOLID
  5
172
330
17
100
AcDbEntity
  8
0
100
AcDbTrace
 10
102.23
 20
232.23
 30
0.0
 11
102.23
 21
237.77
 31
0.0
 12
107.77
 22
232.23
 32
0.0
 13
107.77
 23
237.77
 33
0.0
  0
SOLID
  5
173
330
17
100
AcDbEntity
  8
0
100
AcDbTrace
 10
102.865
 20
242.865
 30
0.0
 11
102.865
 21
247.135
 31
0.0
 12
107.135
 22
242.865
 32
0.0
 13
107.135
 23
247.135
 33
0.0
  0
SOLID
  5
174
330
17
100
AcDbEntity
  8
0
100
AcDbTrace
 10
103.5
 20
253.5
 30
0.0
 11
103.5
 21
256.5
 31
0.0
 12
106.5
 22
253.5
 32
0.0
 13
106.5
 23
256.5
 33
0.0
  0
SOLID
  5
175
330
17
100
AcDbEntity
  8
0
100
AcDbTrace
 10
100.96
 20
260.96
 30
0.0
 11
100.96
 21
269.04
 31
0.0
 12
109.04
 22
260.96
 32
0.0
 13
109.04
 23
269.04
 33
0.0
  0
SOLID
  5
176
330
17
100
AcDbEntity
  8
0
100
AcDbTrace
 10
101.468
 20
271.468
 30
0.0
 11
101.468
 21
278.532
 31
0.0
 12
108.532
 22
271.468
 32
0.0
 13
108.532
 23
278.532
 33
0.0
  0
SOLID
  5
177
330
17
100
AcDbEntity
  8
0
100
AcDbTrace
 10
101.595
 20
281.595
 30
0.0
 11
101.595
 21
288.405
 31
0.0
 12
108.405
 22
281.595
 32
0.0
 13
108.405
 23
288.405
 33
0.0
  0
SOLID
  5
178
330
17
100
AcDbEntity
  8
0
100
AcDbTrace
 10
101.722
 20
291.722
 30
0.0
 11
101.722
 21
298.278
 31
0.0
 12
108.278
 22
291.722
 32
0.0
 13
108.278
 23
298.278
 33
0.0
  0
SOLID
  5
179
330
17
100
AcDbEntity
  8
0
100
AcDbTrace
 10
111.722
 20
1.722
 30
0.0
 11
111.722
 21
8.278
 31
0.0
 12
118.278
 22
1.722
 32
0.0
 13
118.278
 23
8.278
 33
0.0
  0
SOLID
  5
17A
330
17
100
AcDbEntity
  8
0
100
AcDbTrace
 10
111.595
 20
11.595
 30
0.0
 11
111.595
 21
18.405
 31
0.0
 12
118.405
 22
11.595
 32
0.0
 13
118.405
 23
18.405
 33
0.0
  0
SOLID
  5
17B
330
17
100
AcDbEntity
  8
0
100
AcDbTrace
 10
111.341
 20
21.341
 30
0.0
 11
111.341
 21
28.659
 31
0.0
 12
118.659
 22
21.341
 32
0.0
 13
118.659
 23
28.659
 33
0.0
  0
SOLID
  5
17C
330
17
100
AcDbEntity
  8
0
100
AcDbTrace
 10
110.452
 20
30.451999999999998
 30
0.0
 11
110.452
 21
39.548
 31
0.0
 12
119.548
 22
30.451999999999998
 32
0.0
 13
119.548
 23
39.548
 33
0.0
  0
SOLID
  5
17D
330
17
100
AcDbEntity
  8
0
100
AcDbTrace
 10
113.5
 20
43.5
 30
0.0
 11
113.5
 21
46.5
 31
0.0
 12
116.5
 22
43.5
 32
0.0
 13
116.5
 23
46.5
 33
0.0
  0
SOLID
  5
17E
330
17
100
AcDbEntity
  8
0
100
AcDbTrace
 10
112.357
 20
52.357
 30
0.0
 11
112.357
 21
57.643
 31
0.0
 12
117.643
 22
52.357
 32
0.0
 13
117.643
 23
57.643
 33
0.0
  0
SOLID
  5
17F
330
17
100
AcDbEntity
  8
0
100
AcDbTrace
 10
112.103
 20
62.103
 30
0.0
 11
112.103
 21
67.897
 31
0.0
 12
117.897
 22
62.103
 32
0.0
 13
117.897
 23
67.897
 33
0.0
  0
SOLID
  5
180
330
17
100
AcDbEntity
  8
0
100
AcDbTrace
 10
111.976
 20
71.976
 30
0.0
 11
111.976
 21
78.024
 31
0.0
 12
118.024
 22
71.976
 32
0.0
 13
118.024
 23
78.024
 33
0.0
  0
SOLID
  5
181
330
17
100
AcDbEntity
  8
0
100
AcDbTrace
 10
111.722
 20
81.722
 30
0.0
 11
111.722
 21
88.278
 31
0.0
 12
118.278
 22
81.722
 32
0.0
 13
118.278
 23
88.278
 33
0.0
  0
SOLID
  5
182
330
17
100
AcDbEntity
  8
0
100
AcDbTrace
 10
111.722
 20
91.722
 30
0.0
 11
111.722
 21
98.278
 31
0.0
 12
118.278
 22
91.722
 32
0.0
 13
118.278
 23
98.278
 33
0.0
  0
SOLID
  5
183
330
17
100
AcDbEntity
  8
0
100
AcDbTrace
 10
111.722
 20
101.722
 30
0.0
 11
111.722
 21
108.278
 31
0.0
 12
118.278
 22
101.722
 32
0.0
 13
118.278
 23
108.278
 33
0.0
  0
SOLID
  5
184
330
17
100
AcDbEntity
  8
0
100
AcDbTrace
 10
111.595
 20
111.595
 30
0.0
 11
111.595
 21
118.405
 31
0.0
 12
118.405
 22
111.595
 32
0.0
 13
118.405
 23
118.405
 33
0.0
  0
SOLID
  5
185
330
17
100
AcDbEntity
  8
0
100
AcDbTrace
 10
111.595
 20
121.595
 30
0.0
 11
111.595
 21
128.405
 31
0.0
 12
118.405
 22
121.595
 32
0.0
 13
118.405
 23
128.405
 33
0.0
  0
SOLID
  5
186
330
17
100
AcDbEntity
  8
0
100
AcDbTrace
 10
111.595
 20
131.595
 30
0.0
 11
111.595
 21
138.405
 31
0.0
 12
118.405
 22
131.595
 32
0.0
 13
118.405
 23
138.405
 33
0.0
  0
SOLID
  5
187
330
17
100
AcDbEntity
  8
0
100
AcDbTrace
 10
111.595
 20
141.595
 30
0.0
 11
111.595
 21
148.405
 31
0.0
 12
118.405
 22
141.595
 32
0.0
 13
118.405
 23
148.405
 33
0.0
  0
SOLID
  5
188
330
17
100
AcDbEntity
  8
0
100
AcDbTrace
 10
111.595
 20
151.595
 30
0.0
 11
111.595
 21
158.405
 31
0.0
 12
118.405
 22
151.595
 32
0.0
 13
118.405
 23
158.405
 33
0.0
  0
SOLID
  5
189
330
17
100
AcDbEntity
  8
0
100
AcDbTrace
 10
111.595
 20
161.595
 30
0.0
 11
111.595
 21
168.405
 31
0.0
 12
118.405
 22
161.595
 32
0.0
 13
118.405
 23
168.405
 33
0.0
  0
SOLID
  5
18A
330
17
100
AcDbEntity
  8
0
100
AcDbTrace
 10
111.595
 20
171.595
 30
0.0
 11
111.595
 21
178.405
 31
0.0
 12
118.405
 22
171.595
 32
0.0
 13
118.405
 23
178.405
 33
0.0
  0
SOLID
  5
18B
330
17
100
AcDbEntity
  8
0
100
AcDbTrace
 10
111.595
 20
181.595
 30
0.0
 11
111.595
 21
188.405
 31
0.0
 12
118.405
 22
181.595
 32
0.0
 13
118.405
 23
188.405
 33
0.0
  0
SOLID
  5
18C
330
17
100
AcDbEntity
  8
0
100
AcDbTrace
 10
111.722
 20
191.722
 30
0.0
 11
111.722
 21
198.278
 31
0.0
 12
118.278
 22
191.722
 32
0.0
 13
118.278
 23
198.278
 33
0.0
  0
SOLID
  5
18D
330
17
100
AcDbEntity
  8
0
100
AcDbTrace
 10
111.722
 20
201.722
 30
0.0
 11
111.722
 21
208.278
 31
0.0
 12
118.278
 22
201.722
 32
0.0
 13
118.278
 23
208.278
 33
0.0
  0
SOLID
  5
18E
330
17
100
AcDbEntity
  8
0
100
AcDbTrace
 10
111.722
 20
211.722
 30
0.0
 11
111.722
 21
218.278
 31
0.0
 12
118.278
 22
211.722
 32
0.0
 13
118.278
 23
218.278
 33
0.0
  0
SOLID
  5
18F
330
17
100
AcDbEntity
  8
0
100
AcDbTrace
 10
111.976
 20
221.976
 30
0.0
 11
111.976
 21
228.024
 31
0.0
 12
118.024
 22
221.976
 32
0.0
 13
118.024
 23
228.024
 33
0.0
  0
SOLID
  5
190
330
17
100
AcDbEntity
  8
0
100
AcDbTrace
 10
112.103
 20
232.103
 30
0.0
 11
112.103
 21
237.897
 31
0.0
 12
117.897
 22
232.103
 32
0.0
 13
117.897
 23
237.897
 33
0.0
  0
SOLID
  5
191
330
17
100
AcDbEntity
  8
0
100
AcDbTrace
 10
112.357
 20
242.357
 30
0.0
 11
112.357
 21
247.643
 31
0.0
 12
117.643
 22
242.357
 32
0.0
 13
117.643
 23
247.643
 33
0.0
  0
SOLID
  5
192
330
17
100
AcDbEntity
  8
0
100
AcDbTrace
 10
113.5
 20
253.5
 30
0.0
 11
113.5
 21
256.5
 31
0.0
 12
116.5
 22
253.5
 32
0.0
 13
116.5
 23
256.5
 33
0.0
  0
SOLID
  5
193
330
17
100
AcDbEntity
  8
0
100
AcDbTrace
 10
110.452
 20
260.452
 30
0.0
 11
110.452
 21
269.548
 31
0.0
 12
119.548
 22
260.452
 32
0.0
 13
119.548
 23
269.548
 33
0.0
  0
SOLID
  5
194
330
17
100
AcDbEntity
  8
0
100
AcDbTrace
 10
111.341
 20
271.341
 30
0.0
 11
111.341
 21
278.659
 31
0.0
 12
118.659
 22
271.341
 32
0.0
 13
118.659
 23
278.659
 33
0.0
  0
SOLID
  5
195
330
17
100
AcDbEntity
  8
0
100
AcDbTrace
 10
111.595
 20
281.595
 30
0.0
 11
111.595
 21
288.405
 31
0.0
 12
118.405
 22
281.595
 32
0.0
 13
118.405
 23
288.405
 33
0.0
  0
SOLID
  5
196
330
17
100
AcDbEntity
  8
0
100
AcDbTrace
 10
111.722
 20
291.722
 30
0.0
 11
111.722
 21
298.278
 31
0.0
 12
118.278
 22
291.722
 32
0.0
 13
118.278
 23
298.278
 33
0.0
  0
SOLID
  5
197
330
17
100
AcDbEntity
  8
0
100
AcDbTrace
 10
121.722
 20
1.722
 30
0.0
 11
121.722
 21
8.278
 31
0.0
 12
128.278
 22
1.722
 32
0.0
 13
128.278
 23
8.278
 33
0.0
  0
SOLID
  5
198
330
17
100
AcDbEntity
  8
0
100
AcDbTrace
 10
121.595
 20
11.595
 30
0.0
 11
121.595
 21
18.405
 31
0.0
 12
128.405
 22
11.595
 32
0.0
 13
128.405
 23
18.405
 33
0.0
  0
SOLID
  5
199
330
17
100
AcDbEntity
  8
0
100
AcDbTrace
 10
121.214
 20
21.214
 30
0.0
 11
121.214
 21
28.786
 31
0.0
 12
128.786
 22
21.214
 32
0.0
 13
128.786
 23
28.786
 33
0.0
  0
SOLID
  5
19A
330
17
100
AcDbEntity
  8
0
100
AcDbTrace
 10
120.127
 20
30.127
 30
0.0
 11
120.127
 21
39.873
 31
0.0
 12
129.873
 22
30.127
 32
0.0
 13
129.873
 23
39.873
 33
0.0
  0
SOLID
  5
19B
330
17
100
AcDbEntity
  8
0
100
AcDbTrace
 10
123.5
 20
43.5
 30
0.0
 11
123.5
 21
46.5
 31
0.0
 12
126.5
 22
43.5
 32
0.0
 13
126.5
 23
46.5
 33
0.0
  0
SOLID
  5
19C
330
17
100
AcDbEntity
  8
0
100
AcDbTrace
 10
122.23
 20
52.23
 30
0.0
 11
122.23
 21
57.77
 31
0.0
 12
127.77
 22
52.23
 32
0.0
 13
127.77
 23
57.77
 33
0.0
  0
SOLID
  5
19D
330
17
100
AcDbEntity
  8
0
100
AcDbTrace
 10
121.976
 20
61.976
 30
0.0
 11
121.976
 21
68.024
 31
0.0
 12
128.024
 22
61.976
 32
0.0
 13
128.024
 23
68.024
 33
0.0
  0
SOLID
  5
19E
330
17
100
AcDbEntity
  8
0
100
AcDbTrace
 10
121.976
 20
71.976
 30
0.0
 11
121.976
 21
78.024
 31
0.0
 12
128.024
 22
71.976
 32
0.0
 13
128.024
 23
78.024
 33
0.0
  0
SOLID
  5
19F
330
17
100
AcDbEntity
  8
0
100
AcDbTrace
 10
121.722
 20
81.722
 30
0.0
 11
121.722
 21
88.278
 31
0.0
 12
128.278
 22
81.722
 32
0.0
 13
128.278
 23
88.278
 33
0.0
  0
SOLID
  5
1A0
330
17
100
AcDbEntity
  8
0
100
AcDbTrace
 10
121.722
 20
91.722
 30
0.0
 11
121.722
 21
98.278
 31
0.0
 12
128.278
 22
91.722
 32
0.0
 13
128.278
 23
98.278
 33
0.0
  0
SOLID
  5
1A1
330
17
100
AcDbEntity
  8
0
100
AcDbTrace
 10
121.595
 20
101.595
 30
0.0
 11
121.595
 21
108.405
 31
0.0
 12
128.405
 22
101.595
 32
0.0
 13
128.405
 23
108.405
 33
0.0
  0
SOLID
  5
1A2
330
17
100
AcDbEntity
  8
0
100
AcDbTrace
 10
121.595
 20
111.595
 30
0.0
 11
121.595
 21
118.405
 31
0.0
 12
128.405
 22
111.595
 32
0.0
 13
128.405
 23
118.405
 33
0.0
  0
SOLID
  5
1A3
330
17
100
AcDbEntity
  8
0
100
AcDbTrace
 10
121.595
 20
121.595
 30
0.0
 11
121.595
 21
128.405
 31
0.0
 12
128.405
 22
121.595
 32
0.0
 13
128.405
 23
128.405
 33
0.0
  0
SOLID
  5
1A4
330
17
100
AcDbEntity
  8
0
100
AcDbTrace
 10
121.468
 20
131.468
 30
0.0
 11
121.468
 21
138.532
 31
0.0
 12
128.532
 22
131.468
 32
0.0
 13
128.532
 23
138.532
 33
0.0
  0
SOLID
  5
1A5
330
17
100
AcDbEntity
  8
0
100
AcDbTrace
 10
121.468
 20
141.468
 30
0.0
 11
121.468
 21
148.532
 31
0.0
 12
128.532
 22
141.468
 32
0.0
 13
128.532
 23
148.532
 33
0.0
  0
SOLID
  5
1A6
330
17
100
AcDbEntity
  8
0
100
AcDbTrace
 10
121.468
 20
151.468
 30
0.0
 11
121.468
 21
158.532
 31
0.0
 12
128.532
 22
151.468
 32
0.0
 13
128.532
 23
158.532
 33
0.0
  0
SOLID
  5
1A7
330
17
100
AcDbEntity
  8
0
100
AcDbTrace
 10
121.468
 20
161.468
 30
0.0
 11
121.468
 21
168.532
 31
0.0
 12
128.532
 22
161.468
 32
0.0
 13
128.532
 23
168.532
 33
0.0
  0
SOLID
  5
1A8
330
17
100
AcDbEntity
  8
0
100
AcDbTrace
 10
121.595
 20
171.595
 30
0.0
 11
121.595
 21
178.405
 31
0.0
 12
128.405
 22
171.595
 32
0.0
 13
128.405
 23
178.405
 33
0.0
  0
SOLID
  5
1A9
330
17
100
AcDbEntity
  8
0
100
AcDbTrace
 10
121.595
 20
181.595
 30
0.0
 11
121.595
 21
188.405
 31
0.0
 12
128.405
 22
181.595
 32
0.0
 13
128.405
 23
188.405
 33
0.0
  0
SOLID
  5
1AA
330
17
100
AcDbEntity
  8
0
100
AcDbTrace
 10
121.595
 20
191.595
 30
0.0
 11
121.595
 21
198.405
 31
0.0
 12
128.405
 22
191.595
 32
0.0
 13
128.405
 23
198.405
 33
0.0
  0
SOLID
  5
1AB
330
17
100
AcDbEntity
  8
0
100
AcDbTrace
 10
121.722
 20
201.722
 30
0.0
 11
121.722
 21
208.278
 31
0.0
 12
128.278
 22
201.722
 32
0.0
 13
128.278
 23
208.278
 33
0.0
  0
SOLID
  5
1AC
330
17
100
AcDbEntity
  8
0
100
AcDbTrace
 10
121.722
 20
211.722
 30
0.0
 11
121.722
 21
218.278
 31
0.0
 12
128.278
 22
211.722
 32
0.0
 13
128.278
 23
218.278
 33
0.0
  0
SOLID
  5
1AD
330
17
100
AcDbEntity
  8
0
100
AcDbTrace
 10
121.976
 20
221.976
 30
0.0
 11
121.976
 21
228.024
 31
0.0
 12
128.024
 22
221.976
 32
0.0
 13
128.024
 23
228.024
 33
0.0
  0
SOLID
  5
1AE
330
17
100
AcDbEntity
  8
0
100
AcDbTrace
 10
121.976
 20
231.976
 30
0.0
 11
121.976
 21
238.024
 31
0.0
 12
128.024
 22
231.976
 32
0.0
 13
128.024
 23
238.024
 33
0.0
  0
SOLID
  5
1AF
330
17
100
AcDbEntity
  8
0
100
AcDbTrace
 10
122.23
 20
242.23
 30
0.0
 11
122.23
 21
247.77
 31
0.0
 12
127.77
 22
242.23
 32
0.0
 13
127.77
 23
247.77
 33
0.0
  0
SOLID
  5
1B0
330
17
100
AcDbEntity
  8
0
100
AcDbTrace
 10
123.5
 20
253.5
 30
0.0
 11
123.5
 21
256.5
 31
0.0
 12
126.5
 22
253.5
 32
0.0
 13
126.5
 23
256.5
 33
0.0
  0
SOLID
  5
1B1
330
17
100
AcDbEntity
  8
0
100
AcDbTrace
 10
120.127
 20
260.127
 30
0.0
 11
120.127
 21
269.873
 31
0.0
 12
129.873
 22
260.127
 32
0.0
 13
129.873
 23
269.873
 33
0.0
  0
SOLID
  5
1B2
330
17
100
AcDbEntity
  8
0
100
AcDbTrace
 10
121.214
 20
271.214
 30
0.0
 11
121.214
 21
278.786
 31
0.0
 12
128.786
 22
271.214
 32
0.0
 13
128.786
 23
278.786
 33
0.0
  0
SOLID
  5
1B3
330
17
100
AcDbEntity
  8
0
100
AcDbTrace
 10
121.595
 20
281.595
 30
0.0
 11
121.595
 21
288.405
 31
0.0
 12
128.405
 22
281.595
 32
0.0
 13
128.405
 23
288.405
 33
0.0
  0
SOLID
  5
1B4
330
17
100
AcDbEntity
  8
0
100
AcDbTrace
 10
121.722
 20
291.722
 30
0.0
 11
121.722
 21
298.278
 31
0.0
 12
128.278
 22
291.722
 32
0.0
 13
128.278
 23
298.278
 33
0.0
  0
SOLID
  5
1B5
330
17
100
AcDbEntity
  8
0
100
AcDbTrace
 10
131.722
 20
1.722
 30
0.0
 11
131.722
 21
8.278
 31
0.0
 12
138.278
 22
1.722
 32
0.0
 13
138.278
 23
8.278
 33
0.0
  0
SOLID
  5
1B6
330
17
100
AcDbEntity
  8
0
100
AcDbTrace
 10
131.468
 20
11.468
 30
0.0
 11
131.468
 21
18.532
 31
0.0
 12
138.532
 22
11.468
 32
0.0
 13
138.532
 23
18.532
 33
0.0
  0
SOLID
  5
1B7
330
17
100
AcDbEntity
  8
0
100
AcDbTrace
 10
131.087
 20
21.087
 30
0.0
 11
131.087
 21
28.913
 31
0.0
 12
138.913
 22
21.087
 32
0.0
 13
138.913
 23
28.913
 33
0.0
  0
SOLID
  5
1B8
330
17
100
AcDbEntity
  8
0
100
AcDbTrace
 10
133.5
 20
33.5
 30
0.0
 11
133.5
 21
36.5
 31
0.0
 12
136.5
 22
33.5
 32
0.0
 13
136.5
 23
36.5
 33
0.0
  0
SOLID
  5
1B9
330
17
100
AcDbEntity
  8
0
100
AcDbTrace
 10
132.865
 20
42.865
 30
0.0
 11
132.865
 21
47.135
 31
0.0
 12
137.135
 22
42.865
 32
0.0
 13
137.135
 23
47.135
 33
0.0
  0
SOLID
  5
1BA
330
17
100
AcDbEntity
  8
0
100
AcDbTrace
 10
132.23
 20
52.23
 30
0.0
 11
132.23
 21
57.77
 31
0.0
 12
137.77
 22
52.23
 32
0.0
 13
137.77
 23
57.77
 33
0.0
  0
SOLID
  5
1BB
330
17
100
AcDbEntity
  8
0
100
AcDbTrace
 10
131.976
 20
61.976
 30
0.0
 11
131.976
 21
68.024
 31
0.0
 12
138.024
 22
61.976
 32
0.0
 13
138.024
 23
68.024
 33
0.0
  0
SOLID
  5
1BC
330
17
100
AcDbEntity
  8
0
100
AcDbTrace
 10
131.976
 20
71.976
 30
0.0
 11
131.976
 21
78.024
 31
0.0
 12
138.024
 22
71.976
 32
0.0
 13
138.024
 23
78.024
 33
0.0
  0
SOLID
  5
1BD
330
17
100
AcDbEntity
  8
0
100
AcDbTrace
 10
131.722
 20
81.722
 30
0.0
 11
131.722
 21
88.278
 31
0.0
 12
138.278
 22
81.722
 32
0.0
 13
138.278
 23
88.278
 33
0.0
  0
SOLID
  5
1BE
330
17
100
AcDbEntity
  8
0
100
AcDbTrace
 10
131.722
 20
91.722
 30
0.0
 11
131.722
 21
98.278
 31
0.0
 12
138.278
 22
91.722
 32
0.0
 13
138.278
 23
98.278
 33
0.0
  0
SOLID
  5
1BF
330
17
100
AcDbEntity
  8
0
100
AcDbTrace
 10
131.595
 20
101.595
 30
0.0
 11
131.595
 21
108.405
 31
0.0
 12
138.405
 22
101.595
 32
0.0
 13
138.405
 23
108.405
 33
0.0
  0
SOLID
  5
1C0
330
17
100
AcDbEntity
  8
0
100
AcDbTrace
 10
131.595
 20
111.595
 30
0.0
 11
131.595
 21
118.405
 31
0.0
 12
138.405
 22
111.595
 32
0.0
 13
138.405
 23
118.405
 33
0.0
  0
SOLID
  5
1C1
330
17
100
AcDbEntity
  8
0
100
AcDbTrace
 10
131.468
 20
121.468
 30
0.0
 11
131.468
 21
128.532
 31
0.0
 12
138.532
 22
121.468
 32
0.0
 13
138.532
 23
128.532
 33
0.0
  0
SOLID
  5
1C2
330
17
100
AcDbEntity
  8
0
100
AcDbTrace
 10
131.468
 20
131.468
 30
0.0
 11
131.468
 21
138.532
 31
0.0
 12
138.532
 22
131.468
 32
0.0
 13
138.532
 23
138.532
 33
0.0
  0
SOLID
  5
1C3
330
17
100
AcDbEntity
  8
0
100
AcDbTrace
 10
131.468
 20
141.468
 30
0.0
 11
131.468
 21
148.532
 31
0.0
 12
138.532
 22
141.468
 32
0.0
 13
138.532
 23
148.532
 33
0.0
  0
SOLID
  5
1C4
330
17
100
AcDbEntity
  8
0
100
AcDbTrace
 10
131.468
 20
151.468
 30
0.0
 11
131.468
 21
158.532
 31
0.0
 12
138.532
 22
151.468
 32
0.0
 13
138.532
 23
158.532
 33
0.0
  0
SOLID
  5
1C5
330
17
100
AcDbEntity
  8
0
100
AcDbTrace
 10
131.468
 20
161.468
 30
0.0
 11
131.468
 21
168.532
 31
0.0
 12
138.532
 22
161.468
 32
0.0
 13
138.532
 23
168.532
 33
0.0
  0
SOLID
  5
1C6
330
17
100
AcDbEntity
  8
0
100
AcDbTrace
 10
131.468
 20
171.468
 30
0.0
 11
131.468
 21
178.532
 31
0.0
 12
138.532
 22
171.468
 32
0.0
 13
138.532
 23
178.532
 33
0.0
  0
SOLID
  5
1C7
330
17
100
AcDbEntity
  8
0
100
AcDbTrace
 10
131.595
 20
181.595
 30
0.0
 11
131.595
 21
188.405
 31
0.0
 12
138.405
 22
181.595
 32
0.0
 13
138.405
 23
188.405
 33
0.0
  0
SOLID
  5
1C8
330
17
100
AcDbEntity
  8
0
100
AcDbTrace
 10
131.595
 20
191.595
 30
0.0
 11
131.595
 21
198.405
 31
0.0
 12
138.405
 22
191.595
 32
0.0
 13
138.405
 23
198.405
 33
0.0
  0
SOLID
  5
1C9
330
17
100
AcDbEntity
  8
0
100
AcDbTrace
 10
131.722
 20
201.722
 30
0.0
 11
131.722
 21
208.278
 31
0.0
 12
138.278
 22
201.722
 32
0.0
 13
138.278
 23
208.278
 33
0.0
  0
SOLID
  5
1CA
330
17
100
AcDbEntity
  8
0
100
AcDbTrace
 10
131.722
 20
211.722
 30
0.0
 11
131.722
 21
218.278
 31
0.0
 12
138.278
 22
211.722
 32
0.0
 13
138.278
 23
218.278
 33
0.0
  0
SOLID
  5
1CB
330
17
100
AcDbEntity
  8
0
100
AcDbTrace
 10
131.976
 20
221.976
 30
0.0
 11
131.976
 21
228.024
 31
0.0
 12
138.024
 22
221.976
 32
0.0
 13
138.024
 23
228.024
 33
0.0
  0
SOLID
  5
1CC
330
17
100
AcDbEntity
  8
0
100
AcDbTrace
 10
131.976
 20
231.976
 30
0.0
 11
131.976
 21
238.024
 31
0.0
 12
138.024
 22
231.976
 32
0.0
 13
138.024
 23
238.024
 33
0.0
  0
SOLID
  5
1CD
330
17
100
AcDbEntity
  8
0
100
AcDbTrace
 10
132.23
 20
242.23
 30
0.0
 11
132.23
 21
247.77
 31
0.0
 12
137.77
 22
242.23
 32
0.0
 13
137.77
 23
247.77
 33
0.0
  0
SOLID
  5
1CE
330
17
100
AcDbEntity
  8
0
100
AcDbTrace
 10
132.865
 20
252.865
 30
0.0
 11
132.865
 21
257.135
 31
0.0
 12
137.135
 22
252.865
 32
0.0
 13
137.135
 23
257.135
 33
0.0
  0
SOLID
  5
1CF
330
17
100
AcDbEntity
  8
0
100
AcDbTrace
 10
133.5
 20
263.5
 30
0.0
 11
133.5
 21
266.5
 31
0.0
 12
136.5
 22
263.5
 32
0.0
 13
136.5
 23
266.5
 33
0.0
  0
SOLID
  5
1D0
330
17
100
AcDbEntity
  8
0
100
AcDbTrace
 10
131.087
 20
271.087
 30
0.0
 11
131.087
 21
278.913
 31
0.0
 12
138.913
 22
271.087
 32
0.0
 13
138.913
 23
278.913
 33
0.0
  0
SOLID
  5
1D1
330
17
100
AcDbEntity
  8
0
100
AcDbTrace
 10
131.468
 20
281.468
 30
0.0
 11
131.468
 21
288.532
 31
0.0
 12
138.532
 22
281.468
 32
0.0
 13
138.532
 23
288.532
 33
0.0
  0
SOLID
  5
1D2
330
17
100
AcDbEntity
  8
0
100
AcDbTrace
 10
131.722
 20
291.722
 30
0.0
 11
131.722
 21
298.278
 31
0.0
 12
138.278
 22
291.722
 32
0.0
 13
138.278
 23
298.278
 33
0.0
  0
SOLID
  5
1D3
330
17
100
AcDbEntity
  8
0
100
AcDbTrace
 10
141.595
 20
1.5950000000000002
 30
0.0
 11
141.595
 21
8.405
 31
0.0
 12
148.405
 22
1.5950000000000002
 32
0.0
 13
148.405
 23
8.405
 33
0.0
  0
SOLID
  5
1D4
330
17
100
AcDbEntity
  8
0
100
AcDbTrace
 10
141.468
 20
11.468
 30
0.0
 11
141.468
 21
18.532
 31
0.0
 12
148.532
 22
11.468
 32
0.0
 13
148.532
 23
18.532
 33
0.0
  0
SOLID
  5
1D5
330
17
100
AcDbEntity
  8
0
100
AcDbTrace
 10
140.96
 20
20.96
 30
0.0
 11
140.96
 21
29.04
 31
0.0
 12
149.04
 22
20.96
 32
0.0
 13
149.04
 23
29.04
 33
0.0
  0
SOLID
  5
1D6
330
17
100
AcDbEntity
  8
0
100
AcDbTrace
 10
143.5
 20
33.5
 30
0.0
 11
143.5
 21
36.5
 31
0.0
 12
146.5
 22
33.5
 32
0.0
 13
146.5
 23
36.5
 33
0.0
  0
SOLID
  5
1D7
330
17
100
AcDbEntity
  8
0
100
AcDbTrace
 10
142.611
 20
42.611
 30
0.0
 11
142.611
 21
47.389
 31
0.0
 12
147.389
 22
42.611
 32
0.0
 13
147.389
 23
47.389
 33
0.0
  0
SOLID
  5
1D8
330
17
100
AcDbEntity
  8
0
100
AcDbTrace
 10
142.103
 20
52.103
 30
0.0
 11
142.103
 21
57.897
 31
0.0
 12
147.897
 22
52.103
 32
0.0
 13
147.897
 23
57.897
 33
0.0
  0
SOLID
  5
1D9
330
17
100
AcDbEntity
  8
0
100
AcDbTrace
 10
141.976
 20
61.976
 30
0.0
 11
141.976
 21
68.024
 31
0.0
 12
148.024
 22
61.976
 32
0.0
 13
148.024
 23
68.024
 33
0.0
  0
SOLID
  5
1DA
330
17
100
AcDbEntity
  8
0
100
AcDbTrace
 10
141.722
 20
71.722
 30
0.0
 11
141.722
 21
78.278
 31
0.0
 12
148.278
 22
71.722
 32
0.0
 13
148.278
 23
78.278
 33
0.0
  0
SOLID
  5
1DB
330
17
100
AcDbEntity
  8
0
100
AcDbTrace
 10
141.722
 20
81.722
 30
0.0
 11
141.722
 21
88.278
 31
0.0
 12
148.278
 22
81.722
 32
0.0
 13
148.278
 23
88.278
 33
0.0
  0
SOLID
  5
1DC
330
17
100
AcDbEntity
  8
0
100
AcDbTrace
 10
141.722
 20
91.722
 30
0.0
 11
141.722
 21
98.278
 31
0.0
 12
148.278
 22
91.722
 32
0.0
 13
148.278
 23
98.278
 33
0.0
  0
SOLID
  5
1DD
330
17
100
AcDbEntity
  8
0
100
AcDbTrace
 10
141.595
 20
101.595
 30
0.0
 11
141.595
 21
108.405
 31
0.0
 12
148.405
 22
101.595
 32
0.0
 13
148.405
 23
108.405
 33
0.0
  0
SOLID
  5
1DE
330
17
100
AcDbEntity
  8
0
100
AcDbTrace
 10
141.595
 20
111.595
 30
0.0
 11
141.595
 21
118.405
 31
0.0
 12
148.405
 22
111.595
 32
0.0
 13
148.405
 23
118.405
 33
0.0
  0
SOLID
  5
1DF
330
17
100
AcDbEntity
  8
0
100
AcDbTrace
 10
141.468
 20
121.468
 30
0.0
 11
141.468
 21
128.532
 31
0.0
 12
148.532
 22
121.468
 32
0.0
 13
148.532
 23
128.532
 33
0.0
  0
SOLID
  5
1E0
330
17
100
AcDbEntity
  8
0
100
AcDbTrace
 10
141.468
 20
131.468
 30
0.0
 11
141.468
 21
138.532
 31
0.0
 12
148.532
 22
131.468
 32
0.0
 13
148.532
 23
138.532
 33
0.0
  0
SOLID
  5
1E1
330
17
100
AcDbEntity
  8
0
100
AcDbTrace
 10
141.468
 20
141.468
 30
0.0
 11
141.468
 21
148.532
 31
0.0
 12
148.532
 22
141.468
 32
0.0
 13
148.532
 23
148.532
 33
0.0
  0
SOLID
  5
1E2
330
17
100
AcDbEntity
  8
0
100
AcDbTrace
 10
141.468
 20
151.468
 30
0.0
 11
141.468
 21
158.532
 31
0.0
 12
148.532
 22
151.468
 32
0.0
 13
148.532
 23
158.532
 33
0.0
  0
SOLID
  5
1E3
330
17
100
AcDbEntity
  8
0
100
AcDbTrace
 10
141.468
 20
161.468
 30
0.0
 11
141.468
 21
168.532
 31
0.0
 12
148.532
 22
161.468
 32
0.0
 13
148.532
 23
168.532
 33
0.0
  0
SOLID
  5
1E4
330
17
100
AcDbEntity
  8
0
100
AcDbTrace
 10
141.468
 20
171.468
 30
0.0
 11
141.468
 21
178.532
 31
0.0
 12
148.532
 22
171.468
 32
0.0
 13
148.532
 23
178.532
 33
0.0
  0
SOLID
  5
1E5
330
17
100
AcDbEntity
  8
0
100
AcDbTrace
 10
141.595
 20
181.595
 30
0.0
 11
141.595
 21
188.405
 31
0.0
 12
148.405
 22
181.595
 32
0.0
 13
148.405
 23
188.405
 33
0.0
  0
SOLID
  5
1E6
330
17
100
AcDbEntity
  8
0
100
AcDbTrace
 10
141.595
 20
191.595
 30
0.0
 11
141.595
 21
198.405
 31
0.0
 12
148.405
 22
191.595
 32
0.0
 13
148.405
 23
198.405
 33
0.0
  0
SOLID
  5
1E7
330
17
100
AcDbEntity
  8
0
100
AcDbTrace
 10
141.722
 20
201.722
 30
0.0
 11
141.722
 21
208.278
 31
0.0
 12
148.278
 22
201.722
 32
0.0
 13
148.278
 23
208.278
 33
0.0
  0
SOLID
  5
1E8
330
17
100
AcDbEntity
  8
0
100
AcDbTrace
 10
141.722
 20
211.722
 30
0.0
 11
141.722
 21
218.278
 31
0.0
 12
148.278
 22
211.722
 32
0.0
 13
148.278
 23
218.278
 33
0.0
  0
SOLID
  5
1E9
330
17
100
AcDbEntity
  8
0
100
AcDbTrace
 10
141.722
 20
221.722
 30
0.0
 11
141.722
 21
228.278
 31
0.0
 12
148.278
 22
221.722
 32
0.0
 13
148.278
 23
228.278
 33
0.0
  0
SOLID
  5
1EA
330
17
100
AcDbEntity
  8
0
100
AcDbTrace
 10
141.976
 20
231.976
 30
0.0
 11
141.976
 21
238.024
 31
0.0
 12
148.024
 22
231.976
 32
0.0
 13
148.024
 23
238.024
 33
0.0
  0
SOLID
  5
1EB
330
17
100
AcDbEntity
  8
0
100
AcDbTrace
 10
142.103
 20
242.103
 30
0.0
 11
142.103
 21
247.897
 31
0.0
 12
147.897
 22
242.103
 32
0.0
 13
147.897
 23
247.897
 33
0.0
  0
SOLID
  5
1EC
330
17
100
AcDbEntity
  8
0
100
AcDbTrace
 10
142.611
 20
252.611
 30
0.0
 11
142.611
 21
257.389
 31
0.0
 12
147.389
 22
252.611
 32
0.0
 13
147.389
 23
257.389
 33
0.0
  0
SOLID
  5
1ED
330
17
100
AcDbEntity
  8
0
100
AcDbTrace
 10
143.5
 20
263.5
 30
0.0
 11
143.5
 21
266.5
 31
0.0
 12
146.5
 22
263.5
 32
0.0
 13
146.5
 23
266.5
 33
0.0
  0
SOLID
  5
1EE
330
17
100
AcDbEntity
  8
0
100
AcDbTrace
 10
140.96
 20
270.96
 30
0.0
 11
140.96
 21
279.04
 31
0.0
 12
149.04
 22
270.96
 32
0.0
 13
149.04
 23
279.04
 33
0.0
  0
SOLID
  5
1EF
330
17
100
AcDbEntity
  8
0
100
AcDbTrace
 10
141.468
 20
281.468
 30
0.0
 11
141.468
 21
288.532
 31
0.0
 12
148.532
 22
281.468
 32
0.0
 13
148.532
 23
288.532
 33
0.0
  0
SOLID
  5
1F0
330
17
100
AcDbEntity
  8
0
100
AcDbTrace
 10
141.595
 20
291.595
 30
0.0
 11
141.595
 21
298.405
 31
0.0
 12
148.405
 22
291.595
 32
0.0
 13
148.405
 23
298.405
 33
0.0
  0
SOLID
  5
1F1
330
17
100
AcDbEntity
  8
0
100
AcDbTrace
 10
151.595
 20
1.5950000000000002
 30
0.0
 11
151.595
 21
8.405
 31
0.0
 12
158.405
 22
1.5950000000000002
 32
0.0
 13
158.405
 23
8.405
 33
0.0
  0
SOLID
  5
1F2
330
17
100
AcDbEntity
  8
0
100
AcDbTrace
 10
151.468
 20
11.468
 30
0.0
 11
151.468
 21
18.532
 31
0.0
 12
158.532
 22
11.468
 32
0.0
 13
158.532
 23
18.532
 33
0.0
  0
SOLID
  5
1F3
330
17
100
AcDbEntity
  8
0
100
AcDbTrace
 10
150.833
 20
20.833
 30
0.0
 11
150.833
 21
29.167
 31
0.0
 12
159.167
 22
20.833
 32
0.0
 13
159.167
 23
29.167
 33
0.0
  0
SOLID
  5
1F4
330
17
100
AcDbEntity
  8
0
100
AcDbTrace
 10
153.5
 20
33.5
 30
0.0
 11
153.5
 21
36.5
 31
0.0
 12
156.5
 22
33.5
 32
0.0
 13
156.5
 23
36.5
 33
0.0
  0
SOLID
  5
1F5
330
17
100
AcDbEntity
  8
0
100
AcDbTrace
 10
152.611
 20
42.611
 30
0.0
 11
152.611
 21
47.389
 31
0.0
 12
157.389
 22
42.611
 32
0.0
 13
157.389
 23
47.389
 33
0.0
  0
SOLID
  5
1F6
330
17
100
AcDbEntity
  8
0
100
AcDbTrace
 10
152.103
 20
52.103
 30
0.0
 11
152.103
 21
57.897
 31
0.0
 12
157.897
 22
52.103
 32
0.0
 13
157.897
 23
57.897
 33
0.0
  0
SOLID
  5
1F7
330
17
100
AcDbEntity
  8
0
100
AcDbTrace
 10
151.976
 20
61.976
 30
0.0
 11
151.976
 21
68.024
 31
0.0
 12
158.024
 22
61.976
 32
0.0
 13
158.024
 23
68.024
 33
0.0
  0
SOLID
  5
1F8
330
17
100
AcDbEntity
  8
0
100
AcDbTrace
 10
151.722
 20
71.722
 30
0.0
 11
151.722
 21
78.278
 31
0.0
 12
158.278
 22
71.722
 32
0.0
 13
158.278
 23
78.278
 33
0.0
  0
SOLID
  5
1F9
330
17
100
AcDbEntity
  8
0
100
AcDbTrace
 10
151.722
 20
81.722
 30
0.0
 11
151.722
 21
88.278
 31
0.0
 12
158.278
 22
81.722
 32
0.0
 13
158.278
 23
88.278
 33
0.0
  0
SOLID
  5
1FA
330
17
100
AcDbEntity
  8
0
100
AcDbTrace
 10
151.722
 20
91.722
 30
0.0
 11
151.722
 21
98.278
 31
0.0
 12
158.278
 22
91.722
 32
0.0
 13
158.278
 23
98.278
 33
0.0
  0
SOLID
  5
1FB
330
17
100
AcDbEntity
  8
0
100
AcDbTrace
 10
151.595
 20
101.595
 30
0.0
 11
151.595
 21
108.405
 31
0.0
 12
158.405
 22
101.595
 32
0.0
 13
158.405
 23
108.405
 33
0.0
  0
SOLID
  5
1FC
330
17
100
AcDbEntity
  8
0
100
AcDbTrace
 10
151.595
 20
111.595
 30
0.0
 11
151.595
 21
118.405
 31
0.0
 12
158.405
 22
111.595
 32
0.0
 13
158.405
 23
118.405
 33
0.0
  0
SOLID
  5
1FD
330
17
100
AcDbEntity
  8
0
100
AcDbTrace
 10
151.468
 20
121.468
 30
0.0
 11
151.468
 21
128.532
 31
0.0
 12
158.532
 22
121.468
 32
0.0
 13
158.532
 23
128.532
 33
0.0
  0
SOLID
  5
1FE
330
17
100
AcDbEntity
  8
0
100
AcDbTrace
 10
151.468
 20
131.468
 30
0.0
 11
151.468
 21
138.532
 31
0.0
 12
158.532
 22
131.468
 32
0.0
 13
158.532
 23
138.532
 33
0.0
  0
SOLID
  5
1FF
330
17
100
AcDbEntity
  8
0
100
AcDbTrace
 10
151.468
 20
141.468
 30
0.0
 11
151.468
 21
148.532
 31
0.0
 12
158.532
 22
141.468
 32
0.0
 13
158.532
 23
148.532
 33
0.0
  0
SOLID
  5
200
330
17
100
AcDbEntity
  8
0
100
AcDbTrace
 10
151.468
 20
151.468
 30
0.0
 11
151.468
 21
158.532
 31
0.0
 12
158.532
 22
151.468
 32
0.0
 13
158.532
 23
158.532
 33
0.0
  0
SOLID
  5
201
330
17
100
AcDbEntity
  8
0
100
AcDbTrace
 10
151.468
 20
161.468
 30
0.0
 11
151.468
 21
168.532
 31
0.0
 12
158.532
 22
161.468
 32
0.0
 13
158.532
 23
168.532
 33
0.0
  0
SOLID
  5
202
330
17
100
AcDbEntity
  8
0
100
AcDbTrace
 10
151.468
 20
171.468
 30
0.0
 11
151.468
 21
178.532
 31
0.0
 12
158.532
 22
171.468
 32
0.0
 13
158.532
 23
178.532
 33
0.0
  0
SOLID
  5
203
330
17
100
AcDbEntity
  8
0
100
AcDbTrace
 10
151.595
 20
181.595
 30
0.0
 11
151.595
 21
188.405
 31
0.0
 12
158.405
 22
181.595
 32
0.0
 13
158.405
 23
188.405
 33
0.0
  0
SOLID
  5
204
330
17
100
AcDbEntity
  8
0
100
AcDbTrace
 10
151.595
 20
191.595
 30
0.0
 11
151.595
 21
198.405
 31
0.0
 12
158.405
 22
191.595
 32
0.0
 13
158.405
 23
198.405
 33
0.0
  0
SOLID
  5
205
330
17
100
AcDbEntity
  8
0
100
AcDbTrace
 10
151.722
 20
201.722
 30
0.0
 11
151.722
 21
208.278
 31
0.0
 12
158.278
 22
201.722
 32
0.0
 13
158.278
 23
208.278
 33
0.0
  0
SOLID
  5
206
330
17
100
AcDbEntity
  8
0
100
AcDbTrace
 10
151.722
 20
211.722
 30
0.0
 11
151.722
 21
218.278
 31
0.0
 12
158.278
 22
211.722
 32
0.0
 13
158.278
 23
218.278
 33
0.0
  0
SOLID
  5
207
330
17
100
AcDbEntity
  8
0
100
AcDbTrace
 10
151.722
 20
221.722
 30
0.0
 11
151.722
 21
228.278
 31
0.0
 12
158.278
 22
221.722
 32
0.0
 13
158.278
 23
228.278
 33
0.0
  0
SOLID
  5
208
330
17
100
AcDbEntity
  8
0
100
AcDbTrace
 10
151.976
 20
231.976
 30
0.0
 11
151.976
 21
238.024
 31
0.0
 12
158.024
 22
231.976
 32
0.0
 13
158.024
 23
238.024
 33
0.0
  0
SOLID
  5
209
330
17
100
AcDbEntity
  8
0
100
AcDbTrace
 10
152.103
 20
242.103
 30
0.0
 11
152.103
 21
247.897
 31
0.0
 12
157.897
 22
242.103
 32
0.0
 13
157.897
 23
247.897
 33
0.0
  0
SOLID
  5
20A
330
17
100
AcDbEntity
  8
0
100
AcDbTrace
 10
152.611
 20
252.611
 30
0.0
 11
152.611
 21
257.389
 31
0.0
 12
157.389
 22
252.611
 32
0.0
 13
157.389
 23
257.389
 33
0.0
  0
SOLID
  5
20B
330
17
100
AcDbEntity
  8
0
100
AcDbTrace
 10
153.5
 20
263.5
 30
0.0
 11
153.5
 21
266.5
 31
0.0
 12
156.5
 22
263.5
 32
0.0
 13
156.5
 23
266.5
 33
0.0
  0
SOLID
  5
20C
330
17
100
AcDbEntity
  8
0
100
AcDbTrace
 10
150.833
 20
270.833
 30
0.0
 11
150.833
 21
279.167
 31
0.0
 12
159.167
 22
270.833
 32
0.0
 13
159.167
 23
279.167
 33
0.0
  0
SOLID
  5
20D
330
17
100
AcDbEntity
  8
0
100
AcDbTrace
 10
151.468
 20
281.468
 30
0.0
 11
151.468
 21
288.532
 31
0.0
 12
158.532
 22
281.468
 32
0.0
 13
158.532
 23
288.532
 33
0.0
  0
SOLID
  5
20E
330
17
100
AcDbEntity
  8
0
100
AcDbTrace
 10
151.595
 20
291.595
 30
0.0
 11
151.595
 21
298.405
 31
0.0
 12
158.405
 22
291.595
 32
0.0
 13
158.405
 23
298.405
 33
0.0
  0
SOLID
  5
20F
330
17
100
AcDbEntity
  8
0
100
AcDbTrace
 10
161.595
 20
1.5950000000000002
 30
0.0
 11
161.595
 21
8.405
 31
0.0
 12
168.405
 22
1.5950000000000002
 32
0.0
 13
168.405
 23
8.405
 33
0.0
  0
SOLID
  5
210
330
17
100
AcDbEntity
  8
0
100
AcDbTrace
 10
161.341
 20
11.341000000000001
 30
0.0
 11
161.341
 21
18.659
 31
0.0
 12
168.659
 22
11.341000000000001
 32
0.0
 13
168.659
 23
18.659
 33
0.0
  0
SOLID
  5
211
330
17
100
AcDbEntity
  8
0
100
AcDbTrace
 10
160.706
 20
20.706
 30
0.0
 11
160.706
 21
29.294
 31
0.0
 12
169.294
 22
20.706
 32
0.0
 13
169.294
 23
29.294
 33
0.0
  0
SOLID
  5
212
330
17
100
AcDbEntity
  8
0
100
AcDbTrace
 10
163.5
 20
33.5
 30
0.0
 11
163.5
 21
36.5
 31
0.0
 12
166.5
 22
33.5
 32
0.0
 13
166.5
 23
36.5
 33
0.0
  0
SOLID
  5
213
330
17
100
AcDbEntity
  8
0
100
AcDbTrace
 10
162.611
 20
42.611
 30
0.0
 11
162.611
 21
47.389
 31
0.0
 12
167.389
 22
42.611
 32
0.0
 13
167.389
 23
47.389
 33
0.0
  0
SOLID
  5
214
330
17
100
AcDbEntity
  8
0
100
AcDbTrace
 10
162.103
 20
52.103
 30
0.0
 11
162.103
 21
57.897
 31
0.0
 12
167.897
 22
52.103
 32
0.0
 13
167.897
 23
57.897
 33
0.0
  0
SOLID
  5
215
330
17
100
AcDbEntity
  8
0
100
AcDbTrace
 10
161.976
 20
61.976
 30
0.0
 11
161.976
 21
68.024
 31
0.0
 12
168.024
 22
61.976
 32
0.0
 13
168.024
 23
68.024
 33
0.0
  0
SOLID
  5
216
330
17
100
AcDbEntity
  8
0
100
AcDbTrace
 10
161.722
 20
71.722
 30
0.0
 11
161.722
 21
78.278
 31
0.0
 12
168.278
 22
71.722
 32
0.0
 13
168.278
 23
78.278
 33
0.0
  0
SOLID
  5
217
330
17
100
AcDbEntity
  8
0
100
AcDbTrace
 10
161.722
 20
81.722
 30
0.0
 11
161.722
 21
88.278
 31
0.0
 12
168.278
 22
81.722
 32
0.0
 13
168.278
 23
88.278
 33
0.0
  0
SOLID
  5
218
330
17
100
AcDbEntity
  8
0
100
AcDbTrace
 10
161.722
 20
91.722
 30
0.0
 11
161.722
 21
98.278
 31
0.0
 12
168.278
 22
91.722
 32
0.0
 13
168.278
 23
98.278
 33
0.0
  0
SOLID
  5
219
330
17
100
AcDbEntity
  8
0
100
AcDbTrace
 10
161.595
 20
101.595
 30
0.0
 11
161.595
 21
108.405
 31
0.0
 12
168.405
 22
101.595
 32
0.0
 13
168.405
 23
108.405
 33
0.0
  0
SOLID
  5
21A
330
17
100
AcDbEntity
  8
0
100
AcDbTrace
 10
161.595
 20
111.595
 30
0.0
 11
161.595
 21
118.405
 31
0.0
 12
168.405
 22
111.595
 32
0.0
 13
168.405
 23
118.405
 33
0.0
  0
SOLID
  5
21B
330
17
100
AcDbEntity
  8
0
100
AcDbTrace
 10
161.468
 20
121.468
 30
0.0
 11
161.468
 21
128.532
 31
0.0
 12
168.532
 22
121.468
 32
0.0
 13
168.532
 23
128.532
 33
0.0
  0
SOLID
  5
21C
330
17
100
AcDbEntity
  8
0
100
AcDbTrace
 10
161.468
 20
131.468
 30
0.0
 11
161.468
 21
138.532
 31
0.0
 12
168.532
 22
131.468
 32
0.0
 13
168.532
 23
138.532
 33
0.0
  0
SOLID
  5
21D
330
17
100
AcDbEntity
  8
0
100
AcDbTrace
 10
161.468
 20
141.468
 30
0.0
 11
161.468
 21
148.532
 31
0.0
 12
168.532
 22
141.468
 32
0.0
 13
168.532
 23
148.532
 33
0.0
  0
SOLID
  5
21E
330
17
100
AcDbEntity
  8
0
100
AcDbTrace
 10
161.468
 20
151.468
 30
0.0
 11
161.468
 21
158.532
 31
0.0
 12
168.532
 22
151.468
 32
0.0
 13
168.532
 23
158.532
 33
0.0
  0
SOLID
  5
21F
330
17
100
AcDbEntity
  8
0
100
AcDbTrace
 10
161.468
 20
161.468
 30
0.0
 11
161.468
 21
168.532
 31
0.0
 12
168.532
 22
161.468
 32
0.0
 13
168.532
 23
168.532
 33
0.0
  0
SOLID
  5
220
330
17
100
AcDbEntity
  8
0
100
AcDbTrace
 10
161.468
 20
171.468
 30
0.0
 11
161.468
 21
178.532
 31
0.0
 12
168.532
 22
171.468
 32
0.0
 13
168.532
 23
178.532
 33
0.0
  0
SOLID
  5
221
330
17
100
AcDbEntity
  8
0
100
AcDbTrace
 10
161.595
 20
181.595
 30
0.0
 11
161.595
 21
188.405
 31
0.0
 12
168.405
 22
181.595
 32
0.0
 13
168.405
 23
188.405
 33
0.0
  0
SOLID
  5
222
330
17
100
AcDbEntity
  8
0
100
AcDbTrace
 10
161.595
 20
191.595
 30
0.0
 11
161.595
 21
198.405
 31
0.0
 12
168.405
 22
191.595
 32
0.0
 13
168.405
 23
198.405
 33
0.0
  0
SOLID
  5
223
330
17
100
AcDbEntity
  8
0
100
AcDbTrace
 10
161.722
 20
201.722
 30
0.0
 11
161.722
 21
208.278
 31
0.0
 12
168.278
 22
201.722
 32
0.0
 13
168.278
 23
208.278
 33
0.0
  0
SOLID
  5
224
330
17
100
AcDbEntity
  8
0
100
AcDbTrace
 10
161.722
 20
211.722
 30
0.0
 11
161.722
 21
218.278
 31
0.0
 12
168.278
 22
211.722
 32
0.0
 13
168.278
 23
218.278
 33
0.0
  0
SOLID
  5
225
330
17
100
AcDbEntity
  8
0
100
AcDbTrace
 10
161.722
 20
221.722
 30
0.0
 11
161.722
 21
228.278
 31
0.0
 12
168.278
 22
221.722
 32
0.0
 13
168.278
 23
228.278
 33
0.0
  0
SOLID
  5
226
330
17
100
AcDbEntity
  8
0
100
AcDbTrace
 10
161.976
 20
231.976
 30
0.0
 11
161.976
 21
238.024
 31
0.0
 12
168.024
 22
231.976
 32
0.0
 13
168.024
 23
238.024
 33
0.0
  0
SOLID
  5
227
330
17
100
AcDbEntity
  8
0
100
AcDbTrace
 10
162.103
 20
242.103
 30
0.0
 11
162.103
 21
247.897
 31
0.0
 12
167.897
 22
242.103
 32
0.0
 13
167.897
 23
247.897
 33
0.0
  0
SOLID
  5
228
330
17
100
AcDbEntity
  8
0
100
AcDbTrace
 10
162.611
 20
252.611
 30
0.0
 11
162.611
 21
257.389
 31
0.0
 12
167.389
 22
252.611
 32
0.0
 13
167.389
 23
257.389
 33
0.0
  0
SOLID
  5
229
330
17
100
AcDbEntity
  8
0
100
AcDbTrace
 10
163.5
 20
263.5
 30
0.0
 11
163.5
 21
266.5
 31
0.0
 12
166.5
 22
263.5
 32
0.0
 13
166.5
 23
266.5
 33
0.0
  0
SOLID
  5
22A
330
17
100
AcDbEntity
  8
0
100
AcDbTrace
 10
160.706
 20
270.706
 30
0.0
 11
160.706
 21
279.294
 31
0.0
 12
169.294
 22
270.706
 32
0.0
 13
169.294
 23
279.294
 33
0.0
  0
SOLID
  5
22B
330
17
100
AcDbEntity
  8
0
100
AcDbTrace
 10
161.341
 20
281.341
 30
0.0
 11
161.341
 21
288.659
 31
0.0
 12
168.659
 22
281.341
 32
0.0
 13
168.659
 23
288.659
 33
0.0
  0
SOLID
  5
22C
330
17
100
AcDbEntity
  8
0
100
AcDbTrace
 10
161.595
 20
291.595
 30
0.0
 11
161.595
 21
298.405
 31
0.0
 12
168.405
 22
291.595
 32
0.0
 13
168.405
 23
298.405
 33
0.0
  0
SOLID
  5
22D
330
17
100
AcDbEntity
  8
0
100
AcDbTrace
 10
171.595
 20
1.5950000000000002
 30
0.0
 11
171.595
 21
8.405
 31
0.0
 12
178.405
 22
1.5950000000000002
 32
0.0
 13
178.405
 23
8.405
 33
0.0
  0
SOLID
  5
22E
330
17
100
AcDbEntity
  8
0
100
AcDbTrace
 10
171.341
 20
11.341000000000001
 30
0.0
 11
171.341
 21
18.659
 31
0.0
 12
178.659
 22
11.341000000000001
 32
0.0
 13
178.659
 23
18.659
 33
0.0
  0
SOLID
  5
22F
330
17
100
AcDbEntity
  8
0
100
AcDbTrace
 10
170.706
 20
20.706
 30
0.0
 11
170.706
 21
29.294
 31
0.0
 12
179.294
 22
20.706
 32
0.0
 13
179.294
 23
29.294
 33
0.0
  0
SOLID
  5
230
330
17
100
AcDbEntity
  8
0
100
AcDbTrace
 10
173.5
 20
33.5
 30
0.0
 11
173.5
 21
36.5
 31
0.0
 12
176.5
 22
33.5
 32
0.0
 13
176.5
 23
36.5
 33
0.0
  0
SOLID
  5
231
330
17
100
AcDbEntity
  8
0
100
AcDbTrace
 10
172.611
 20
42.611
 30
0.0
 11
172.611
 21
47.389
 31
0.0
 12
177.389
 22
42.611
 32
0.0
 13
177.389
 23
47.389
 33
0.0
  0
SOLID
  5
232
330
17
100
AcDbEntity
  8
0
100
AcDbTrace
 10
172.103
 20
52.103
 30
0.0
 11
172.103
 21
57.897
 31
0.0
 12
177.897
 22
52.103
 32
0.0
 13
177.897
 23
57.897
 33
0.0
  0
SOLID
  5
233
330
17
100
AcDbEntity
  8
0
100
AcDbTrace
 10
171.976
 20
61.976
 30
0.0
 11
171.976
 21
68.024
 31
0.0
 12
178.024
 22
61.976
 32
0.0
 13
178.024
 23
68.024
 33
0.0
  0
SOLID
  5
234
330
17
100
AcDbEntity
  8
0
100
AcDbTrace
 10
171.976
 20
71.976
 30
0.0
 11
171.976
 21
78.024
 31
0.0
 12
178.024
 22
71.976
 32
0.0
 13
178.024
 23
78.024
 33
0.0
  0
SOLID
  5
235
330
17
100
AcDbEntity
  8
0
100
AcDbTrace
 10
171.722
 20
81.722
 30
0.0
 11
171.722
 21
88.278
 31
0.0
 12
178.278
 22
81.722
 32
0.0
 13
178.278
 23
88.278
 33
0.0
  0
SOLID
  5
236
330
17
100
AcDbEntity
  8
0
100
AcDbTrace
 10
171.722
 20
91.722
 30
0.0
 11
171.722
 21
98.278
 31
0.0
 12
178.278
 22
91.722
 32
0.0
 13
178.278
 23
98.278
 33
0.0
  0
SOLID
  5
237
330
17
100
AcDbEntity
  8
0
100
AcDbTrace
 10
171.595
 20
101.595
 30
0.0
 11
171.595
 21
108.405
 31
0.0
 12
178.405
 22
101.595
 32
0.0
 13
178.405
 23
108.405
 33
0.0
  0
SOLID
  5
238
330
17
100
AcDbEntity
  8
0
100
AcDbTrace
 10
171.595
 20
111.595
 30
0.0
 11
171.595
 21
118.405
 31
0.0
 12
178.405
 22
111.595
 32
0.0
 13
178.405
 23
118.405
 33
0.0
  0
SOLID
  5
239
330
17
100
AcDbEntity
  8
0
100
AcDbTrace
 10
171.595
 20
121.595
 30
0.0
 11
171.595
 21
128.405
 31
0.0
 12
178.405
 22
121.595
 32
0.0
 13
178.405
 23
128.405
 33
0.0
  0
SOLID
  5
23A
330
17
100
AcDbEntity
  8
0
100
AcDbTrace
 10
171.468
 20
131.468
 30
0.0
 11
171.468
 21
138.532
 31
0.0
 12
178.532
 22
131.468
 32
0.0
 13
178.532
 23
138.532
 33
0.0
  0
SOLID
  5
23B
330
17
100
AcDbEntity
  8
0
100
AcDbTrace
 10
171.468
 20
141.468
 30
0.0
 11
171.468
 21
148.532
 31
0.0
 12
178.532
 22
141.468
 32
0.0
 13
178.532
 23
148.532
 33
0.0
  0
SOLID
  5
23C
330
17
100
AcDbEntity
  8
0
100
AcDbTrace
 10
171.468
 20
151.468
 30
0.0
 11
171.468
 21
158.532
 31
0.0
 12
178.532
 22
151.468
 32
0.0
 13
178.532
 23
158.532
 33
0.0
  0
SOLID
  5
23D
330
17
100
AcDbEntity
  8
0
100
AcDbTrace
 10
171.468
 20
161.468
 30
0.0
 11
171.468
 21
168.532
 31
0.0
 12
178.532
 22
161.468
 32
0.0
 13
178.532
 23
168.532
 33
0.0
  0
SOLID
  5
23E
330
17
100
AcDbEntity
  8
0
100
AcDbTrace
 10
171.595
 20
171.595
 30
0.0
 11
171.595
 21
178.405
 31
0.0
 12
178.405
 22
171.595
 32
0.0
 13
178.405
 23
178.405
 33
0.0
  0
SOLID
  5
23F
330
17
100
AcDbEntity
  8
0
100
AcDbTrace
 10
171.595
 20
181.595
 30
0.0
 11
171.595
 21
188.405
 31
0.0
 12
178.405
 22
181.595
 32
0.0
 13
178.405
 23
188.405
 33
0.0
  0
SOLID
  5
240
330
17
100
AcDbEntity
  8
0
100
AcDbTrace
 10
171.595
 20
191.595
 30
0.0
 11
171.595
 21
198.405
 31
0.0
 12
178.405
 22
191.595
 32
0.0
 13
178.405
 23
198.405
 33
0.0
  0
SOLID
  5
241
330
17
100
AcDbEntity
  8
0
100
AcDbTrace
 10
171.722
 20
201.722
 30
0.0
 11
171.722
 21
208.278
 31
0.0
 12
178.278
 22
201.722
 32
0.0
 13
178.278
 23
208.278
 33
0.0
  0
SOLID
  5
242
330
17
100
AcDbEntity
  8
0
100
AcDbTrace
 10
171.722
 20
211.722
 30
0.0
 11
171.722
 21
218.278
 31
0.0
 12
178.278
 22
211.722
 32
0.0
 13
178.278
 23
218.278
 33
0.0
  0
SOLID
  5
243
330
17
100
AcDbEntity
  8
0
100
AcDbTrace
 10
171.976
 20
221.976
 30
0.0
 11
171.976
 21
228.024
 31
0.0
 12
178.024
 22
221.976
 32
0.0
 13
178.024
 23
228.024
 33
0.0
  0
SOLID
  5
244
330
17
100
AcDbEntity
  8
0
100
AcDbTrace
 10
171.976
 20
231.976
 30
0.0
 11
171.976
 21
238.024
 31
0.0
 12
178.024
 22
231.976
 32
0.0
 13
178.024
 23
238.024
 33
0.0
  0
SOLID
  5
245
330
17
100
AcDbEntity
  8
0
100
AcDbTrace
 10
172.103
 20
242.103
 30
0.0
 11
172.103
 21
247.897
 31
0.0
 12
177.897
 22
242.103
 32
0.0
 13
177.897
 23
247.897
 33
0.0
  0
SOLID
  5
246
330
17
100
AcDbEntity
  8
0
100
AcDbTrace
 10
172.611
 20
252.611
 30
0.0
 11
172.611
 21
257.389
 31
0.0
 12
177.389
 22
252.611
 32
0.0
 13
177.389
 23
257.389
 33
0.0
  0
SOLID
  5
247
330
17
100
AcDbEntity
  8
0
100
AcDbTrace
 10
173.5
 20
263.5
 30
0.0
 11
173.5
 21
266.5
 31
0.0
 12
176.5
 22
263.5
 32
0.0
 13
176.5
 23
266.5
 33
0.0
  0
SOLID
  5
248
330
17
100
AcDbEntity
  8
0
100
AcDbTrace
 10
170.706
 20
270.706
 30
0.0
 11
170.706
 21
279.294
 31
0.0
 12
179.294
 22
270.706
 32
0.0
 13
179.294
 23
279.294
 33
0.0
  0
SOLID
  5
249
330
17
100
AcDbEntity
  8
0
100
AcDbTrace
 10
171.341
 20
281.341
 30
0.0
 11
171.341
 21
288.659
 31
0.0
 12
178.659
 22
281.341
 32
0.0
 13
178.659
 23
288.659
 33
0.0
  0
SOLID
  5
24A
330
17
100
AcDbEntity
  8
0
100
AcDbTrace
 10
171.595
 20
291.595
 30
0.0
 11
171.595
 21
298.405
 31
0.0
 12
178.405
 22
291.595
 32
0.0
 13
178.405
 23
298.405
 33
0.0
  0
SOLID
  5
24B
330
17
100
AcDbEntity
  8
0
100
AcDbTrace
 10
181.595
 20
1.5950000000000002
 30
0.0
 11
181.595
 21
8.405
 31
0.0
 12
188.405
 22
1.5950000000000002
 32
0.0
 13
188.405
 23
8.405
 33
0.0
  0
SOLID
  5
24C
330
17
100
AcDbEntity
  8
0
100
AcDbTrace
 10
181.468
 20
11.468
 30
0.0
 11
181.468
 21
18.532
 31
0.0
 12
188.532
 22
11.468
 32
0.0
 13
188.532
 23
18.532
 33
0.0
  0
SOLID
  5
24D
330
17
100
AcDbEntity
  8
0
100
AcDbTrace
 10
180.833
 20
20.833
 30
0.0
 11
180.833
 21
29.167
 31
0.0
 12
189.167
 22
20.833
 32
0.0
 13
189.167
 23
29.167
 33
0.0
  0
SOLID
  5
24E
330
17
100
AcDbEntity
  8
0
100
AcDbTrace
 10
183.5
 20
33.5
 30
0.0
 11
183.5
 21
36.5
 31
0.0
 12
186.5
 22
33.5
 32
0.0
 13
186.5
 23
36.5
 33
0.0
  0
SOLID
  5
24F
330
17
100
AcDbEntity
  8
0
100
AcDbTrace
 10
182.738
 20
42.738
 30
0.0
 11
182.738
 21
47.262
 31
0.0
 12
187.262
 22
42.738
 32
0.0
 13
187.262
 23
47.262
 33
0.0
  0
SOLID
  5
250
330
17
100
AcDbEntity
  8
0
100
AcDbTrace
 10
182.103
 20
52.103
 30
0.0
 11
182.103
 21
57.897
 31
0.0
 12
187.897
 22
52.103
 32
0.0
 13
187.897
 23
57.897
 33
0.0
  0
SOLID
  5
251
330
17
100
AcDbEntity
  8
0
100
AcDbTrace
 10
181.976
 20
61.976
 30
0.0
 11
181.976
 21
68.024
 31
0.0
 12
188.024
 22
61.976
 32
0.0
 13
188.024
 23
68.024
 33
0.0
  0
SOLID
  5
252
330
17
100
AcDbEntity
  8
0
100
AcDbTrace
 10
181.976
 20
71.976
 30
0.0
 11
181.976
 21
78.024
 31
0.0
 12
188.024
 22
71.976
 32
0.0
 13
188.024
 23
78.024
 33
0.0
  0
SOLID
  5
253
330
17
100
AcDbEntity
  8
0
100
AcDbTrace
 10
181.722
 20
81.722
 30
0.0
 11
181.722
 21
88.278
 31
0.0
 12
188.278
 22
81.722
 32
0.0
 13
188.278
 23
88.278
 33
0.0
  0
SOLID
  5
254
330
17
100
AcDbEntity
  8
0
100
AcDbTrace
 10
181.722
 20
91.722
 30
0.0
 11
181.722
 21
98.278
 31
0.0
 12
188.278
 22
91.722
 32
0.0
 13
188.278
 23
98.278
 33
0.0
  0
SOLID
  5
255
330
17
100
AcDbEntity
  8
0
100
AcDbTrace
 10
181.722
 20
101.722
 30
0.0
 11
181.722
 21
108.278
 31
0.0
 12
188.278
 22
101.722
 32
0.0
 13
188.278
 23
108.278
 33
0.0
  0
SOLID
  5
256
330
17
100
AcDbEntity
  8
0
100
AcDbTrace
 10
181.595
 20
111.595
 30
0.0
 11
181.595
 21
118.405
 31
0.0
 12
188.405
 22
111.595
 32
0.0
 13
188.405
 23
118.405
 33
0.0
  0
SOLID
  5
257
330
17
100
AcDbEntity
  8
0
100
AcDbTrace
 10
181.595
 20
121.595
 30
0.0
 11
181.595
 21
128.405
 31
0.0
 12
188.405
 22
121.595
 32
0.0
 13
188.405
 23
128.405
 33
0.0
  0
SOLID
  5
258
330
17
100
AcDbEntity
  8
0
100
AcDbTrace
 10
181.595
 20
131.595
 30
0.0
 11
181.595
 21
138.405
 31
0.0
 12
188.405
 22
131.595
 32
0.0
 13
188.405
 23
138.405
 33
0.0
  0
SOLID
  5
259
330
17
100
AcDbEntity
  8
0
100
AcDbTrace
 10
181.468
 20
141.468
 30
0.0
 11
181.468
 21
148.532
 31
0.0
 12
188.532
 22
141.468
 32
0.0
 13
188.532
 23
148.532
 33
0.0
  0
SOLID
  5
25A
330
17
100
AcDbEntity
  8
0
100
AcDbTrace
 10
181.468
 20
151.468
 30
0.0
 11
181.468
 21
158.532
 31
0.0
 12
188.532
 22
151.468
 32
0.0
 13
188.532
 23
158.532
 33
0.0
  0
SOLID
  5
25B
330
17
100
AcDbEntity
  8
0
100
AcDbTrace
 10
181.595
 20
161.595
 30
0.0
 11
181.595
 21
168.405
 31
0.0
 12
188.405
 22
161.595
 32
0.0
 13
188.405
 23
168.405
 33
0.0
  0
SOLID
  5
25C
330
17
100
AcDbEntity
  8
0
100
AcDbTrace
 10
181.595
 20
171.595
 30
0.0
 11
181.595
 21
178.405
 31
0.0
 12
188.405
 22
171.595
 32
0.0
 13
188.405
 23
178.405
 33
0.0
  0
SOLID
  5
25D
330
17
100
AcDbEntity
  8
0
100
AcDbTrace
 10
181.595
 20
181.595
 30
0.0
 11
181.595
 21
188.405
 31
0.0
 12
188.405
 22
181.595
 32
0.0
 13
188.405
 23
188.405
 33
0.0
  0
SOLID
  5
25E
330
17
100
AcDbEntity
  8
0
100
AcDbTrace
 10
181.722
 20
191.722
 30
0.0
 11
181.722
 21
198.278
 31
0.0
 12
188.278
 22
191.722
 32
0.0
 13
188.278
 23
198.278
 33
0.0
  0
SOLID
  5
25F
330
17
100
AcDbEntity
  8
0
100
AcDbTrace
 10
181.722
 20
201.722
 30
0.0
 11
181.722
 21
208.278
 31
0.0
 12
188.278
 22
201.722
 32
0.0
 13
188.278
 23
208.278
 33
0.0
  0
SOLID
  5
260
330
17
100
AcDbEntity
  8
0
100
AcDbTrace
 10
181.722
 20
211.722
 30
0.0
 11
181.722
 21
218.278
 31
0.0
 12
188.278
 22
211.722
 32
0.0
 13
188.278
 23
218.278
 33
0.0
  0
SOLID
  5
261
330
17
100
AcDbEntity
  8
0
100
AcDbTrace
 10
181.976
 20
221.976
 30
0.0
 11
181.976
 21
228.024
 31
0.0
 12
188.024
 22
221.976
 32
0.0
 13
188.024
 23
228.024
 33
0.0
  0
SOLID
  5
262
330
17
100
AcDbEntity
  8
0
100
AcDbTrace
 10
181.976
 20
231.976
 30
0.0
 11
181.976
 21
238.024
 31
0.0
 12
188.024
 22
231.976
 32
0.0
 13
188.024
 23
238.024
 33
0.0
  0
SOLID
  5
263
330
17
100
AcDbEntity
  8
0
100
AcDbTrace
 10
182.103
 20
242.103
 30
0.0
 11
182.103
 21
247.897
 31
0.0
 12
187.897
 22
242.103
 32
0.0
 13
187.897
 23
247.897
 33
0.0
  0
SOLID
  5
264
330
17
100
AcDbEntity
  8
0
100
AcDbTrace
 10
182.738
 20
252.738
 30
0.0
 11
182.738
 21
257.262
 31
0.0
 12
187.262
 22
252.738
 32
0.0
 13
187.262
 23
257.262
 33
0.0
  0
SOLID
  5
265
330
17
100
AcDbEntity
  8
0
100
AcDbTrace
 10
183.5
 20
263.5
 30
0.0
 11
183.5
 21
266.5
 31
0.0
 12
186.5
 22
263.5
 32
0.0
 13
186.5
 23
266.5
 33
0.0
  0
SOLID
  5
266
330
17
100
AcDbEntity
  8
0
100
AcDbTrace
 10
180.833
 20
270.833
 30
0.0
 11
180.833
 21
279.167
 31
0.0
 12
189.167
 22
270.833
 32
0.0
 13
189.167
 23
279.167
 33
0.0
  0
SOLID
  5
267
330
17
100
AcDbEntity
  8
0
100
AcDbTrace
 10
181.468
 20
281.468
 30
0.0
 11
181.468
 21
288.532
 31
0.0
 12
188.532
 22
281.468
 32
0.0
 13
188.532
 23
288.532
 33
0.0
  0
SOLID
  5
268
330
17
100
AcDbEntity
  8
0
100
AcDbTrace
 10
181.595
 20
291.595
 30
0.0
 11
181.595
 21
298.405
 31
0.0
 12
188.405
 22
291.595
 32
0.0
 13
188.405
 23
298.405
 33
0.0
  0
SOLID
  5
269
330
17
100
AcDbEntity
  8
0
100
AcDbTrace
 10
191.595
 20
1.5950000000000002
 30
0.0
 11
191.595
 21
8.405
 31
0.0
 12
198.405
 22
1.5950000000000002
 32
0.0
 13
198.405
 23
8.405
 33
0.0
  0
SOLID
  5
26A
330
17
100
AcDbEntity
  8
0
100
AcDbTrace
 10
191.468
 20
11.468
 30
0.0
 11
191.468
 21
18.532
 31
0.0
 12
198.532
 22
11.468
 32
0.0
 13
198.532
 23
18.532
 33
0.0
  0
SOLID
  5
26B
330
17
100
AcDbEntity
  8
0
100
AcDbTrace
 10
190.96
 20
20.96
 30
0.0
 11
190.96
 21
29.04
 31
0.0
 12
199.04
 22
20.96
 32
0.0
 13
199.04
 23
29.04
 33
0.0
  0
SOLID
  5
26C
330
17
100
AcDbEntity
  8
0
100
AcDbTrace
 10
193.5
 20
33.5
 30
0.0
 11
193.5
 21
36.5
 31
0.0
 12
196.5
 22
33.5
 32
0.0
 13
196.5
 23
36.5
 33
0.0
  0
SOLID
  5
26D
330
17
100
AcDbEntity
  8
0
100
AcDbTrace
 10
193.119
 20
43.119
 30
0.0
 11
193.119
 21
46.881
 31
0.0
 12
196.881
 22
43.119
 32
0.0
 13
196.881
 23
46.881
 33
0.0
  0
SOLID
  5
26E
330
17
100
AcDbEntity
  8
0
100
AcDbTrace
 10
192.23
 20
52.23
 30
0.0
 11
192.23
 21
57.77
 31
0.0
 12
197.77
 22
52.23
 32
0.0
 13
197.77
 23
57.77
 33
0.0
  0
SOLID
  5
26F
330
17
100
AcDbEntity
  8
0
100
AcDbTrace
 10
191.976
 20
61.976
 30
0.0
 11
191.976
 21
68.024
 31
0.0
 12
198.024
 22
61.976
 32
0.0
 13
198.024
 23
68.024
 33
0.0
  0
SOLID
  5
270
330
17
100
AcDbEntity
  8
0
100
AcDbTrace
 10
191.976
 20
71.976
 30
0.0
 11
191.976
 21
78.024
 31
0.0
 12
198.024
 22
71.976
 32
0.0
 13
198.024
 23
78.024
 33
0.0
  0
SOLID
  5
271
330
17
100
AcDbEntity
  8
0
100
AcDbTrace
 10
191.722
 20
81.722
 30
0.0
 11
191.722
 21
88.278
 31
0.0
 12
198.278
 22
81.722
 32
0.0
 13
198.278
 23
88.278
 33
0.0
  0
SOLID
  5
272
330
17
100
AcDbEntity
  8
0
100
AcDbTrace
 10
191.722
 20
91.722
 30
0.0
 11
191.722
 21
98.278
 31
0.0
 12
198.278
 22
91.722
 32
0.0
 13
198.278
 23
98.278
 33
0.0
  0
SOLID
  5
273
330
17
100
AcDbEntity
  8
0
100
AcDbTrace
 10
191.722
 20
101.722
 30
0.0
 11
191.722
 21
108.278
 31
0.0
 12
198.278
 22
101.722
 32
0.0
 13
198.278
 23
108.278
 33
0.0
  0
SOLID
  5
274
330
17
100
AcDbEntity
  8
0
100
AcDbTrace
 10
191.595
 20
111.595
 30
0.0
 11
191.595
 21
118.405
 31
0.0
 12
198.405
 22
111.595
 32
0.0
 13
198.405
 23
118.405
 33
0.0
  0
SOLID
  5
275
330
17
100
AcDbEntity
  8
0
100
AcDbTrace
 10
191.595
 20
121.595
 30
0.0
 11
191.595
 21
128.405
 31
0.0
 12
198.405
 22
121.595
 32
0.0
 13
198.405
 23
128.405
 33
0.0
  0
SOLID
  5
276
330
17
100
AcDbEntity
  8
0
100
AcDbTrace
 10
191.595
 20
131.595
 30
0.0
 11
191.595
 21
138.405
 31
0.0
 12
198.405
 22
131.595
 32
0.0
 13
198.405
 23
138.405
 33
0.0
  0
SOLID
  5
277
330
17
100
AcDbEntity
  8
0
100
AcDbTrace
 10
191.595
 20
141.595
 30
0.0
 11
191.595
 21
148.405
 31
0.0
 12
198.405
 22
141.595
 32
0.0
 13
198.405
 23
148.405
 33
0.0
  0
SOLID
  5
278
330
17
100
AcDbEntity
  8
0
100
AcDbTrace
 10
191.595
 20
151.595
 30
0.0
 11
191.595
 21
158.405
 31
0.0
 12
198.405
 22
151.595
 32
0.0
 13
198.405
 23
158.405
 33
0.0
  0
SOLID
  5
279
330
17
100
AcDbEntity
  8
0
100
AcDbTrace
 10
191.595
 20
161.595
 30
0.0
 11
191.595
 21
168.405
 31
0.0
 12
198.405
 22
161.595
 32
0.0
 13
198.405
 23
168.405
 33
0.0
  0
SOLID
  5
27A
330
17
100
AcDbEntity
  8
0
100
AcDbTrace
 10
191.595
 20
171.595
 30
0.0
 11
191.595
 21
178.405
 31
0.0
 12
198.405
 22
171.595
 32
0.0
 13
198.405
 23
178.405
 33
0.0
  0
SOLID
  5
27B
330
17
100
AcDbEntity
  8
0
100
AcDbTrace
 10
191.595
 20
181.595
 30
0.0
 11
191.595
 21
188.405
 31
0.0
 12
198.405
 22
181.595
 32
0.0
 13
198.405
 23
188.405
 33
0.0
  0
SOLID
  5
27C
330
17
100
AcDbEntity
  8
0
100
AcDbTrace
 10
191.722
 20
191.722
 30
0.0
 11
191.722
 21
198.278
 31
0.0
 12
198.278
 22
191.722
 32
0.0
 13
198.278
 23
198.278
 33
0.0
  0
SOLID
  5
27D
330
17
100
AcDbEntity
  8
0
100
AcDbTrace
 10
191.722
 20
201.722
 30
0.0
 11
191.722
 21
208.278
 31
0.0
 12
198.278
 22
201.722
 32
0.0
 13
198.278
 23
208.278
 33
0.0
  0
SOLID
  5
27E
330
17
100
AcDbEntity
  8
0
100
AcDbTrace
 10
191.722
 20
211.722
 30
0.0
 11
191.722
 21
218.278
 31
0.0
 12
198.278
 22
211.722
 32
0.0
 13
198.278
 23
218.278
 33
0.0
  0
SOLID
  5
27F
330
17
100
AcDbEntity
  8
0
100
AcDbTrace
 10
191.976
 20
221.976
 30
0.0
 11
191.976
 21
228.024
 31
0.0
 12
198.024
 22
221.976
 32
0.0
 13
198.024
 23
228.024
 33
0.0
  0
SOLID
  5
280
330
17
100
AcDbEntity
  8
0
100
AcDbTrace
 10
191.976
 20
231.976
 30
0.0
 11
191.976
 21
238.024
 31
0.0
 12
198.024
 22
231.976
 32
0.0
 13
198.024
 23
238.024
 33
0.0
  0
SOLID
  5
281
330
17
100
AcDbEntity
  8
0
100
AcDbTrace
 10
192.23
 20
242.23
 30
0.0
 11
192.23
 21
247.77
 31
0.0
 12
197.77
 22
242.23
 32
0.0
 13
197.77
 23
247.77
 33
0.0
  0
SOLID
  5
282
330
17
100
AcDbEntity
  8
0
100
AcDbTrace
 10
193.119
 20
253.119
 30
0.0
 11
193.119
 21
256.881
 31
0.0
 12
196.881
 22
253.119
 32
0.0
 13
196.881
 23
256.881
 33
0.0
  0
SOLID
  5
283
330
17
100
AcDbEntity
  8
0
100
AcDbTrace
 10
193.5
 20
263.5
 30
0.0
 11
193.5
 21
266.5
 31
0.0
 12
196.5
 22
263.5
 32
0.0
 13
196.5
 23
266.5
 33
0.0
  0
SOLID
  5
284
330
17
100
AcDbEntity
  8
0
100
AcDbTrace
 10
190.96
 20
270.96
 30
0.0
 11
190.96
 21
279.04
 31
0.0
 12
199.04
 22
270.96
 32
0.0
 13
199.04
 23
279.04
 33
0.0
  0
SOLID
  5
285
330
17
100
AcDbEntity
  8
0
100
AcDbTrace
 10
191.468
 20
281.468
 30
0.0
 11
191.468
 21
288.532
 31
0.0
 12
198.532
 22
281.468
 32
0.0
 13
198.532
 23
288.532
 33
0.0
  0
SOLID
  5
286
330
17
100
AcDbEntity
  8
0
100
AcDbTrace
 10
191.595
 20
291.595
 30
0.0
 11
191.595
 21
298.405
 31
0.0
 12
198.405
 22
291.595
 32
0.0
 13
198.405
 23
298.405
 33
0.0
  0
SOLID
  5
287
330
17
100
AcDbEntity
  8
0
100
AcDbTrace
 10
201.595
 20
1.5950000000000002
 30
0.0
 11
201.595
 21
8.405
 31
0.0
 12
208.405
 22
1.5950000000000002
 32
0.0
 13
208.405
 23
8.405
 33
0.0
  0
SOLID
  5
288
330
17
100
AcDbEntity
  8
0
100
AcDbTrace
 10
201.468
 20
11.468
 30
0.0
 11
201.468
 21
18.532
 31
0.0
 12
208.532
 22
11.468
 32
0.0
 13
208.532
 23
18.532
 33
0.0
  0
SOLID
  5
289
330
17
100
AcDbEntity
  8
0
100
AcDbTrace
 10
201.087
 20
21.087
 30
0.0
 11
201.087
 21
28.913
 31
0.0
 12
208.913
 22
21.087
 32
0.0
 13
208.913
 23
28.913
 33
0.0
  0
SOLID
  5
28A
330
17
100
AcDbEntity
  8
0
100
AcDbTrace
 10
200.127
 20
30.127
 30
0.0
 11
200.127
 21
39.873
 31
0.0
 12
209.873
 22
30.127
 32
0.0
 13
209.873
 23
39.873
 33
0.0
  0
SOLID
  5
28B
330
17
100
AcDbEntity
  8
0
100
AcDbTrace
 10
203.5
 20
43.5
 30
0.0
 11
203.5
 21
46.5
 31
0.0
 12
206.5
 22
43.5
 32
0.0
 13
206.5
 23
46.5
 33
0.0
  0
SOLID
  5
28C
330
17
100
AcDbEntity
  8
0
100
AcDbTrace
 10
202.357
 20
52.357
 30
0.0
 11
202.357
 21
57.643
 31
0.0
 12
207.643
 22
52.357
 32
0.0
 13
207.643
 23
57.643
 33
0.0
  0
SOLID
  5
28D
330
17
100
AcDbEntity
  8
0
100
AcDbTrace
 10
202.103
 20
62.103
 30
0.0
 11
202.103
 21
67.897
 31
0.0
 12
207.897
 22
62.103
 32
0.0
 13
207.897
 23
67.897
 33
0.0
  0
SOLID
  5
28E
330
17
100
AcDbEntity
  8
0
100
AcDbTrace
 10
201.976
 20
71.976
 30
0.0
 11
201.976
 21
78.024
 31
0.0
 12
208.024
 22
71.976
 32
0.0
 13
208.024
 23
78.024
 33
0.0
  0
SOLID
  5
28F
330
17
100
AcDbEntity
  8
0
100
AcDbTrace
 10
201.976
 20
81.976
 30
0.0
 11
201.976
 21
88.024
 31
0.0
 12
208.024
 22
81.976
 32
0.0
 13
208.024
 23
88.024
 33
0.0
  0
SOLID
  5
290
330
17
100
AcDbEntity
  8
0
100
AcDbTrace
 10
201.722
 20
91.722
 30
0.0
 11
201.722
 21
98.278
 31
0.0
 12
208.278
 22
91.722
 32
0.0
 13
208.278
 23
98.278
 33
0.0
  0
SOLID
  5
291
330
17
100
AcDbEntity
  8
0
100
AcDbTrace
 10
201.722
 20
101.722
 30
0.0
 11
201.722
 21
108.278
 31
0.0
 12
208.278
 22
101.722
 32
0.0
 13
208.278
 23
108.278
 33
0.0
  0
SOLID
  5
292
330
17
100
AcDbEntity
  8
0
100
AcDbTrace
 10
201.722
 20
111.722
 30
0.0
 11
201.722
 21
118.278
 31
0.0
 12
208.278
 22
111.722
 32
0.0
 13
208.278
 23
118.278
 33
0.0
  0
SOLID
  5
293
330
17
100
AcDbEntity
  8
0
100
AcDbTrace
 10
201.595
 20
121.595
 30
0.0
 11
201.595
 21
128.405
 31
0.0
 12
208.405
 22
121.595
 32
0.0
 13
208.405
 23
128.405
 33
0.0
  0
SOLID
  5
294
330
17
100
AcDbEntity
  8
0
100
AcDbTrace
 10
201.595
 20
131.595
 30
0.0
 11
201.595
 21
138.405
 31
0.0
 12
208.405
 22
131.595
 32
0.0
 13
208.405
 23
138.405
 33
0.0
  0
SOLID
  5
295
330
17
100
AcDbEntity
  8
0
100
AcDbTrace
 10
201.595
 20
141.595
 30
0.0
 11
201.595
 21
148.405
 31
0.0
 12
208.405
 22
141.595
 32
0.0
 13
208.405
 23
148.405
 33
0.0
  0
SOLID
  5
296
330
17
100
AcDbEntity
  8
0
100
AcDbTrace
 10
201.595
 20
151.595
 30
0.0
 11
201.595
 21
158.405
 31
0.0
 12
208.405
 22
151.595
 32
0.0
 13
208.405
 23
158.405
 33
0.0
  0
SOLID
  5
297
330
17
100
AcDbEntity
  8
0
100
AcDbTrace
 10
201.595
 20
161.595
 30
0.0
 11
201.595
 21
168.405
 31
0.0
 12
208.405
 22
161.595
 32
0.0
 13
208.405
 23
168.405
 33
0.0
  0
SOLID
  5
298
330
17
100
AcDbEntity
  8
0
100
AcDbTrace
 10
201.595
 20
171.595
 30
0.0
 11
201.595
 21
178.405
 31
0.0
 12
208.405
 22
171.595
 32
0.0
 13
208.405
 23
178.405
 33
0.0
  0
SOLID
  5
299
330
17
100
AcDbEntity
  8
0
100
AcDbTrace
 10
201.722
 20
181.722
 30
0.0
 11
201.722
 21
188.278
 31
0.0
 12
208.278
 22
181.722
 32
0.0
 13
208.278
 23
188.278
 33
0.0
  0
SOLID
  5
29A
330
17
100
AcDbEntity
  8
0
100
AcDbTrace
 10
201.722
 20
191.722
 30
0.0
 11
201.722
 21
198.278
 31
0.0
 12
208.278
 22
191.722
 32
0.0
 13
208.278
 23
198.278
 33
0.0
  0
SOLID
  5
29B
330
17
100
AcDbEntity
  8
0
100
AcDbTrace
 10
201.722
 20
201.722
 30
0.0
 11
201.722
 21
208.278
 31
0.0
 12
208.278
 22
201.722
 32
0.0
 13
208.278
 23
208.278
 33
0.0
  0
SOLID
  5
29C
330
17
100
AcDbEntity
  8
0
100
AcDbTrace
 10
201.976
 20
211.976
 30
0.0
 11
201.976
 21
218.024
 31
0.0
 12
208.024
 22
211.976
 32
0.0
 13
208.024
 23
218.024
 33
0.0
  0
SOLID
  5
29D
330
17
100
AcDbEntity
  8
0
100
AcDbTrace
 10
201.976
 20
221.976
 30
0.0
 11
201.976
 21
228.024
 31
0.0
 12
208.024
 22
221.976
 32
0.0
 13
208.024
 23
228.024
 33
0.0
  0
SOLID
  5
29E
330
17
100
AcDbEntity
  8
0
100
AcDbTrace
 10
202.103
 20
232.103
 30
0.0
 11
202.103
 21
237.897
 31
0.0
 12
207.897
 22
232.103
 32
0.0
 13
207.897
 23
237.897
 33
0.0
  0
SOLID
  5
29F
330
17
100
AcDbEntity
  8
0
100
AcDbTrace
 10
202.357
 20
242.357
 30
0.0
 11
202.357
 21
247.643
 31
0.0
 12
207.643
 22
242.357
 32
0.0
 13
207.643
 23
247.643
 33
0.0
  0
SOLID
  5
2A0
330
17
100
AcDbEntity
  8
0
100
AcDbTrace
 10
203.5
 20
253.5
 30
0.0
 11
203.5
 21
256.5
 31
0.0
 12
206.5
 22
253.5
 32
0.0
 13
206.5
 23
256.5
 33
0.0
  0
SOLID
  5
2A1
330
17
100
AcDbEntity
  8
0
100
AcDbTrace
 10
200.127
 20
260.127
 30
0.0
 11
200.127
 21
269.873
 31
0.0
 12
209.873
 22
260.127
 32
0.0
 13
209.873
 23
269.873
 33
0.0
  0
SOLID
  5
2A2
330
17
100
AcDbEntity
  8
0
100
AcDbTrace
 10
201.087
 20
271.087
 30
0.0
 11
201.087
 21
278.913
 31
0.0
 12
208.913
 22
271.087
 32
0.0
 13
208.913
 23
278.913
 33
0.0
  0
SOLID
  5
2A3
330
17
100
AcDbEntity
  8
0
100
AcDbTrace
 10
201.468
 20
281.468
 30
0.0
 11
201.468
 21
288.532
 31
0.0
 12
208.532
 22
281.468
 32
0.0
 13
208.532
 23
288.532
 33
0.0
  0
SOLID
  5
2A4
330
17
100
AcDbEntity
  8
0
100
AcDbTrace
 10
201.595
 20
291.595
 30
0.0
 11
201.595
 21
298.405
 31
0.0
 12
208.405
 22
291.595
 32
0.0
 13
208.405
 23
298.405
 33
0.0
  0
SOLID
  5
2A5
330
17
100
AcDbEntity
  8
0
100
AcDbTrace
 10
211.722
 20
1.722
 30
0.0
 11
211.722
 21
8.278
 31
0.0
 12
218.278
 22
1.722
 32
0.0
 13
218.278
 23
8.278
 33
0.0
  0
SOLID
  5
2A6
330
17
100
AcDbEntity
  8
0
100
AcDbTrace
 10
211.468
 20
11.468
 30
0.0
 11
211.468
 21
18.532
 31
0.0
 12
218.532
 22
11.468
 32
0.0
 13
218.532
 23
18.532
 33
0.0
  0
SOLID
  5
2A7
330
17
100
AcDbEntity
  8
0
100
AcDbTrace
 10
211.214
 20
21.214
 30
0.0
 11
211.214
 21
28.786
 31
0.0
 12
218.786
 22
21.214
 32
0.0
 13
218.786
 23
28.786
 33
0.0
  0
SOLID
  5
2A8
330
17
100
AcDbEntity
  8
0
100
AcDbTrace
 10
210.2035
 20
30.2035
 30
0.0
 11
210.2035
 21
39.7965
 31
0.0
 12
219.7965
 22
30.2035
 32
0.0
 13
219.7965
 23
39.7965
 33
0.0
  0
SOLID
  5
2A9
330
17
100
AcDbEntity
  8
0
100
AcDbTrace
 10
213.5
 20
43.5
 30
0.0
 11
213.5
 21
46.5
 31
0.0
 12
216.5
 22
43.5
 32
0.0
 13
216.5
 23
46.5
 33
0.0
  0
SOLID
  5
2AA
330
17
100
AcDbEntity
  8
0
100
AcDbTrace
 10
212.611
 20
52.611
 30
0.0
 11
212.611
 21
57.389
 31
0.0
 12
217.389
 22
52.611
 32
0.0
 13
217.389
 23
57.389
 33
0.0
  0
SOLID
  5
2AB
330
17
100
AcDbEntity
  8
0
100
AcDbTrace
 10
212.103
 20
62.103
 30
0.0
 11
212.103
 21
67.897
 31
0.0
 12
217.897
 22
62.103
 32
0.0
 13
217.897
 23
67.897
 33
0.0
  0
SOLID
  5
2AC
330
17
100
AcDbEntity
  8
0
100
AcDbTrace
 10
211.976
 20
71.976
 30
0.0
 11
211.976
 21
78.024
 31
0.0
 12
218.024
 22
71.976
 32
0.0
 13
218.024
 23
78.024
 33
0.0
  0
SOLID
  5
2AD
330
17
100
AcDbEntity
  8
0
100
AcDbTrace
 10
211.976
 20
81.976
 30
0.0
 11
211.976
 21
88.024
 31
0.0
 12
218.024
 22
81.976
 32
0.0
 13
218.024
 23
88.024
 33
0.0
  0
SOLID
  5
2AE
330
17
100
AcDbEntity
  8
0
100
AcDbTrace
 10
211.722
 20
91.722
 30
0.0
 11
211.722
 21
98.278
 31
0.0
 12
218.278
 22
91.722
 32
0.0
 13
218.278
 23
98.278
 33
0.0
  0
SOLID
  5
2AF
330
17
100
AcDbEntity
  8
0
100
AcDbTrace
 10
211.722
 20
101.722
 30
0.0
 11
211.722
 21
108.278
 31
0.0
 12
218.278
 22
101.722
 32
0.0
 13
218.278
 23
108.278
 33
0.0
  0
SOLID
  5
2B0
330
17
100
AcDbEntity
  8
0
100
AcDbTrace
 10
211.722
 20
111.722
 30
0.0
 11
211.722
 21
118.278
 31
0.0
 12
218.278
 22
111.722
 32
0.0
 13
218.278
 23
118.278
 33
0.0
  0
SOLID
  5
2B1
330
17
100
AcDbEntity
  8
0
100
AcDbTrace
 10
211.722
 20
121.722
 30
0.0
 11
211.722
 21
128.278
 31
0.0
 12
218.278
 22
121.722
 32
0.0
 13
218.278
 23
128.278
 33
0.0
  0
SOLID
  5
2B2
330
17
100
AcDbEntity
  8
0
100
AcDbTrace
 10
211.722
 20
131.722
 30
0.0
 11
211.722
 21
138.278
 31
0.0
 12
218.278
 22
131.722
 32
0.0
 13
218.278
 23
138.278
 33
0.0
  0
SOLID
  5
2B3
330
17
100
AcDbEntity
  8
0
100
AcDbTrace
 10
211.722
 20
141.722
 30
0.0
 11
211.722
 21
148.278
 31
0.0
 12
218.278
 22
141.722
 32
0.0
 13
218.278
 23
148.278
 33
0.0
  0
SOLID
  5
2B4
330
17
100
AcDbEntity
  8
0
100
AcDbTrace
 10
211.722
 20
151.722
 30
0.0
 11
211.722
 21
158.278
 31
0.0
 12
218.278
 22
151.722
 32
0.0
 13
218.278
 23
158.278
 33
0.0
  0
SOLID
  5
2B5
330
17
100
AcDbEntity
  8
0
100
AcDbTrace
 10
211.722
 20
161.722
 30
0.0
 11
211.722
 21
168.278
 31
0.0
 12
218.278
 22
161.722
 32
0.0
 13
218.278
 23
168.278
 33
0.0
  0
SOLID
  5
2B6
330
17
100
AcDbEntity
  8
0
100
AcDbTrace
 10
211.722
 20
171.722
 30
0.0
 11
211.722
 21
178.278
 31
0.0
 12
218.278
 22
171.722
 32
0.0
 13
218.278
 23
178.278
 33
0.0
  0
SOLID
  5
2B7
330
17
100
AcDbEntity
  8
0
100
AcDbTrace
 10
211.722
 20
181.722
 30
0.0
 11
211.722
 21
188.278
 31
0.0
 12
218.278
 22
181.722
 32
0.0
 13
218.278
 23
188.278
 33
0.0
  0
SOLID
  5
2B8
330
17
100
AcDbEntity
  8
0
100
AcDbTrace
 10
211.722
 20
191.722
 30
0.0
 11
211.722
 21
198.278
 31
0.0
 12
218.278
 22
191.722
 32
0.0
 13
218.278
 23
198.278
 33
0.0
  0
SOLID
  5
2B9
330
17
100
AcDbEntity
  8
0
100
AcDbTrace
 10
211.722
 20
201.722
 30
0.0
 11
211.722
 21
208.278
 31
0.0
 12
218.278
 22
201.722
 32
0.0
 13
218.278
 23
208.278
 33
0.0
  0
SOLID
  5
2BA
330
17
100
AcDbEntity
  8
0
100
AcDbTrace
 10
211.976
 20
211.976
 30
0.0
 11
211.976
 21
218.024
 31
0.0
 12
218.024
 22
211.976
 32
0.0
 13
218.024
 23
218.024
 33
0.0
  0
SOLID
  5
2BB
330
17
100
AcDbEntity
  8
0
100
AcDbTrace
 10
211.976
 20
221.976
 30
0.0
 11
211.976
 21
228.024
 31
0.0
 12
218.024
 22
221.976
 32
0.0
 13
218.024
 23
228.024
 33
0.0
  0
SOLID
  5
2BC
330
17
100
AcDbEntity
  8
0
100
AcDbTrace
 10
212.103
 20
232.103
 30
0.0
 11
212.103
 21
237.897
 31
0.0
 12
217.897
 22
232.103
 32
0.0
 13
217.897
 23
237.897
 33
0.0
  0
SOLID
  5
2BD
330
17
100
AcDbEntity
  8
0
100
AcDbTrace
 10
212.611
 20
242.611
 30
0.0
 11
212.611
 21
247.389
 31
0.0
 12
217.389
 22
242.611
 32
0.0
 13
217.389
 23
247.389
 33
0.0
  0
SOLID
  5
2BE
330
17
100
AcDbEntity
  8
0
100
AcDbTrace
 10
213.5
 20
253.5
 30
0.0
 11
213.5
 21
256.5
 31
0.0
 12
216.5
 22
253.5
 32
0.0
 13
216.5
 23
256.5
 33
0.0
  0
SOLID
  5
2BF
330
17
100
AcDbEntity
  8
0
100
AcDbTrace
 10
210.2035
 20
260.2035
 30
0.0
 11
210.2035
 21
269.7965
 31
0.0
 12
219.7965
 22
260.2035
 32
0.0
 13
219.7965
 23
269.7965
 33
0.0
  0
SOLID
  5
2C0
330
17
100
AcDbEntity
  8
0
100
AcDbTrace
 10
211.214
 20
271.214
 30
0.0
 11
211.214
 21
278.786
 31
0.0
 12
218.786
 22
271.214
 32
0.0
 13
218.786
 23
278.786
 33
0.0
  0
SOLID
  5
2C1
330
17
100
AcDbEntity
  8
0
100
AcDbTrace
 10
211.468
 20
281.468
 30
0.0
 11
211.468
 21
288.532
 31
0.0
 12
218.532
 22
281.468
 32
0.0
 13
218.532
 23
288.532
 33
0.0
  0
SOLID
  5
2C2
330
17
100
AcDbEntity
  8
0
100
AcDbTrace
 10
211.722
 20
291.722
 30
0.0
 11
211.722
 21
298.278
 31
0.0
 12
218.278
 22
291.722
 32
0.0
 13
218.278
 23
298.278
 33
0.0
  0
SOLID
  5
2C3
330
17
100
AcDbEntity
  8
0
100
AcDbTrace
 10
221.722
 20
1.722
 30
0.0
 11
221.722
 21
8.278
 31
0.0
 12
228.278
 22
1.722
 32
0.0
 13
228.278
 23
8.278
 33
0.0
  0
SOLID
  5
2C4
330
17
100
AcDbEntity
  8
0
100
AcDbTrace
 10
221.595
 20
11.595
 30
0.0
 11
221.595
 21
18.405
 31
0.0
 12
228.405
 22
11.595
 32
0.0
 13
228.405
 23
18.405
 33
0.0
  0
SOLID
  5
2C5
330
17
100
AcDbEntity
  8
0
100
AcDbTrace
 10
221.341
 20
21.341
 30
0.0
 11
221.341
 21
28.659
 31
0.0
 12
228.659
 22
21.341
 32
0.0
 13
228.659
 23
28.659
 33
0.0
  0
SOLID
  5
2C6
330
17
100
AcDbEntity
  8
0
100
AcDbTrace
 10
220.706
 20
30.706
 30
0.0
 11
220.706
 21
39.294
 31
0.0
 12
229.294
 22
30.706
 32
0.0
 13
229.294
 23
39.294
 33
0.0
  0
SOLID
  5
2C7
330
17
100
AcDbEntity
  8
0
100
AcDbTrace
 10
223.5
 20
43.5
 30
0.0
 11
223.5
 21
46.5
 31
0.0
 12
226.5
 22
43.5
 32
0.0
 13
226.5
 23
46.5
 33
0.0
  0
SOLID
  5
2C8
330
17
100
AcDbEntity
  8
0
100
AcDbTrace
 10
223.119
 20
53.119
 30
0.0
 11
223.119
 21
56.881
 31
0.0
 12
226.881
 22
53.119
 32
0.0
 13
226.881
 23
56.881
 33
0.0
  0
SOLID
  5
2C9
330
17
100
AcDbEntity
  8
0
100
AcDbTrace
 10
222.23
 20
62.23
 30
0.0
 11
222.23
 21
67.77
 31
0.0
 12
227.77
 22
62.23
 32
0.0
 13
227.77
 23
67.77
 33
0.0
  0
SOLID
  5
2CA
330
17
100
AcDbEntity
  8
0
100
AcDbTrace
 10
222.103
 20
72.103
 30
0.0
 11
222.103
 21
77.897
 31
0.0
 12
227.897
 22
72.103
 32
0.0
 13
227.897
 23
77.897
 33
0.0
  0
SOLID
  5
2CB
330
17
100
AcDbEntity
  8
0
100
AcDbTrace
 10
221.976
 20
81.976
 30
0.0
 11
221.976
 21
88.024
 31
0.0
 12
228.024
 22
81.976
 32
0.0
 13
228.024
 23
88.024
 33
0.0
  0
SOLID
  5
2CC
330
17
100
AcDbEntity
  8
0
100
AcDbTrace
 10
221.976
 20
91.976
 30
0.0
 11
221.976
 21
98.024
 31
0.0
 12
228.024
 22
91.976
 32
0.0
 13
228.024
 23
98.024
 33
0.0
  0
SOLID
  5
2CD
330
17
100
AcDbEntity
  8
0
100
AcDbTrace
 10
221.722
 20
101.722
 30
0.0
 11
221.722
 21
108.278
 31
0.0
 12
228.278
 22
101.722
 32
0.0
 13
228.278
 23
108.278
 33
0.0
  0
SOLID
  5
2CE
330
17
100
AcDbEntity
  8
0
100
AcDbTrace
 10
221.722
 20
111.722
 30
0.0
 11
221.722
 21
118.278
 31
0.0
 12
228.278
 22
111.722
 32
0.0
 13
228.278
 23
118.278
 33
0.0
  0
SOLID
  5
2CF
330
17
100
AcDbEntity
  8
0
100
AcDbTrace
 10
221.722
 20
121.722
 30
0.0
 11
221.722
 21
128.278
 31
0.0
 12
228.278
 22
121.722
 32
0.0
 13
228.278
 23
128.278
 33
0.0
  0
SOLID
  5
2D0
330
17
100
AcDbEntity
  8
0
100
AcDbTrace
 10
221.722
 20
131.722
 30
0.0
 11
221.722
 21
138.278
 31
0.0
 12
228.278
 22
131.722
 32
0.0
 13
228.278
 23
138.278
 33
0.0
  0
SOLID
  5
2D1
330
17
100
AcDbEntity
  8
0
100
AcDbTrace
 10
221.722
 20
141.722
 30
0.0
 11
221.722
 21
148.278
 31
0.0
 12
228.278
 22
141.722
 32
0.0
 13
228.278
 23
148.278
 33
0.0
  0
SOLID
  5
2D2
330
17
100
AcDbEntity
  8
0
100
AcDbTrace
 10
221.722
 20
151.722
 30
0.0
 11
221.722
 21
158.278
 31
0.0
 12
228.278
 22
151.722
 32
0.0
 13
228.278
 23
158.278
 33
0.0
  0
SOLID
  5
2D3
330
17
100
AcDbEntity
  8
0
100
AcDbTrace
 10
221.722
 20
161.722
 30
0.0
 11
221.722
 21
168.278
 31
0.0
 12
228.278
 22
161.722
 32
0.0
 13
228.278
 23
168.278
 33
0.0
  0
SOLID
  5
2D4
330
17
100
AcDbEntity
  8
0
100
AcDbTrace
 10
221.722
 20
171.722
 30
0.0
 11
221.722
 21
178.278
 31
0.0
 12
228.278
 22
171.722
 32
0.0
 13
228.278
 23
178.278
 33
0.0
  0
SOLID
  5
2D5
330
17
100
AcDbEntity
  8
0
100
AcDbTrace
 10
221.722
 20
181.722
 30
0.0
 11
221.722
 21
188.278
 31
0.0
 12
228.278
 22
181.722
 32
0.0
 13
228.278
 23
188.278
 33
0.0
  0
SOLID
  5
2D6
330
17
100
AcDbEntity
  8
0
100
AcDbTrace
 10
221.722
 20
191.722
 30
0.0
 11
221.722
 21
198.278
 31
0.0
 12
228.278
 22
191.722
 32
0.0
 13
228.278
 23
198.278
 33
0.0
  0
SOLID
  5
2D7
330
17
100
AcDbEntity
  8
0
100
AcDbTrace
 10
221.976
 20
201.976
 30
0.0
 11
221.976
 21
208.024
 31
0.0
 12
228.024
 22
201.976
 32
0.0
 13
228.024
 23
208.024
 33
0.0
  0
SOLID
  5
2D8
330
17
100
AcDbEntity
  8
0
100
AcDbTrace
 10
221.976
 20
211.976
 30
0.0
 11
221.976
 21
218.024
 31
0.0
 12
228.024
 22
211.976
 32
0.0
 13
228.024
 23
218.024
 33
0.0
  0
SOLID
  5
2D9
330
17
100
AcDbEntity
  8
0
100
AcDbTrace
 10
222.103
 20
222.103
 30
0.0
 11
222.103
 21
227.897
 31
0.0
 12
227.897
 22
222.103
 32
0.0
 13
227.897
 23
227.897
 33
0.0
  0
SOLID
  5
2DA
330
17
100
AcDbEntity
  8
0
100
AcDbTrace
 10
222.23
 20
232.23
 30
0.0
 11
222.23
 21
237.77
 31
0.0
 12
227.77
 22
232.23
 32
0.0
 13
227.77
 23
237.77
 33
0.0
  0
SOLID
  5
2DB
330
17
100
AcDbEntity
  8
0
100
AcDbTrace
 10
223.119
 20
243.119
 30
0.0
 11
223.119
 21
246.881
 31
0.0
 12
226.881
 22
243.119
 32
0.0
 13
226.881
 23
246.881
 33
0.0
  0
SOLID
  5
2DC
330
17
100
AcDbEntity
  8
0
100
AcDbTrace
 10
223.5
 20
253.5
 30
0.0
 11
223.5
 21
256.5
 31
0.0
 12
226.5
 22
253.5
 32
0.0
 13
226.5
 23
256.5
 33
0.0
  0
SOLID
  5
2DD
330
17
100
AcDbEntity
  8
0
100
AcDbTrace
 10
220.706
 20
260.706
 30
0.0
 11
220.706
 21
269.294
 31
0.0
 12
229.294
 22
260.706
 32
0.0
 13
229.294
 23
269.294
 33
0.0
  0
SOLID
  5
2DE
330
17
100
AcDbEntity
  8
0
100
AcDbTrace
 10
221.341
 20
271.341
 30
0.0
 11
221.341
 21
278.659
 31
0.0
 12
228.659
 22
271.341
 32
0.0
 13
228.659
 23
278.659
 33
0.0
  0
SOLID
  5
2DF
330
17
100
AcDbEntity
  8
0
100
AcDbTrace
 10
221.595
 20
281.595
 30
0.0
 11
221.595
 21
288.405
 31
0.0
 12
228.405
 22
281.595
 32
0.0
 13
228.405
 23
288.405
 33
0.0
  0
SOLID
  5
2E0
330
17
100
AcDbEntity
  8
0
100
AcDbTrace
 10
221.722
 20
291.722
 30
0.0
 11
221.722
 21
298.278
 31
0.0
 12
228.278
 22
291.722
 32
0.0
 13
228.278
 23
298.278
 33
0.0
  0
SOLID
  5
2E1
330
17
100
AcDbEntity
  8
0
100
AcDbTrace
 10
231.722
 20
1.722
 30
0.0
 11
231.722
 21
8.278
 31
0.0
 12
238.278
 22
1.722
 32
0.0
 13
238.278
 23
8.278
 33
0.0
  0
SOLID
  5
2E2
330
17
100
AcDbEntity
  8
0
100
AcDbTrace
 10
231.595
 20
11.595
 30
0.0
 11
231.595
 21
18.405
 31
0.0
 12
238.405
 22
11.595
 32
0.0
 13
238.405
 23
18.405
 33
0.0
  0
SOLID
  5
2E3
330
17
100
AcDbEntity
  8
0
100
AcDbTrace
 10
231.468
 20
21.468
 30
0.0
 11
231.468
 21
28.532
 31
0.0
 12
238.532
 22
21.468
 32
0.0
 13
238.532
 23
28.532
 33
0.0
  0
SOLID
  5
2E4
330
17
100
AcDbEntity
  8
0
100
AcDbTrace
 10
231.087
 20
31.087
 30
0.0
 11
231.087
 21
38.913
 31
0.0
 12
238.913
 22
31.087
 32
0.0
 13
238.913
 23
38.913
 33
0.0
  0
SOLID
  5
2E5
330
17
100
AcDbEntity
  8
0
100
AcDbTrace
 10
230.127
 20
40.127
 30
0.0
 11
230.127
 21
49.873
 31
0.0
 12
239.873
 22
40.127
 32
0.0
 13
239.873
 23
49.873
 33
0.0
  0
SOLID
  5
2E6
330
17
100
AcDbEntity
  8
0
100
AcDbTrace
 10
233.5
 20
53.5
 30
0.0
 11
233.5
 21
56.5
 31
0.0
 12
236.5
 22
53.5
 32
0.0
 13
236.5
 23
56.5
 33
0.0
  0
SOLID
  5
2E7
330
17
100
AcDbEntity
  8
0
100
AcDbTrace
 10
232.611
 20
62.611
 30
0.0
 11
232.611
 21
67.389
 31
0.0
 12
237.389
 22
62.611
 32
0.0
 13
237.389
 23
67.389
 33
0.0
  0
SOLID
  5
2E8
330
17
100
AcDbEntity
  8
0
100
AcDbTrace
 10
232.23
 20
72.23
 30
0.0
 11
232.23
 21
77.77
 31
0.0
 12
237.77
 22
72.23
 32
0.0
 13
237.77
 23
77.77
 33
0.0
  0
SOLID
  5
2E9
330
17
100
AcDbEntity
  8
0
100
AcDbTrace
 10
231.976
 20
81.976
 30
0.0
 11
231.976
 21
88.024
 31
0.0
 12
238.024
 22
81.976
 32
0.0
 13
238.024
 23
88.024
 33
0.0
  0
SOLID
  5
2EA
330
17
100
AcDbEntity
  8
0
100
AcDbTrace
 10
231.976
 20
91.976
 30
0.0
 11
231.976
 21
98.024
 31
0.0
 12
238.024
 22
91.976
 32
0.0
 13
238.024
 23
98.024
 33
0.0
  0
SOLID
  5
2EB
330
17
100
AcDbEntity
  8
0
100
AcDbTrace
 10
231.976
 20
101.976
 30
0.0
 11
231.976
 21
108.024
 31
0.0
 12
238.024
 22
101.976
 32
0.0
 13
238.024
 23
108.024
 33
0.0
  0
SOLID
  5
2EC
330
17
100
AcDbEntity
  8
0
100
AcDbTrace
 10
231.722
 20
111.722
 30
0.0
 11
231.722
 21
118.278
 31
0.0
 12
238.278
 22
111.722
 32
0.0
 13
238.278
 23
118.278
 33
0.0
  0
SOLID
  5
2ED
330
17
100
AcDbEntity
  8
0
100
AcDbTrace
 10
231.722
 20
121.722
 30
0.0
 11
231.722
 21
128.278
 31
0.0
 12
238.278
 22
121.722
 32
0.0
 13
238.278
 23
128.278
 33
0.0
  0
SOLID
  5
2EE
330
17
100
AcDbEntity
  8
0
100
AcDbTrace
 10
231.722
 20
131.722
 30
0.0
 11
231.722
 21
138.278
 31
0.0
 12
238.278
 22
131.722
 32
0.0
 13
238.278
 23
138.278
 33
0.0
  0
SOLID
  5
2EF
330
17
100
AcDbEntity
  8
0
100
AcDbTrace
 10
231.722
 20
141.722
 30
0.0
 11
231.722
 21
148.278
 31
0.0
 12
238.278
 22
141.722
 32
0.0
 13
238.278
 23
148.278
 33
0.0
  0
SOLID
  5
2F0
330
17
100
AcDbEntity
  8
0
100
AcDbTrace
 10
231.722
 20
151.722
 30
0.0
 11
231.722
 21
158.278
 31
0.0
 12
238.278
 22
151.722
 32
0.0
 13
238.278
 23
158.278
 33
0.0
  0
SOLID
  5
2F1
330
17
100
AcDbEntity
  8
0
100
AcDbTrace
 10
231.722
 20
161.722
 30
0.0
 11
231.722
 21
168.278
 31
0.0
 12
238.278
 22
161.722
 32
0.0
 13
238.278
 23
168.278
 33
0.0
  0
SOLID
  5
2F2
330
17
100
AcDbEntity
  8
0
100
AcDbTrace
 10
231.722
 20
171.722
 30
0.0
 11
231.722
 21
178.278
 31
0.0
 12
238.278
 22
171.722
 32
0.0
 13
238.278
 23
178.278
 33
0.0
  0
SOLID
  5
2F3
330
17
100
AcDbEntity
  8
0
100
AcDbTrace
 10
231.722
 20
181.722
 30
0.0
 11
231.722
 21
188.278
 31
0.0
 12
238.278
 22
181.722
 32
0.0
 13
238.278
 23
188.278
 33
0.0
  0
SOLID
  5
2F4
330
17
100
AcDbEntity
  8
0
100
AcDbTrace
 10
231.976
 20
191.976
 30
0.0
 11
231.976
 21
198.024
 31
0.0
 12
238.024
 22
191.976
 32
0.0
 13
238.024
 23
198.024
 33
0.0
  0
SOLID
  5
2F5
330
17
100
AcDbEntity
  8
0
100
AcDbTrace
 10
231.976
 20
201.976
 30
0.0
 11
231.976
 21
208.024
 31
0.0
 12
238.024
 22
201.976
 32
0.0
 13
238.024
 23
208.024
 33
0.0
  0
SOLID
  5
2F6
330
17
100
AcDbEntity
  8
0
100
AcDbTrace
 10
231.976
 20
211.976
 30
0.0
 11
231.976
 21
218.024
 31
0.0
 12
238.024
 22
211.976
 32
0.0
 13
238.024
 23
218.024
 33
0.0
  0
SOLID
  5
2F7
330
17
100
AcDbEntity
  8
0
100
AcDbTrace
 10
232.23
 20
222.23
 30
0.0
 11
232.23
 21
227.77
 31
0.0
 12
237.77
 22
222.23
 32
0.0
 13
237.77
 23
227.77
 33
0.0
  0
SOLID
  5
2F8
330
17
100
AcDbEntity
  8
0
100
AcDbTrace
 10
232.611
 20
232.611
 30
0.0
 11
232.611
 21
237.389
 31
0.0
 12
237.389
 22
232.611
 32
0.0
 13
237.389
 23
237.389
 33
0.0
  0
SOLID
  5
2F9
330
17
100
AcDbEntity
  8
0
100
AcDbTrace
 10
233.5
 20
243.5
 30
0.0
 11
233.5
 21
246.5
 31
0.0
 12
236.5
 22
243.5
 32
0.0
 13
236.5
 23
246.5
 33
0.0
  0
SOLID
  5
2FA
330
17
100
AcDbEntity
  8
0
100
AcDbTrace
 10
230.127
 20
250.127
 30
0.0
 11
230.127
 21
259.873
 31
0.0
 12
239.873
 22
250.127
 32
0.0
 13
239.873
 23
259.873
 33
0.0
  0
SOLID
  5
2FB
330
17
100
AcDbEntity
  8
0
100
AcDbTrace
 10
231.087
 20
261.087
 30
0.0
 11
231.087
 21
268.913
 31
0.0
 12
238.913
 22
261.087
 32
0.0
 13
238.913
 23
268.913
 33
0.0
  0
SOLID
  5
2FC
330
17
100
AcDbEntity
  8
0
100
AcDbTrace
 10
231.468
 20
271.468
 30
0.0
 11
231.468
 21
278.532
 31
0.0
 12
238.532
 22
271.468
 32
0.0
 13
238.532
 23
278.532
 33
0.0
  0
SOLID
  5
2FD
330
17
100
AcDbEntity
  8
0
100
AcDbTrace
 10
231.595
 20
281.595
 30
0.0
 11
231.595
 21
288.405
 31
0.0
 12
238.405
 22
281.595
 32
0.0
 13
238.405
 23
288.405
 33
0.0
  0
SOLID
  5
2FE
330
17
100
AcDbEntity
  8
0
100
AcDbTrace
 10
231.722
 20
291.722
 30
0.0
 11
231.722
 21
298.278
 31
0.0
 12
238.278
 22
291.722
 32
0.0
 13
238.278
 23
298.278
 33
0.0
  0
SOLID
  5
2FF
330
17
100
AcDbEntity
  8
0
100
AcDbTrace
 10
241.722
 20
1.722
 30
0.0
 11
241.722
 21
8.278
 31
0.0
 12
248.278
 22
1.722
 32
0.0
 13
248.278
 23
8.278
 33
0.0
  0
SOLID
  5
300
330
17
100
AcDbEntity
  8
0
100
AcDbTrace
 10
241.722
 20
11.722
 30
0.0
 11
241.722
 21
18.278
 31
0.0
 12
248.278
 22
11.722
 32
0.0
 13
248.278
 23
18.278
 33
0.0
  0
SOLID
  5
301
330
17
100
AcDbEntity
  8
0
100
AcDbTrace
 10
241.468
 20
21.468
 30
0.0
 11
241.468
 21
28.532
 31
0.0
 12
248.532
 22
21.468
 32
0.0
 13
248.532
 23
28.532
 33
0.0
  0
SOLID
  5
302
330
17
100
AcDbEntity
  8
0
100
AcDbTrace
 10
241.214
 20
31.214
 30
0.0
 11
241.214
 21
38.786
 31
0.0
 12
248.786
 22
31.214
 32
0.0
 13
248.786
 23
38.786
 33
0.0
  0
SOLID
  5
303
330
17
100
AcDbEntity
  8
0
100
AcDbTrace
 10
240.579
 20
40.579
 30
0.0
 11
240.579
 21
49.421
 31
0.0
 12
249.421
 22
40.579
 32
0.0
 13
249.421
 23
49.421
 33
0.0
  0
SOLID
  5
304
330
17
100
AcDbEntity
  8
0
100
AcDbTrace
 10
243.5
 20
53.5
 30
0.0
 11
243.5
 21
56.5
 31
0.0
 12
246.5
 22
53.5
 32
0.0
 13
246.5
 23
56.5
 33
0.0
  0
SOLID
  5
305
330
17
100
AcDbEntity
  8
0
100
AcDbTrace
 10
243.5
 20
63.5
 30
0.0
 11
243.5
 21
66.5
 31
0.0
 12
246.5
 22
63.5
 32
0.0
 13
246.5
 23
66.5
 33
0.0
  0
SOLID
  5
306
330
17
100
AcDbEntity
  8
0
100
AcDbTrace
 10
242.357
 20
72.357
 30
0.0
 11
242.357
 21
77.643
 31
0.0
 12
247.643
 22
72.357
 32
0.0
 13
247.643
 23
77.643
 33
0.0
  0
SOLID
  5
307
330
17
100
AcDbEntity
  8
0
100
AcDbTrace
 10
242.103
 20
82.103
 30
0.0
 11
242.103
 21
87.897
 31
0.0
 12
247.897
 22
82.103
 32
0.0
 13
247.897
 23
87.897
 33
0.0
  0
SOLID
  5
308
330
17
100
AcDbEntity
  8
0
100
AcDbTrace
 10
241.976
 20
91.976
 30
0.0
 11
241.976
 21
98.024
 31
0.0
 12
248.024
 22
91.976
 32
0.0
 13
248.024
 23
98.024
 33
0.0
  0
SOLID
  5
309
330
17
100
AcDbEntity
  8
0
100
AcDbTrace
 10
241.976
 20
101.976
 30
0.0
 11
241.976
 21
108.024
 31
0.0
 12
248.024
 22
101.976
 32
0.0
 13
248.024
 23
108.024
 33
0.0
  0
SOLID
  5
30A
330
17
100
AcDbEntity
  8
0
100
AcDbTrace
 10
241.976
 20
111.976
 30
0.0
 11
241.976
 21
118.024
 31
0.0
 12
248.024
 22
111.976
 32
0.0
 13
248.024
 23
118.024
 33
0.0
  0
SOLID
  5
30B
330
17
100
AcDbEntity
  8
0
100
AcDbTrace
 10
241.976
 20
121.976
 30
0.0
 11
241.976
 21
128.024
 31
0.0
 12
248.024
 22
121.976
 32
0.0
 13
248.024
 23
128.024
 33
0.0
  0
SOLID
  5
30C
330
17
100
AcDbEntity
  8
0
100
AcDbTrace
 10
241.976
 20
131.976
 30
0.0
 11
241.976
 21
138.024
 31
0.0
 12
248.024
 22
131.976
 32
0.0
 13
248.024
 23
138.024
 33
0.0
  0
SOLID
  5
30D
330
17
100
AcDbEntity
  8
0
100
AcDbTrace
 10
241.976
 20
141.976
 30
0.0
 11
241.976
 21
148.024
 31
0.0
 12
248.024
 22
141.976
 32
0.0
 13
248.024
 23
148.024
 33
0.0
  0
SOLID
  5
30E
330
17
100
AcDbEntity
  8
0
100
AcDbTrace
 10
241.976
 20
151.976
 30
0.0
 11
241.976
 21
158.024
 31
0.0
 12
248.024
 22
151.976
 32
0.0
 13
248.024
 23
158.024
 33
0.0
  0
SOLID
  5
30F
330
17
100
AcDbEntity
  8
0
100
AcDbTrace
 10
241.976
 20
161.976
 30
0.0
 11
241.976
 21
168.024
 31
0.0
 12
248.024
 22
161.976
 32
0.0
 13
248.024
 23
168.024
 33
0.0
  0
SOLID
  5
310
330
17
100
AcDbEntity
  8
0
100
AcDbTrace
 10
241.976
 20
171.976
 30
0.0
 11
241.976
 21
178.024
 31
0.0
 12
248.024
 22
171.976
 32
0.0
 13
248.024
 23
178.024
 33
0.0
  0
SOLID
  5
311
330
17
100
AcDbEntity
  8
0
100
AcDbTrace
 10
241.976
 20
181.976
 30
0.0
 11
241.976
 21
188.024
 31
0.0
 12
248.024
 22
181.976
 32
0.0
 13
248.024
 23
188.024
 33
0.0
  0
SOLID
  5
312
330
17
100
AcDbEntity
  8
0
100
AcDbTrace
 10
241.976
 20
191.976
 30
0.0
 11
241.976
 21
198.024
 31
0.0
 12
248.024
 22
191.976
 32
0.0
 13
248.024
 23
198.024
 33
0.0
  0
SOLID
  5
313
330
17
100
AcDbEntity
  8
0
100
AcDbTrace
 10
241.976
 20
201.976
 30
0.0
 11
241.976
 21
208.024
 31
0.0
 12
248.024
 22
201.976
 32
0.0
 13
248.024
 23
208.024
 33
0.0
  0
SOLID
  5
314
330
17
100
AcDbEntity
  8
0
100
AcDbTrace
 10
242.103
 20
212.103
 30
0.0
 11
242.103
 21
217.897
 31
0.0
 12
247.897
 22
212.103
 32
0.0
 13
247.897
 23
217.897
 33
0.0
  0
SOLID
  5
315
330
17
100
AcDbEntity
  8
0
100
AcDbTrace
 10
242.357
 20
222.357
 30
0.0
 11
242.357
 21
227.643
 31
0.0
 12
247.643
 22
222.357
 32
0.0
 13
247.643
 23
227.643
 33
0.0
  0
SOLID
  5
316
330
17
100
AcDbEntity
  8
0
100
AcDbTrace
 10
243.5
 20
233.5
 30
0.0
 11
243.5
 21
236.5
 31
0.0
 12
246.5
 22
233.5
 32
0.0
 13
246.5
 23
236.5
 33
0.0
  0
SOLID
  5
317
330
17
100
AcDbEntity
  8
0
100
AcDbTrace
 10
243.5
 20
243.5
 30
0.0
 11
243.5
 21
246.5
 31
0.0
 12
246.5
 22
243.5
 32
0.0
 13
246.5
 23
246.5
 33
0.0
  0
SOLID
  5
318
330
17
100
AcDbEntity
  8
0
100
AcDbTrace
 10
240.579
 20
250.579
 30
0.0
 11
240.579
 21
259.421
 31
0.0
 12
249.421
 22
250.579
 32
0.0
 13
249.421
 23
259.421
 33
0.0
  0
SOLID
  5
319
330
17
100
AcDbEntity
  8
0
100
AcDbTrace
 10
241.214
 20
261.214
 30
0.0
 11
241.214
 21
268.786
 31
0.0
 12
248.786
 22
261.214
 32
0.0
 13
248.786
 23
268.786
 33
0.0
  0
SOLID
  5
31A
330
17
100
AcDbEntity
  8
0
100
AcDbTrace
 10
241.468
 20
271.468
 30
0.0
 11
241.468
 21
278.532
 31
0.0
 12
248.532
 22
271.468
 32
0.0
 13
248.532
 23
278.532
 33
0.0
  0
SOLID
  5
31B
330
17
100
AcDbEntity
  8
0
100
AcDbTrace
 10
241.722
 20
281.722
 30
0.0
 11
241.722
 21
288.278
 31
0.0
 12
248.278
 22
281.722
 32
0.0
 13
248.278
 23
288.278
 33
0.0
  0
SOLID
  5
31C
330
17
100
AcDbEntity
  8
0
100
AcDbTrace
 10
241.722
 20
291.722
 30
0.0
 11
241.722
 21
298.278
 31
0.0
 12
248.278
 22
291.722
 32
0.0
 13
248.278
 23
298.278
 33
0.0
  0
SOLID
  5
31D
330
17
100
AcDbEntity
  8
0
100
AcDbTrace
 10
251.976
 20
1.976
 30
0.0
 11
251.976
 21
8.024000000000001
 31
0.0
 12
258.024
 22
1.976
 32
0.0
 13
258.024
 23
8.024000000000001
 33
0.0
  0
SOLID
  5
31E
330
17
100
AcDbEntity
  8
0
100
AcDbTrace
 10
251.722
 20
11.722
 30
0.0
 11
251.722
 21
18.278
 31
0.0
 12
258.278
 22
11.722
 32
0.0
 13
258.278
 23
18.278
 33
0.0
  0
SOLID
  5
31F
330
17
100
AcDbEntity
  8
0
100
AcDbTrace
 10
251.595
 20
21.595
 30
0.0
 11
251.595
 21
28.405
 31
0.0
 12
258.405
 22
21.595
 32
0.0
 13
258.405
 23
28.405
 33
0.0
  0
SOLID
  5
320
330
17
100
AcDbEntity
  8
0
100
AcDbTrace
 10
251.468
 20
31.468
 30
0.0
 11
251.468
 21
38.532
 31
0.0
 12
258.532
 22
31.468
 32
0.0
 13
258.532
 23
38.532
 33
0.0
  0
SOLID
  5
321
330
17
100
AcDbEntity
  8
0
100
AcDbTrace
 10
251.087
 20
41.087
 30
0.0
 11
251.087
 21
48.913
 31
0.0
 12
258.913
 22
41.087
 32
0.0
 13
258.913
 23
48.913
 33
0.0
  0
SOLID
  5
322
330
17
100
AcDbEntity
  8
0
100
AcDbTrace
 10
250.127
 20
50.127
 30
0.0
 11
250.127
 21
59.873
 31
0.0
 12
259.873
 22
50.127
 32
0.0
 13
259.873
 23
59.873
 33
0.0
  0
SOLID
  5
323
330
17
100
AcDbEntity
  8
0
100
AcDbTrace
 10
253.5
 20
63.5
 30
0.0
 11
253.5
 21
66.5
 31
0.0
 12
256.5
 22
63.5
 32
0.0
 13
256.5
 23
66.5
 33
0.0
  0
SOLID
  5
324
330
17
100
AcDbEntity
  8
0
100
AcDbTrace
 10
253.119
 20
73.119
 30
0.0
 11
253.119
 21
76.881
 31
0.0
 12
256.881
 22
73.119
 32
0.0
 13
256.881
 23
76.881
 33
0.0
  0
SOLID
  5
325
330
17
100
AcDbEntity
  8
0
100
AcDbTrace
 10
252.357
 20
82.357
 30
0.0
 11
252.357
 21
87.643
 31
0.0
 12
257.643
 22
82.357
 32
0.0
 13
257.643
 23
87.643
 33
0.0
  0
SOLID
  5
326
330
17
100
AcDbEntity
  8
0
100
AcDbTrace
 10
252.23
 20
92.23
 30
0.0
 11
252.23
 21
97.77
 31
0.0
 12
257.77
 22
92.23
 32
0.0
 13
257.77
 23
97.77
 33
0.0
  0
SOLID
  5
327
330
17
100
AcDbEntity
  8
0
100
AcDbTrace
 10
252.103
 20
102.103
 30
0.0
 11
252.103
 21
107.897
 31
0.0
 12
257.897
 22
102.103
 32
0.0
 13
257.897
 23
107.897
 33
0.0
  0
SOLID
  5
328
330
17
100
AcDbEntity
  8
0
100
AcDbTrace
 10
251.976
 20
111.976
 30
0.0
 11
251.976
 21
118.024
 31
0.0
 12
258.024
 22
111.976
 32
0.0
 13
258.024
 23
118.024
 33
0.0
  0
SOLID
  5
329
330
17
100
AcDbEntity
  8
0
100
AcDbTrace
 10
251.976
 20
121.976
 30
0.0
 11
251.976
 21
128.024
 31
0.0
 12
258.024
 22
121.976
 32
0.0
 13
258.024
 23
128.024
 33
0.0
  0
SOLID
  5
32A
330
17
100
AcDbEntity
  8
0
100
AcDbTrace
 10
251.976
 20
131.976
 30
0.0
 11
251.976
 21
138.024
 31
0.0
 12
258.024
 22
131.976
 32
0.0
 13
258.024
 23
138.024
 33
0.0
  0
SOLID
  5
32B
330
17
100
AcDbEntity
  8
0
100
AcDbTrace
 10
251.976
 20
141.976
 30
0.0
 11
251.976
 21
148.024
 31
0.0
 12
258.024
 22
141.976
 32
0.0
 13
258.024
 23
148.024
 33
0.0
  0
SOLID
  5
32C
330
17
100
AcDbEntity
  8
0
100
AcDbTrace
 10
251.976
 20
151.976
 30
0.0
 11
251.976
 21
158.024
 31
0.0
 12
258.024
 22
151.976
 32
0.0
 13
258.024
 23
158.024
 33
0.0
  0
SOLID
  5
32D
330
17
100
AcDbEntity
  8
0
100
AcDbTrace
 10
251.976
 20
161.976
 30
0.0
 11
251.976
 21
168.024
 31
0.0
 12
258.024
 22
161.976
 32
0.0
 13
258.024
 23
168.024
 33
0.0
  0
SOLID
  5
32E
330
17
100
AcDbEntity
  8
0
100
AcDbTrace
 10
251.976
 20
171.976
 30
0.0
 11
251.976
 21
178.024
 31
0.0
 12
258.024
 22
171.976
 32
0.0
 13
258.024
 23
178.024
 33
0.0
  0
SOLID
  5
32F
330
17
100
AcDbEntity
  8
0
100
AcDbTrace
 10
251.976
 20
181.976
 30
0.0
 11
251.976
 21
188.024
 31
0.0
 12
258.024
 22
181.976
 32
0.0
 13
258.024
 23
188.024
 33
0.0
  0
SOLID
  5
330
330
17
100
AcDbEntity
  8
0
100
AcDbTrace
 10
252.103
 20
192.103
 30
0.0
 11
252.103
 21
197.897
 31
0.0
 12
257.897
 22
192.103
 32
0.0
 13
257.897
 23
197.897
 33
0.0
  0
SOLID
  5
331
330
17
100
AcDbEntity
  8
0
100
AcDbTrace
 10
252.23
 20
202.23
 30
0.0
 11
252.23
 21
207.77
 31
0.0
 12
257.77
 22
202.23
 32
0.0
 13
257.77
 23
207.77
 33
0.0
  0
SOLID
  5
332
330
17
100
AcDbEntity
  8
0
100
AcDbTrace
 10
252.357
 20
212.357
 30
0.0
 11
252.357
 21
217.643
 31
0.0
 12
257.643
 22
212.357
 32
0.0
 13
257.643
 23
217.643
 33
0.0
  0
SOLID
  5
333
330
17
100
AcDbEntity
  8
0
100
AcDbTrace
 10
253.119
 20
223.119
 30
0.0
 11
253.119
 21
226.881
 31
0.0
 12
256.881
 22
223.119
 32
0.0
 13
256.881
 23
226.881
 33
0.0
  0
SOLID
  5
334
330
17
100
AcDbEntity
  8
0
100
AcDbTrace
 10
253.5
 20
233.5
 30
0.0
 11
253.5
 21
236.5
 31
0.0
 12
256.5
 22
233.5
 32
0.0
 13
256.5
 23
236.5
 33
0.0
  0
SOLID
  5
335
330
17
100
AcDbEntity
  8
0
100
AcDbTrace
 10
250.127
 20
240.127
 30
0.0
 11
250.127
 21
249.873
 31
0.0
 12
259.873
 22
240.127
 32
0.0
 13
259.873
 23
249.873
 33
0.0
  0
SOLID
  5
336
330
17
100
AcDbEntity
  8
0
100
AcDbTrace
 10
251.087
 20
251.087
 30
0.0
 11
251.087
 21
258.913
 31
0.0
 12
258.913
 22
251.087
 32
0.0
 13
258.913
 23
258.913
 33
0.0
  0
SOLID
  5
337
330
17
100
AcDbEntity
  8
0
100
AcDbTrace
 10
251.468
 20
261.468
 30
0.0
 11
251.468
 21
268.532
 31
0.0
 12
258.532
 22
261.468
 32
0.0
 13
258.532
 23
268.532
 33
0.0
  0
SOLID
  5
338
330
17
100
AcDbEntity
  8
0
100
AcDbTrace
 10
251.595
 20
271.595
 30
0.0
 11
251.595
 21
278.405
 31
0.0
 12
258.405
 22
271.595
 32
0.0
 13
258.405
 23
278.405
 33
0.0
  0
SOLID
  5
339
330
17
100
AcDbEntity
  8
0
100
AcDbTrace
 10
251.722
 20
281.722
 30
0.0
 11
251.722
 21
288.278
 31
0.0
 12
258.278
 22
281.722
 32
0.0
 13
258.278
 23
288.278
 33
0.0
  0
SOLID
  5
33A
330
17
100
AcDbEntity
  8
0
100
AcDbTrace
 10
251.976
 20
291.976
 30
0.0
 11
251.976
 21
298.024
 31
0.0
 12
258.024
 22
291.976
 32
0.0
 13
258.024
 23
298.024
 33
0.0
  0
SOLID
  5
33B
330
17
100
AcDbEntity
  8
0
100
AcDbTrace
 10
261.976
 20
1.976
 30
0.0
 11
261.976
 21
8.024000000000001
 31
0.0
 12
268.024
 22
1.976
 32
0.0
 13
268.024
 23
8.024000000000001
 33
0.0
  0
SOLID
  5
33C
330
17
100
AcDbEntity
  8
0
100
AcDbTrace
 10
261.722
 20
11.722
 30
0.0
 11
261.722
 21
18.278
 31
0.0
 12
268.278
 22
11.722
 32
0.0
 13
268.278
 23
18.278
 33
0.0
  0
SOLID
  5
33D
330
17
100
AcDbEntity
  8
0
100
AcDbTrace
 10
261.595
 20
21.595
 30
0.0
 11
261.595
 21
28.405
 31
0.0
 12
268.405
 22
21.595
 32
0.0
 13
268.405
 23
28.405
 33
0.0
  0
SOLID
  5
33E
330
17
100
AcDbEntity
  8
0
100
AcDbTrace
 10
261.468
 20
31.468
 30
0.0
 11
261.468
 21
38.532
 31
0.0
 12
268.532
 22
31.468
 32
0.0
 13
268.532
 23
38.532
 33
0.0
  0
SOLID
  5
33F
330
17
100
AcDbEntity
  8
0
100
AcDbTrace
 10
261.341
 20
41.341
 30
0.0
 11
261.341
 21
48.659
 31
0.0
 12
268.659
 22
41.341
 32
0.0
 13
268.659
 23
48.659
 33
0.0
  0
SOLID
  5
340
330
17
100
AcDbEntity
  8
0
100
AcDbTrace
 10
260.833
 20
50.833
 30
0.0
 11
260.833
 21
59.167
 31
0.0
 12
269.167
 22
50.833
 32
0.0
 13
269.167
 23
59.167
 33
0.0
  0
SOLID
  5
341
330
17
100
AcDbEntity
  8
0
100
AcDbTrace
 10
260.127
 20
60.127
 30
0.0
 11
260.127
 21
69.873
 31
0.0
 12
269.873
 22
60.127
 32
0.0
 13
269.873
 23
69.873
 33
0.0
  0
SOLID
  5
342
330
17
100
AcDbEntity
  8
0
100
AcDbTrace
 10
263.5
 20
73.5
 30
0.0
 11
263.5
 21
76.5
 31
0.0
 12
266.5
 22
73.5
 32
0.0
 13
266.5
 23
76.5
 33
0.0
  0
SOLID
  5
343
330
17
100
AcDbEntity
  8
0
100
AcDbTrace
 10
263.119
 20
83.119
 30
0.0
 11
263.119
 21
86.881
 31
0.0
 12
266.881
 22
83.119
 32
0.0
 13
266.881
 23
86.881
 33
0.0
  0
SOLID
  5
344
330
17
100
AcDbEntity
  8
0
100
AcDbTrace
 10
262.484
 20
92.484
 30
0.0
 11
262.484
 21
97.516
 31
0.0
 12
267.516
 22
92.484
 32
0.0
 13
267.516
 23
97.516
 33
0.0
  0
SOLID
  5
345
330
17
100
AcDbEntity
  8
0
100
AcDbTrace
 10
262.23
 20
102.23
 30
0.0
 11
262.23
 21
107.77
 31
0.0
 12
267.77
 22
102.23
 32
0.0
 13
267.77
 23
107.77
 33
0.0
  0
SOLID
  5
346
330
17
100
AcDbEntity
  8
0
100
AcDbTrace
 10
262.103
 20
112.103
 30
0.0
 11
262.103
 21
117.897
 31
0.0
 12
267.897
 22
112.103
 32
0.0
 13
267.897
 23
117.897
 33
0.0
  0
SOLID
  5
347
330
17
100
AcDbEntity
  8
0
100
AcDbTrace
 10
262.103
 20
122.103
 30
0.0
 11
262.103
 21
127.897
 31
0.0
 12
267.897
 22
122.103
 32
0.0
 13
267.897
 23
127.897
 33
0.0
  0
SOLID
  5
348
330
17
100
AcDbEntity
  8
0
100
AcDbTrace
 10
261.976
 20
131.976
 30
0.0
 11
261.976
 21
138.024
 31
0.0
 12
268.024
 22
131.976
 32
0.0
 13
268.024
 23
138.024
 33
0.0
  0
SOLID
  5
349
330
17
100
AcDbEntity
  8
0
100
AcDbTrace
 10
261.976
 20
141.976
 30
0.0
 11
261.976
 21
148.024
 31
0.0
 12
268.024
 22
141.976
 32
0.0
 13
268.024
 23
148.024
 33
0.0
  0
SOLID
  5
34A
330
17
100
AcDbEntity
  8
0
100
AcDbTrace
 10
261.976
 20
151.976
 30
0.0
 11
261.976
 21
158.024
 31
0.0
 12
268.024
 22
151.976
 32
0.0
 13
268.024
 23
158.024
 33
0.0
  0
SOLID
  5
34B
330
17
100
AcDbEntity
  8
0
100
AcDbTrace
 10
261.976
 20
161.976
 30
0.0
 11
261.976
 21
168.024
 31
0.0
 12
268.024
 22
161.976
 32
0.0
 13
268.024
 23
168.024
 33
0.0
  0
SOLID
  5
34C
330
17
100
AcDbEntity
  8
0
100
AcDbTrace
 10
262.103
 20
172.103
 30
0.0
 11
262.103
 21
177.897
 31
0.0
 12
267.897
 22
172.103
 32
0.0
 13
267.897
 23
177.897
 33
0.0
  0
SOLID
  5
34D
330
17
100
AcDbEntity
  8
0
100
AcDbTrace
 10
262.103
 20
182.103
 30
0.0
 11
262.103
 21
187.897
 31
0.0
 12
267.897
 22
182.103
 32
0.0
 13
267.897
 23
187.897
 33
0.0
  0
SOLID
  5
34E
330
17
100
AcDbEntity
  8
0
100
AcDbTrace
 10
262.23
 20
192.23
 30
0.0
 11
262.23
 21
197.77
 31
0.0
 12
267.77
 22
192.23
 32
0.0
 13
267.77
 23
197.77
 33
0.0
  0
SOLID
  5
34F
330
17
100
AcDbEntity
  8
0
100
AcDbTrace
 10
262.484
 20
202.484
 30
0.0
 11
262.484
 21
207.516
 31
0.0
 12
267.516
 22
202.484
 32
0.0
 13
267.516
 23
207.516
 33
0.0
  0
SOLID
  5
350
330
17
100
AcDbEntity
  8
0
100
AcDbTrace
 10
263.119
 20
213.119
 30
0.0
 11
263.119
 21
216.881
 31
0.0
 12
266.881
 22
213.119
 32
0.0
 13
266.881
 23
216.881
 33
0.0
  0
SOLID
  5
351
330
17
100
AcDbEntity
  8
0
100
AcDbTrace
 10
263.5
 20
223.5
 30
0.0
 11
263.5
 21
226.5
 31
0.0
 12
266.5
 22
223.5
 32
0.0
 13
266.5
 23
226.5
 33
0.0
  0
SOLID
  5
352
330
17
100
AcDbEntity
  8
0
100
AcDbTrace
 10
260.127
 20
230.127
 30
0.0
 11
260.127
 21
239.873
 31
0.0
 12
269.873
 22
230.127
 32
0.0
 13
269.873
 23
239.873
 33
0.0
  0
SOLID
  5
353
330
17
100
AcDbEntity
  8
0
100
AcDbTrace
 10
260.833
 20
240.833
 30
0.0
 11
260.833
 21
249.167
 31
0.0
 12
269.167
 22
240.833
 32
0.0
 13
269.167
 23
249.167
 33
0.0
  0
SOLID
  5
354
330
17
100
AcDbEntity
  8
0
100
AcDbTrace
 10
261.341
 20
251.341
 30
0.0
 11
261.341
 21
258.659
 31
0.0
 12
268.659
 22
251.341
 32
0.0
 13
268.659
 23
258.659
 33
0.0
  0
SOLID
  5
355
330
17
100
AcDbEntity
  8
0
100
AcDbTrace
 10
261.468
 20
261.468
 30
0.0
 11
261.468
 21
268.532
 31
0.0
 12
268.532
 22
261.468
 32
0.0
 13
268.532
 23
268.532
 33
0.0
  0
SOLID
  5
356
330
17
100
AcDbEntity
  8
0
100
AcDbTrace
 10
261.595
 20
271.595
 30
0.0
 11
261.595
 21
278.405
 31
0.0
 12
268.405
 22
271.595
 32
0.0
 13
268.405
 23
278.405
 33
0.0
  0
SOLID
  5
357
330
17
100
AcDbEntity
  8
0
100
AcDbTrace
 10
261.722
 20
281.722
 30
0.0
 11
261.722
 21
288.278
 31
0.0
 12
268.278
 22
281.722
 32
0.0
 13
268.278
 23
288.278
 33
0.0
  0
SOLID
  5
358
330
17
100
AcDbEntity
  8
0
100
AcDbTrace
 10
261.976
 20
291.976
 30
0.0
 11
261.976
 21
298.024
 31
0.0
 12
268.024
 22
291.976
 32
0.0
 13
268.024
 23
298.024
 33
0.0
  0
SOLID
  5
359
330
17
100
AcDbEntity
  8
0
100
AcDbTrace
 10
271.976
 20
1.976
 30
0.0
 11
271.976
 21
8.024000000000001
 31
0.0
 12
278.024
 22
1.976
 32
0.0
 13
278.024
 23
8.024000000000001
 33
0.0
  0
SOLID
  5
35A
330
17
100
AcDbEntity
  8
0
100
AcDbTrace
 10
271.722
 20
11.722
 30
0.0
 11
271.722
 21
18.278
 31
0.0
 12
278.278
 22
11.722
 32
0.0
 13
278.278
 23
18.278
 33
0.0
  0
SOLID
  5
35B
330
17
100
AcDbEntity
  8
0
100
AcDbTrace
 10
271.722
 20
21.722
 30
0.0
 11
271.722
 21
28.278
 31
0.0
 12
278.278
 22
21.722
 32
0.0
 13
278.278
 23
28.278
 33
0.0
  0
SOLID
  5
35C
330
17
100
AcDbEntity
  8
0
100
AcDbTrace
 10
271.595
 20
31.595
 30
0.0
 11
271.595
 21
38.405
 31
0.0
 12
278.405
 22
31.595
 32
0.0
 13
278.405
 23
38.405
 33
0.0
  0
SOLID
  5
35D
330
17
100
AcDbEntity
  8
0
100
AcDbTrace
 10
271.468
 20
41.468
 30
0.0
 11
271.468
 21
48.532
 31
0.0
 12
278.532
 22
41.468
 32
0.0
 13
278.532
 23
48.532
 33
0.0
  0
SOLID
  5
35E
330
17
100
AcDbEntity
  8
0
100
AcDbTrace
 10
271.214
 20
51.214
 30
0.0
 11
271.214
 21
58.786
 31
0.0
 12
278.786
 22
51.214
 32
0.0
 13
278.786
 23
58.786
 33
0.0
  0
SOLID
  5
35F
330
17
100
AcDbEntity
  8
0
100
AcDbTrace
 10
270.706
 20
60.706
 30
0.0
 11
270.706
 21
69.294
 31
0.0
 12
279.294
 22
60.706
 32
0.0
 13
279.294
 23
69.294
 33
0.0
  0
SOLID
  5
360
330
17
100
AcDbEntity
  8
0
100
AcDbTrace
 10
270.127
 20
70.127
 30
0.0
 11
270.127
 21
79.873
 31
0.0
 12
279.873
 22
70.127
 32
0.0
 13
279.873
 23
79.873
 33
0.0
  0
SOLID
  5
361
330
17
100
AcDbEntity
  8
0
100
AcDbTrace
 10
273.5
 20
83.5
 30
0.0
 11
273.5
 21
86.5
 31
0.0
 12
276.5
 22
83.5
 32
0.0
 13
276.5
 23
86.5
 33
0.0
  0
SOLID
  5
362
330
17
100
AcDbEntity
  8
0
100
AcDbTrace
 10
273.5
 20
93.5
 30
0.0
 11
273.5
 21
96.5
 31
0.0
 12
276.5
 22
93.5
 32
0.0
 13
276.5
 23
96.5
 33
0.0
  0
SOLID
  5
363
330
17
100
AcDbEntity
  8
0
100
AcDbTrace
 10
272.611
 20
102.611
 30
0.0
 11
272.611
 21
107.389
 31
0.0
 12
277.389
 22
102.611
 32
0.0
 13
277.389
 23
107.389
 33
0.0
  0
SOLID
  5
364
330
17
100
AcDbEntity
  8
0
100
AcDbTrace
 10
272.357
 20
112.357
 30
0.0
 11
272.357
 21
117.643
 31
0.0
 12
277.643
 22
112.357
 32
0.0
 13
277.643
 23
117.643
 33
0.0
  0
SOLID
  5
365
330
17
100
AcDbEntity
  8
0
100
AcDbTrace
 10
272.23
 20
122.23
 30
0.0
 11
272.23
 21
127.77
 31
0.0
 12
277.77
 22
122.23
 32
0.0
 13
277.77
 23
127.77
 33
0.0
  0
SOLID
  5
366
330
17
100
AcDbEntity
  8
0
100
AcDbTrace
 10
272.23
 20
132.23
 30
0.0
 11
272.23
 21
137.77
 31
0.0
 12
277.77
 22
132.23
 32
0.0
 13
277.77
 23
137.77
 33
0.0
  0
SOLID
  5
367
330
17
100
AcDbEntity
  8
0
100
AcDbTrace
 10
272.23
 20
142.23
 30
0.0
 11
272.23
 21
147.77
 31
0.0
 12
277.77
 22
142.23
 32
0.0
 13
277.77
 23
147.77
 33
0.0
  0
SOLID
  5
368
330
17
100
AcDbEntity
  8
0
100
AcDbTrace
 10
272.23
 20
152.23
 30
0.0
 11
272.23
 21
157.77
 31
0.0
 12
277.77
 22
152.23
 32
0.0
 13
277.77
 23
157.77
 33
0.0
  0
SOLID
  5
369
330
17
100
AcDbEntity
  8
0
100
AcDbTrace
 10
272.23
 20
162.23
 30
0.0
 11
272.23
 21
167.77
 31
0.0
 12
277.77
 22
162.23
 32
0.0
 13
277.77
 23
167.77
 33
0.0
  0
SOLID
  5
36A
330
17
100
AcDbEntity
  8
0
100
AcDbTrace
 10
272.23
 20
172.23
 30
0.0
 11
272.23
 21
177.77
 31
0.0
 12
277.77
 22
172.23
 32
0.0
 13
277.77
 23
177.77
 33
0.0
  0
SOLID
  5
36B
330
17
100
AcDbEntity
  8
0
100
AcDbTrace
 10
272.357
 20
182.357
 30
0.0
 11
272.357
 21
187.643
 31
0.0
 12
277.643
 22
182.357
 32
0.0
 13
277.643
 23
187.643
 33
0.0
  0
SOLID
  5
36C
330
17
100
AcDbEntity
  8
0
100
AcDbTrace
 10
272.611
 20
192.611
 30
0.0
 11
272.611
 21
197.389
 31
0.0
 12
277.389
 22
192.611
 32
0.0
 13
277.389
 23
197.389
 33
0.0
  0
SOLID
  5
36D
330
17
100
AcDbEntity
  8
0
100
AcDbTrace
 10
273.5
 20
203.5
 30
0.0
 11
273.5
 21
206.5
 31
0.0
 12
276.5
 22
203.5
 32
0.0
 13
276.5
 23
206.5
 33
0.0
  0
SOLID
  5
36E
330
17
100
AcDbEntity
  8
0
100
AcDbTrace
 10
273.5
 20
213.5
 30
0.0
 11
273.5
 21
216.5
 31
0.0
 12
276.5
 22
213.5
 32
0.0
 13
276.5
 23
216.5
 33
0.0
  0
SOLID
  5
36F
330
17
100
AcDbEntity
  8
0
100
AcDbTrace
 10
270.127
 20
220.127
 30
0.0
 11
270.127
 21
229.873
 31
0.0
 12
279.873
 22
220.127
 32
0.0
 13
279.873
 23
229.873
 33
0.0
  0
SOLID
  5
370
330
17
100
AcDbEntity
  8
0
100
AcDbTrace
 10
270.706
 20
230.706
 30
0.0
 11
270.706
 21
239.294
 31
0.0
 12
279.294
 22
230.706
 32
0.0
 13
279.294
 23
239.294
 33
0.0
  0
SOLID
  5
371
330
17
100
AcDbEntity
  8
0
100
AcDbTrace
 10
271.214
 20
241.214
 30
0.0
 11
271.214
 21
248.786
 31
0.0
 12
278.786
 22
241.214
 32
0.0
 13
278.786
 23
248.786
 33
0.0
  0
SOLID
  5
372
330
17
100
AcDbEntity
  8
0
100
AcDbTrace
 10
271.468
 20
251.468
 30
0.0
 11
271.468
 21
258.532
 31
0.0
 12
278.532
 22
251.468
 32
0.0
 13
278.532
 23
258.532
 33
0.0
  0
SOLID
  5
373
330
17
100
AcDbEntity
  8
0
100
AcDbTrace
 10
271.595
 20
261.595
 30
0.0
 11
271.595
 21
268.405
 31
0.0
 12
278.405
 22
261.595
 32
0.0
 13
278.405
 23
268.405
 33
0.0
  0
SOLID
  5
374
330
17
100
AcDbEntity
  8
0
100
AcDbTrace
 10
271.722
 20
271.722
 30
0.0
 11
271.722
 21
278.278
 31
0.0
 12
278.278
 22
271.722
 32
0.0
 13
278.278
 23
278.278
 33
0.0
  0
SOLID
  5
375
330
17
100
AcDbEntity
  8
0
100
AcDbTrace
 10
271.722
 20
281.722
 30
0.0
 11
271.722
 21
288.278
 31
0.0
 12
278.278
 22
281.722
 32
0.0
 13
278.278
 23
288.278
 33
0.0
  0
SOLID
  5
376
330
17
100
AcDbEntity
  8
0
100
AcDbTrace
 10
271.976
 20
291.976
 30
0.0
 11
271.976
 21
298.024
 31
0.0
 12
278.024
 22
291.976
 32
0.0
 13
278.024
 23
298.024
 33
0.0
  0
SOLID
  5
377
330
17
100
AcDbEntity
  8
0
100
AcDbTrace
 10
282.103
 20
2.103
 30
0.0
 11
282.103
 21
7.897
 31
0.0
 12
287.897
 22
2.103
 32
0.0
 13
287.897
 23
7.897
 33
0.0
  0
SOLID
  5
378
330
17
100
AcDbEntity
  8
0
100
AcDbTrace
 10
281.976
 20
11.975999999999999
 30
0.0
 11
281.976
 21
18.024
 31
0.0
 12
288.024
 22
11.975999999999999
 32
0.0
 13
288.024
 23
18.024
 33
0.0
  0
SOLID
  5
379
330
17
100
AcDbEntity
  8
0
100
AcDbTrace
 10
281.722
 20
21.722
 30
0.0
 11
281.722
 21
28.278
 31
0.0
 12
288.278
 22
21.722
 32
0.0
 13
288.278
 23
28.278
 33
0.0
  0
SOLID
  5
37A
330
17
100
AcDbEntity
  8
0
100
AcDbTrace
 10
281.722
 20
31.722
 30
0.0
 11
281.722
 21
38.278
 31
0.0
 12
288.278
 22
31.722
 32
0.0
 13
288.278
 23
38.278
 33
0.0
  0
SOLID
  5
37B
330
17
100
AcDbEntity
  8
0
100
AcDbTrace
 10
281.595
 20
41.595
 30
0.0
 11
281.595
 21
48.405
 31
0.0
 12
288.405
 22
41.595
 32
0.0
 13
288.405
 23
48.405
 33
0.0
  0
SOLID
  5
37C
330
17
100
AcDbEntity
  8
0
100
AcDbTrace
 10
281.468
 20
51.468
 30
0.0
 11
281.468
 21
58.532
 31
0.0
 12
288.532
 22
51.468
 32
0.0
 13
288.532
 23
58.532
 33
0.0
  0
SOLID
  5
37D
330
17
100
AcDbEntity
  8
0
100
AcDbTrace
 10
281.214
 20
61.214
 30
0.0
 11
281.214
 21
68.786
 31
0.0
 12
288.786
 22
61.214
 32
0.0
 13
288.786
 23
68.786
 33
0.0
  0
SOLID
  5
37E
330
17
100
AcDbEntity
  8
0
100
AcDbTrace
 10
280.833
 20
70.833
 30
0.0
 11
280.833
 21
79.167
 31
0.0
 12
289.167
 22
70.833
 32
0.0
 13
289.167
 23
79.167
 33
0.0
  0
SOLID
  5
37F
330
17
100
AcDbEntity
  8
0
100
AcDbTrace
 10
280.127
 20
80.127
 30
0.0
 11
280.127
 21
89.873
 31
0.0
 12
289.873
 22
80.127
 32
0.0
 13
289.873
 23
89.873
 33
0.0
  0
SOLID
  5
380
330
17
100
AcDbEntity
  8
0
100
AcDbTrace
 10
283.5
 20
93.5
 30
0.0
 11
283.5
 21
96.5
 31
0.0
 12
286.5
 22
93.5
 32
0.0
 13
286.5
 23
96.5
 33
0.0
  0
SOLID
  5
381
330
17
100
AcDbEntity
  8
0
100
AcDbTrace
 10
283.5
 20
103.5
 30
0.0
 11
283.5
 21
106.5
 31
0.0
 12
286.5
 22
103.5
 32
0.0
 13
286.5
 23
106.5
 33
0.0
  0
SOLID
  5
382
330
17
100
AcDbEntity
  8
0
100
AcDbTrace
 10
283.5
 20
113.5
 30
0.0
 11
283.5
 21
116.5
 31
0.0
 12
286.5
 22
113.5
 32
0.0
 13
286.5
 23
116.5
 33
0.0
  0
SOLID
  5
383
330
17
100
AcDbEntity
  8
0
100
AcDbTrace
 10
282.865
 20
122.865
 30
0.0
 11
282.865
 21
127.135
 31
0.0
 12
287.135
 22
122.865
 32
0.0
 13
287.135
 23
127.135
 33
0.0
  0
SOLID
  5
384
330
17
100
AcDbEntity
  8
0
100
AcDbTrace
 10
282.611
 20
132.611
 30
0.0
 11
282.611
 21
137.389
 31
0.0
 12
287.389
 22
132.611
 32
0.0
 13
287.389
 23
137.389
 33
0.0
  0
SOLID
  5
385
330
17
100
AcDbEntity
  8
0
100
AcDbTrace
 10
282.611
 20
142.611
 30
0.0
 11
282.611
 21
147.389
 31
0.0
 12
287.389
 22
142.611
 32
0.0
 13
287.389
 23
147.389
 33
0.0
  0
SOLID
  5
386
330
17
100
AcDbEntity
  8
0
100
AcDbTrace
 10
282.611
 20
152.611
 30
0.0
 11
282.611
 21
157.389
 31
0.0
 12
287.389
 22
152.611
 32
0.0
 13
287.389
 23
157.389
 33
0.0
  0
SOLID
  5
387
330
17
100
AcDbEntity
  8
0
100
AcDbTrace
 10
282.611
 20
162.611
 30
0.0
 11
282.611
 21
167.389
 31
0.0
 12
287.389
 22
162.611
 32
0.0
 13
287.389
 23
167.389
 33
0.0
  0
SOLID
  5
388
330
17
100
AcDbEntity
  8
0
100
AcDbTrace
 10
282.865
 20
172.865
 30
0.0
 11
282.865
 21
177.135
 31
0.0
 12
287.135
 22
172.865
 32
0.0
 13
287.135
 23
177.135
 33
0.0
  0
SOLID
  5
389
330
17
100
AcDbEntity
  8
0
100
AcDbTrace
 10
283.5
 20
183.5
 30
0.0
 11
283.5
 21
186.5
 31
0.0
 12
286.5
 22
183.5
 32
0.0
 13
286.5
 23
186.5
 33
0.0
  0
SOLID
  5
38A
330
17
100
AcDbEntity
  8
0
100
AcDbTrace
 10
283.5
 20
193.5
 30
0.0
 11
283.5
 21
196.5
 31
0.0
 12
286.5
 22
193.5
 32
0.0
 13
286.5
 23
196.5
 33
0.0
  0
SOLID
  5
38B
330
17
100
AcDbEntity
  8
0
100
AcDbTrace
 10
283.5
 20
203.5
 30
0.0
 11
283.5
 21
206.5
 31
0.0
 12
286.5
 22
203.5
 32
0.0
 13
286.5
 23
206.5
 33
0.0
  0
SOLID
  5
38C
330
17
100
AcDbEntity
  8
0
100
AcDbTrace
 10
280.127
 20
210.127
 30
0.0
 11
280.127
 21
219.873
 31
0.0
 12
289.873
 22
210.127
 32
0.0
 13
289.873
 23
219.873
 33
0.0
  0
SOLID
  5
38D
330
17
100
AcDbEntity
  8
0
100
AcDbTrace
 10
280.833
 20
220.833
 30
0.0
 11
280.833
 21
229.167
 31
0.0
 12
289.167
 22
220.833
 32
0.0
 13
289.167
 23
229.167
 33
0.0
  0
SOLID
  5
38E
330
17
100
AcDbEntity
  8
0
100
AcDbTrace
 10
281.214
 20
231.214
 30
0.0
 11
281.214
 21
238.786
 31
0.0
 12
288.786
 22
231.214
 32
0.0
 13
288.786
 23
238.786
 33
0.0
  0
SOLID
  5
38F
330
17
100
AcDbEntity
  8
0
100
AcDbTrace
 10
281.468
 20
241.468
 30
0.0
 11
281.468
 21
248.532
 31
0.0
 12
288.532
 22
241.468
 32
0.0
 13
288.532
 23
248.532
 33
0.0
  0
SOLID
  5
390
330
17
100
AcDbEntity
  8
0
100
AcDbTrace
 10
281.595
 20
251.595
 30
0.0
 11
281.595
 21
258.405
 31
0.0
 12
288.405
 22
251.595
 32
0.0
 13
288.405
 23
258.405
 33
0.0
  0
SOLID
  5
391
330
17
100
AcDbEntity
  8
0
100
AcDbTrace
 10
281.722
 20
261.722
 30
0.0
 11
281.722
 21
268.278
 31
0.0
 12
288.278
 22
261.722
 32
0.0
 13
288.278
 23
268.278
 33
0.0
  0
SOLID
  5
392
330
17
100
AcDbEntity
  8
0
100
AcDbTrace
 10
281.722
 20
271.722
 30
0.0
 11
281.722
 21
278.278
 31
0.0
 12
288.278
 22
271.722
 32
0.0
 13
288.278
 23
278.278
 33
0.0
  0
SOLID
  5
393
330
17
100
AcDbEntity
  8
0
100
AcDbTrace
 10
281.976
 20
281.976
 30
0.0
 11
281.976
 21
288.024
 31
0.0
 12
288.024
 22
281.976
 32
0.0
 13
288.024
 23
288.024
 33
0.0
  0
SOLID
  5
394
330
17
100
AcDbEntity
  8
0
100
AcDbTrace
 10
282.103
 20
292.103
 30
0.0
 11
282.103
 21
297.897
 31
0.0
 12
287.897
 22
292.103
 32
0.0
 13
287.897
 23
297.897
 33
0.0
  0
SOLID
  5
395
330
17
100
AcDbEntity
  8
0
100
AcDbTrace
 10
292.357
 20
2.357
 30
0.0
 11
292.357
 21
7.643
 31
0.0
 12
297.643
 22
2.357
 32
0.0
 13
297.643
 23
7.643
 33
0.0
  0
SOLID
  5
396
330
17
100
AcDbEntity
  8
0
100
AcDbTrace
 10
291.976
 20
11.975999999999999
 30
0.0
 11
291.976
 21
18.024
 31
0.0
 12
298.024
 22
11.975999999999999
 32
0.0
 13
298.024
 23
18.024
 33
0.0
  0
SOLID
  5
397
330
17
100
AcDbEntity
  8
0
100
AcDbTrace
 10
291.976
 20
21.976
 30
0.0
 11
291.976
 21
28.024
 31
0.0
 12
298.024
 22
21.976
 32
0.0
 13
298.024
 23
28.024
 33
0.0
  0
SOLID
  5
398
330
17
100
AcDbEntity
  8
0
100
AcDbTrace
 10
291.722
 20
31.722
 30
0.0
 11
291.722
 21
38.278
 31
0.0
 12
298.278
 22
31.722
 32
0.0
 13
298.278
 23
38.278
 33
0.0
  0
SOLID
  5
399
330
17
100
AcDbEntity
  8
0
100
AcDbTrace
 10
291.595
 20
41.595
 30
0.0
 11
291.595
 21
48.405
 31
0.0
 12
298.405
 22
41.595
 32
0.0
 13
298.405
 23
48.405
 33
0.0
  0
SOLID
  5
39A
330
17
100
AcDbEntity
  8
0
100
AcDbTrace
 10
291.595
 20
51.595
 30
0.0
 11
291.595
 21
58.405
 31
0.0
 12
298.405
 22
51.595
 32
0.0
 13
298.405
 23
58.405
 33
0.0
  0
SOLID
  5
39B
330
17
100
AcDbEntity
  8
0
100
AcDbTrace
 10
291.468
 20
61.468
 30
0.0
 11
291.468
 21
68.532
 31
0.0
 12
298.532
 22
61.468
 32
0.0
 13
298.532
 23
68.532
 33
0.0
  0
SOLID
  5
39C
330
17
100
AcDbEntity
  8
0
100
AcDbTrace
 10
291.214
 20
71.214
 30
0.0
 11
291.214
 21
78.786
 31
0.0
 12
298.786
 22
71.214
 32
0.0
 13
298.786
 23
78.786
 33
0.0
  0
SOLID
  5
39D
330
17
100
AcDbEntity
  8
0
100
AcDbTrace
 10
290.96
 20
80.96
 30
0.0
 11
290.96
 21
89.04
 31
0.0
 12
299.04
 22
80.96
 32
0.0
 13
299.04
 23
89.04
 33
0.0
  0
SOLID
  5
39E
330
17
100
AcDbEntity
  8
0
100
AcDbTrace
 10
290.325
 20
90.325
 30
0.0
 11
290.325
 21
99.675
 31
0.0
 12
299.675
 22
90.325
 32
0.0
 13
299.675
 23
99.675
 33
0.0
  0
SOLID
  5
39F
330
17
100
AcDbEntity
  8
0
100
AcDbTrace
 10
293.5
 20
103.5
 30
0.0
 11
293.5
 21
106.5
 31
0.0
 12
296.5
 22
103.5
 32
0.0
 13
296.5
 23
106.5
 33
0.0
  0
SOLID
  5
3A0
330
17
100
AcDbEntity
  8
0
100
AcDbTrace
 10
293.5
 20
113.5
 30
0.0
 11
293.5
 21
116.5
 31
0.0
 12
296.5
 22
113.5
 32
0.0
 13
296.5
 23
116.5
 33
0.0
  0
SOLID
  5
3A1
330
17
100
AcDbEntity
  8
0
100
AcDbTrace
 10
293.5
 20
123.5
 30
0.0
 11
293.5
 21
126.5
 31
0.0
 12
296.5
 22
123.5
 32
0.0
 13
296.5
 23
126.5
 33
0.0
  0
SOLID
  5
3A2
330
17
100
AcDbEntity
  8
0
100
AcDbTrace
 10
293.5
 20
133.5
 30
0.0
 11
293.5
 21
136.5
 31
0.0
 12
296.5
 22
133.5
 32
0.0
 13
296.5
 23
136.5
 33
0.0
  0
SOLID
  5
3A3
330
17
100
AcDbEntity
  8
0
100
AcDbTrace
 10
293.5
 20
143.5
 30
0.0
 11
293.5
 21
146.5
 31
0.0
 12
296.5
 22
143.5
 32
0.0
 13
296.5
 23
146.5
 33
0.0
  0
SOLID
  5
3A4
330
17
100
AcDbEntity
  8
0
100
AcDbTrace
 10
293.5
 20
153.5
 30
0.0
 11
293.5
 21
156.5
 31
0.0
 12
296.5
 22
153.5
 32
0.0
 13
296.5
 23
156.5
 33
0.0
  0
SOLID
  5
3A5
330
17
100
AcDbEntity
  8
0
100
AcDbTrace
 10
293.5
 20
163.5
 30
0.0
 11
293.5
 21
166.5
 31
0.0
 12
296.5
 22
163.5
 32
0.0
 13
296.5
 23
166.5
 33
0.0
  0
SOLID
  5
3A6
330
17
100
AcDbEntity
  8
0
100
AcDbTrace
 10
293.5
 20
173.5
 30
0.0
 11
293.5
 21
176.5
 31
0.0
 12
296.5
 22
173.5
 32
0.0
 13
296.5
 23
176.5
 33
0.0
  0
SOLID
  5
3A7
330
17
100
AcDbEntity
  8
0
100
AcDbTrace
 10
293.5
 20
183.5
 30
0.0
 11
293.5
 21
186.5
 31
0.0
 12
296.5
 22
183.5
 32
0.0
 13
296.5
 23
186.5
 33
0.0
  0
SOLID
  5
3A8
330
17
100
AcDbEntity
  8
0
100
AcDbTrace
 10
293.5
 20
193.5
 30
0.0
 11
293.5
 21
196.5
 31
0.0
 12
296.5
 22
193.5
 32
0.0
 13
296.5
 23
196.5
 33
0.0
  0
SOLID
  5
3A9
330
17
100
AcDbEntity
  8
0
100
AcDbTrace
 10
290.325
 20
200.325
 30
0.0
 11
290.325
 21
209.675
 31
0.0
 12
299.675
 22
200.325
 32
0.0
 13
299.675
 23
209.675
 33
0.0
  0
SOLID
  5
3AA
330
17
100
AcDbEntity
  8
0
100
AcDbTrace
 10
290.96
 20
210.96
 30
0.0
 11
290.96
 21
219.04
 31
0.0
 12
299.04
 22
210.96
 32
0.0
 13
299.04
 23
219.04
 33
0.0
  0
SOLID
  5
3AB
330
17
100
AcDbEntity
  8
0
100
AcDbTrace
 10
291.214
 20
221.214
 30
0.0
 11
291.214
 21
228.786
 31
0.0
 12
298.786
 22
221.214
 32
0.0
 13
298.786
 23
228.786
 33
0.0
  0
SOLID
  5
3AC
330
17
100
AcDbEntity
  8
0
100
AcDbTrace
 10
291.468
 20
231.468
 30
0.0
 11
291.468
 21
238.532
 31
0.0
 12
298.532
 22
231.468
 32
0.0
 13
298.532
 23
238.532
 33
0.0
  0
SOLID
  5
3AD
330
17
100
AcDbEntity
  8
0
100
AcDbTrace
 10
291.595
 20
241.595
 30
0.0
 11
291.595
 21
248.405
 31
0.0
 12
298.405
 22
241.595
 32
0.0
 13
298.405
 23
248.405
 33
0.0
  0
SOLID
  5
3AE
330
17
100
AcDbEntity
  8
0
100
AcDbTrace
 10
291.595
 20
251.595
 30
0.0
 11
291.595
 21
258.405
 31
0.0
 12
298.405
 22
251.595
 32
0.0
 13
298.405
 23
258.405
 33
0.0
  0
SOLID
  5
3AF
330
17
100
AcDbEntity
  8
0
100
AcDbTrace
 10
291.722
 20
261.722
 30
0.0
 11
291.722
 21
268.278
 31
0.0
 12
298.278
 22
261.722
 32
0.0
 13
298.278
 23
268.278
 33
0.0
  0
SOLID
  5
3B0
330
17
100
AcDbEntity
  8
0
100
AcDbTrace
 10
291.976
 20
271.976
 30
0.0
 11
291.976
 21
278.024
 31
0.0
 12
298.024
 22
271.976
 32
0.0
 13
298.024
 23
278.024
 33
0.0
  0
SOLID
  5
3B1
330
17
100
AcDbEntity
  8
0
100
AcDbTrace
 10
291.976
 20
281.976
 30
0.0
 11
291.976
 21
288.024
 31
0.0
 12
298.024
 22
281.976
 32
0.0
 13
298.024
 23
288.024
 33
0.0
  0
SOLID
  5
3B2
330
17
100
AcDbEntity
  8
0
100
AcDbTrace
 10
292.357
 20
292.357
 30
0.0
 11
292.357
 21
297.643
 31
0.0
 12
297.643
 22
292.357
 32
0.0
 13
297.643
 23
297.643
 33
0.0
  0
ENDSEC
  0
SECTION
  2
OBJECTS
  0
DICTIONARY
  5
A
330
0
100
AcDbDictionary
281
1
  3
ACAD_COLOR
350
B
  3
ACAD_GROUP
350
C
  3
ACAD_LAYOUT
350
D
  3
ACAD_MATERIAL
350
E
  3
ACAD_MLEADERSTYLE
350
F
  3
ACAD_MLINESTYLE
350
10
  3
ACAD_PLOTSETTINGS
350
11
  3
ACAD_PLOTSTYLENAME
350
12
  3
ACAD_SCALELIST
350
14
  3
ACAD_TABLESTYLE
350
15
  3
ACAD_VISUALSTYLE
350
16
  3
EZDXF_META
350
2D
  0
DICTIONARY
  5
B
330
A
100
AcDbDictionary
281
1
  0
DICTIONARY
  5
C
330
A
100
AcDbDictionary
281
1
  0
DICTIONARY
  5
D
330
A
100
AcDbDictionary
281
1
  3
Model
350
1A
  3
Layout1
350
1E
  0
DICTIONARY
  5
E
330
A
100
AcDbDictionary
281
1
  3
ByBlock
350
1F
  3
ByLayer
350
20
  3
Global
350
21
  0
DICTIONARY
  5
F
330
A
100
AcDbDictionary
281
1
  3
Standard
350
2C
  0
DICTIONARY
  5
10
330
A
100
AcDbDictionary
281
1
  3
Standard
350
22
  0
DICTIONARY
  5
11
330
A
100
AcDbDictionary
281
1
  0
ACDBDICTIONARYWDFLT
  5
12
330
A
100
AcDbDictionary
281
1
  3
Normal
350
13
100
AcDbDictionaryWithDefault
340
13
  0
ACDBPLACEHOLDER
  5
13
330
12
  0
DICTIONARY
  5
14
330
A
100
AcDbDictionary
281
1
  0
DICTIONARY
  5
15
330
A
100
AcDbDictionary
281
1
  0
DICTIONARY
  5
16
330
A
100
AcDbDictionary
281
1
  0
LAYOUT
  5
1A
330
D
100
AcDbPlotSettings
  1

  4
A3
  6

 40
7.5
 41
20.0
 42
7.5
 43
20.0
 44
420.0
 45
297.0
 46
0.0
 47
0.0
 48
0.0
 49
0.0
140
0.0
141
0.0
142
1.0
143
1.0
 70
1024
 72
1
 73
0
 74
5
  7

 75
16
 76
0
 77
2
 78
300
147
1.0
148
0.0
149
0.0
100
AcDbLayout
  1
Model
 70
1
 71
0
 10
0.0
 20
0.0
 11
420.0
 21
297.0
 12
0.0
 22
0.0
 32
0.0
 14
1e+20
 24
1e+20
 34
1e+20
 15
-1e+20
 25
-1e+20
 35
-1e+20
146
0.0
 13
0.0
 23
0.0
 33
0.0
 16
1.0
 26
0.0
 36
0.0
 17
0.0
 27
1.0
 37
0.0
 76
1
330
17
  0
LAYOUT
  5
1E
330
D
100
AcDbPlotSettings
  1

  4
A3
  6

 40
7.5
 41
20.0
 42
7.5
 43
20.0
 44
420.0
 45
297.0
 46
0.0
 47
0.0
 48
0.0
 49
0.0
140
0.0
141
0.0
142
1.0
143
1.0
 70
0
 72
1
 73
0
 74
5
  7

 75
16
 76
0
 77
2
 78
300
147
1.0
148
0.0
149
0.0
100
AcDbLayout
  1
Layout1
 70
1
 71
1
 10
0.0
 20
0.0
 11
420.0
 21
297.0
 12
0.0
 22
0.0
 32
0.0
 14
1e+20
 24
1e+20
 34
1e+20
 15
-1e+20
 25
-1e+20
 35
-1e+20
146
0.0
 13
0.0
 23
0.0
 33
0.0
 16
1.0
 26
0.0
 36
0.0
 17
0.0
 27
1.0
 37
0.0
 76
1
330
1B
  0
MATERIAL
  5
1F
102
{ACAD_REACTORS
330
E
102
}
330
E
100
AcDbMaterial
  1
ByBlock
  2

 70
0
 40
1.0
 71
1
 41
1.0
 91
-1023410177
 42
1.0
 72
1
  3

 73
1
 74
1
 75
1
 44
0.5
 73
0
 45
1.0
 46
1.0
 77
1
  4

 78
1
 79
1
170
1
 48
1.0
171
1
  6

172
1
173
1
174
1
140
1.0
141
1.0
175
1
  7

176
1
177
1
178
1
143
1.0
179
1
  8

270
1
271
1
272
1
145
1.0
146
1.0
273
1
  9

274
1
275
1
276
1
 42
1.0
 72
1
  3

 73
1
 74
1
 75
1
 94
63
  0
MATERIAL
  5
20
102
{ACAD_REACTORS
330
E
102
}
330
E
100
AcDbMaterial
  1
ByLayer
  2

 70
0
 40
1.0
 71
1
 41
1.0
 91
-1023410177
 42
1.0
 72
1
  3

 73
1
 74
1
 75
1
 44
0.5
 73
0
 45
1.0
 46
1.0
 77
1
  4

 78
1
 79
1
170
1
 48
1.0
171
1
  6

172
1
173
1
174
1
140
1.0
141
1.0
175
1
  7

176
1
177
1
178
1
143
1.0
179
1
  8

270
1
271
1
272
1
145
1.0
146
1.0
273
1
  9

274
1
275
1
276
1
 42
1.0
 72
1
  3

 73
1
 74
1
 75
1
 94
63
  0
MATERIAL
  5
21
102
{ACAD_REACTORS
330
E
102
}
330
E
100
AcDbMaterial
  1
Global
  2

 70
0
 40
1.0
 71
1
 41
1.0
 91
-1023410177
 42
1.0
 72
1
  3

 73
1
 74
1
 75
1
 44
0.5
 73
0
 45
1.0
 46
1.0
 77
1
  4

 78
1
 79
1
170
1
 48
1.0
171
1
  6

172
1
173
1
174
1
140
1.0
141
1.0
175
1
  7

176
1
177
1
178
1
143
1.0
179
1
  8

270
1
271
1
272
1
145
1.0
146
1.0
273
1
  9

274
1
275
1
276
1
 42
1.0
 72
1
  3

 73
1
 74
1
 75
1
 94
63
  0
MLINESTYLE
  5
22
102
{ACAD_REACTORS
330
10
102
}
330
10
100
AcDbMlineStyle
  2
Standard
 70
0
  3

 62
256
 51
90.0
 52
90.0
 71
2
 49
0.5
 62
256
  6
BYLAYER
 49
-0.5
 62
256
  6
BYLAYER
  0
MLEADERSTYLE
  5
2C
102
{ACAD_REACTORS
330
F
102
}
330
F
100
AcDbMLeaderStyle
179
2
170
2
171
1
172
0
 90
2
 40
0.0
 41
0.0
173
1
 91
-1056964608
 92
-2
290
1
 42
2.0
291
1
 43
8.0
  3
Standard
 44
4.0
300

342
29
174
1
175
1
176
0
178
1
 93
-1056964608
 45
4.0
292
0
297
0
 46
4.0
 94
-1056964608
 47
1.0
 49
1.0
140
1.0
294
1
141
0.0
177
0
142
1.0
295
0
296
0
143
3.75
271
0
272
9
273
9
  0
DICTIONARY
  5
2D
330
A
100
AcDbDictionary
280
1
281
1
  3
CREATED_BY_EZDXF
350
2E
  3
WRITTEN_BY_EZDXF
350
3B5
  0
DICTIONARYVAR
  5
2E
330
2D
100
DictionaryVariables
280
0
  1
1.4.3 @ 2026-05-20T05:06:28.578680+00:00
  0
DICTIONARYVAR
  5
3B5
330
2D
100
DictionaryVariables
280
0
  1
1.4.3 @ 2026-05-20T05:06:28.589718+00:00
  0
ENDSEC
  0
EOF
